<?xml version="1.0"?>
<svg xmlns="http://www.w3.org/2000/svg" xmlns:xlink="http://www.w3.org/1999/xlink" viewBox="0 0 548.400000 92.000000" width="274.200000mm" height="46.000000mm" version="1.1">
<a xlink:href="an-0x7f68281305c0.svg">
<rect x="1.000000" y="1.000000" width="547.400000" height="91.000000" rx="0" ry="0" style="stroke:none;fill:#cccccc;"/>
<rect x="0.000000" y="0.000000" width="547.400000" height="91.000000" rx="0" ry="0" style="stroke:none;fill:#ffffff;"/>
</a>
<text x="10.000000" y="7.000000" font-family="Arial" font-size="7"></text>
<rect x="35.000000" y="35.000000" width="335.400000" height="24.000000" rx="0" ry="0" style="stroke:none;fill:#cccccc;"/>
<rect x="34.000000" y="34.000000" width="335.400000" height="24.000000" rx="0" ry="0" style="stroke:none;fill:#477881;"/>
<text x="201.700000" y="48.000000" font-family="Arial" font-size="7" text-anchor="middle" fill="#FFFFFF">hslider(attack, 1e-08f, 0.0f, 0.10000000000000001f, 1.0000000000000001e-09f)</text>
<circle cx="36.000000" cy="36.000000" r="1"/>
<a xlink:href="smooth-0x7f6828042500.svg">
<rect x="378.400000" y="35.000000" width="129.000000" height="24.000000" rx="0" ry="0" style="stroke:none;fill:#cccccc;"/>
<rect x="377.400000" y="34.000000" width="129.000000" height="24.000000" rx="0" ry="0" style="stroke:none;fill:#003366;"/>
</a>
<a xlink:href="smooth-0x7f6828042500.svg">
<text x="441.900000" y="48.000000" font-family="Arial" font-size="7" text-anchor="middle" fill="#FFFFFF">smooth(0.10000000000000001f)</text>
</a>
<circle cx="379.400000" cy="36.000000" r="1"/>
<line x1="374.400000" y1="45.000000" x2="377.400000" y2="46.000000"  transform="rotate(0.000000,377.400000,46.000000)" style="stroke: black; stroke-width:0.25;"/>
<line x1="374.400000" y1="47.000000" x2="377.400000" y2="46.000000"  transform="rotate(0.000000,377.400000,46.000000)" style="stroke: black; stroke-width:0.25;"/>
<line x1="25.000000" y1="25.000000" x2="25.000000" y2="67.000000"  style="stroke: black; stroke-linecap:round; stroke-width:0.25; stroke-dasharray:3,3;"/>
<line x1="25.000000" y1="67.000000" x2="515.400000" y2="67.000000"  style="stroke: black; stroke-linecap:round; stroke-width:0.25; stroke-dasharray:3,3;"/>
<line x1="515.400000" y1="67.000000" x2="515.400000" y2="25.000000"  style="stroke: black; stroke-linecap:round; stroke-width:0.25; stroke-dasharray:3,3;"/>
<line x1="25.000000" y1="25.000000" x2="30.000000" y2="25.000000"  style="stroke: black; stroke-linecap:round; stroke-width:0.25; stroke-dasharray:3,3;"/>
<line x1="78.375000" y1="25.000000" x2="515.400000" y2="25.000000"  style="stroke: black; stroke-linecap:round; stroke-width:0.25; stroke-dasharray:3,3;"/>
<text x="30.000000" y="27.000000" font-family="Arial" font-size="7">vgroup(snare)</text>
<line x1="15.000000" y1="15.000000" x2="15.000000" y2="77.000000"  style="stroke: black; stroke-linecap:round; stroke-width:0.25; stroke-dasharray:3,3;"/>
<line x1="15.000000" y1="77.000000" x2="533.400000" y2="77.000000"  style="stroke: black; stroke-linecap:round; stroke-width:0.25; stroke-dasharray:3,3;"/>
<line x1="533.400000" y1="77.000000" x2="533.400000" y2="15.000000"  style="stroke: black; stroke-linecap:round; stroke-width:0.25; stroke-dasharray:3,3;"/>
<line x1="15.000000" y1="15.000000" x2="20.000000" y2="15.000000"  style="stroke: black; stroke-linecap:round; stroke-width:0.25; stroke-dasharray:3,3;"/>
<line x1="45.800000" y1="15.000000" x2="533.400000" y2="15.000000"  style="stroke: black; stroke-linecap:round; stroke-width:0.25; stroke-dasharray:3,3;"/>
<text x="20.000000" y="17.000000" font-family="Arial" font-size="7">attack</text>
<line x1="535.400000" y1="45.000000" x2="538.400000" y2="46.000000"  transform="rotate(0.000000,538.400000,46.000000)" style="stroke: black; stroke-width:0.25;"/>
<line x1="535.400000" y1="47.000000" x2="538.400000" y2="46.000000"  transform="rotate(0.000000,538.400000,46.000000)" style="stroke: black; stroke-width:0.25;"/>
<line x1="369.400000" y1="46.000000" x2="373.400000" y2="46.000000"  style="stroke:black; stroke-linecap:round; stroke-width:0.25;"/>
<line x1="373.400000" y1="46.000000" x2="373.400000" y2="46.000000"  style="stroke:black; stroke-linecap:round; stroke-width:0.25;"/>
<line x1="373.400000" y1="46.000000" x2="377.400000" y2="46.000000"  style="stroke:black; stroke-linecap:round; stroke-width:0.25;"/>
<line x1="506.400000" y1="46.000000" x2="510.400000" y2="46.000000"  style="stroke:black; stroke-linecap:round; stroke-width:0.25;"/>
<line x1="510.400000" y1="46.000000" x2="520.400000" y2="46.000000"  style="stroke:black; stroke-linecap:round; stroke-width:0.25;"/>
<line x1="520.400000" y1="46.000000" x2="520.400000" y2="46.000000"  style="stroke:black; stroke-linecap:round; stroke-width:0.25;"/>
<line x1="520.400000" y1="46.000000" x2="524.400000" y2="46.000000"  style="stroke:black; stroke-linecap:round; stroke-width:0.25;"/>
<line x1="524.400000" y1="46.000000" x2="528.400000" y2="46.000000"  style="stroke:black; stroke-linecap:round; stroke-width:0.25;"/>
<line x1="528.400000" y1="46.000000" x2="538.400000" y2="46.000000"  style="stroke:black; stroke-linecap:round; stroke-width:0.25;"/>
</svg>
