<?xml version="1.0"?>
<svg xmlns="http://www.w3.org/2000/svg" xmlns:xlink="http://www.w3.org/1999/xlink" viewBox="0 0 343.900000 104.000000" width="171.950000mm" height="52.000000mm" version="1.1">
<a xlink:href="trimod-0x7fe09c646b40.svg">
<rect x="1.000000" y="1.000000" width="342.900000" height="103.000000" rx="0" ry="0" style="stroke:none;fill:#cccccc;"/>
<rect x="0.000000" y="0.000000" width="342.900000" height="103.000000" rx="0" ry="0" style="stroke:none;fill:#ffffff;"/>
</a>
<text x="10.000000" y="7.000000" font-family="Arial" font-size="7"></text>
<rect x="33.000000" y="41.000000" width="25.800000" height="24.000000" rx="0" ry="0" style="stroke:none;fill:#cccccc;"/>
<rect x="32.000000" y="40.000000" width="25.800000" height="24.000000" rx="0" ry="0" style="stroke:none;fill:#47945E;"/>
<text x="44.900000" y="54.000000" font-family="Arial" font-size="7" text-anchor="middle" fill="#FFFFFF">freq</text>
<circle cx="34.000000" cy="42.000000" r="1"/>
<line x1="29.000000" y1="51.000000" x2="32.000000" y2="52.000000"  transform="rotate(0.000000,32.000000,52.000000)" style="stroke: black; stroke-width:0.25;"/>
<line x1="29.000000" y1="53.000000" x2="32.000000" y2="52.000000"  transform="rotate(0.000000,32.000000,52.000000)" style="stroke: black; stroke-width:0.25;"/>
<a xlink:href="f2smp-0x7fe09c63c3a0.svg">
<rect x="66.800000" y="41.000000" width="51.600000" height="24.000000" rx="0" ry="0" style="stroke:none;fill:#cccccc;"/>
<rect x="65.800000" y="40.000000" width="51.600000" height="24.000000" rx="0" ry="0" style="stroke:none;fill:#003366;"/>
</a>
<a xlink:href="f2smp-0x7fe09c63c3a0.svg">
<text x="91.600000" y="54.000000" font-family="Arial" font-size="7" text-anchor="middle" fill="#FFFFFF">f2smp(x21)</text>
</a>
<circle cx="67.800000" cy="42.000000" r="1"/>
<a xlink:href="phasor-0x7fe09c641bd0.svg">
<rect x="126.400000" y="41.000000" width="25.800000" height="24.000000" rx="0" ry="0" style="stroke:none;fill:#cccccc;"/>
<rect x="125.400000" y="40.000000" width="25.800000" height="24.000000" rx="0" ry="0" style="stroke:none;fill:#003366;"/>
</a>
<a xlink:href="phasor-0x7fe09c641bd0.svg">
<text x="138.300000" y="54.000000" font-family="Arial" font-size="7" text-anchor="middle" fill="#FFFFFF">phasor</text>
</a>
<circle cx="127.400000" cy="42.000000" r="1"/>
<line x1="122.400000" y1="51.000000" x2="125.400000" y2="52.000000"  transform="rotate(0.000000,125.400000,52.000000)" style="stroke: black; stroke-width:0.25;"/>
<line x1="122.400000" y1="53.000000" x2="125.400000" y2="52.000000"  transform="rotate(0.000000,125.400000,52.000000)" style="stroke: black; stroke-width:0.25;"/>
<rect x="168.200000" y="45.000000" width="38.700000" height="24.000000" rx="0" ry="0" style="stroke:none;fill:#cccccc;"/>
<rect x="167.200000" y="44.000000" width="38.700000" height="24.000000" rx="0" ry="0" style="stroke:none;fill:#f44800;"/>
<text x="186.550000" y="58.000000" font-family="Arial" font-size="7" text-anchor="middle" fill="#FFFFFF">6.28319</text>
<circle cx="169.200000" cy="46.000000" r="1"/>
<rect x="222.900000" y="41.000000" width="24.000000" height="24.000000" rx="0" ry="0" style="stroke:none;fill:#cccccc;"/>
<rect x="221.900000" y="40.000000" width="24.000000" height="24.000000" rx="0" ry="0" style="stroke:none;fill:#4B71A1;"/>
<text x="233.900000" y="54.000000" font-family="Arial" font-size="7" text-anchor="middle" fill="#FFFFFF">*</text>
<circle cx="223.900000" cy="42.000000" r="1"/>
<line x1="218.900000" y1="47.000000" x2="221.900000" y2="48.000000"  transform="rotate(0.000000,221.900000,48.000000)" style="stroke: black; stroke-width:0.25;"/>
<line x1="218.900000" y1="49.000000" x2="221.900000" y2="48.000000"  transform="rotate(0.000000,221.900000,48.000000)" style="stroke: black; stroke-width:0.25;"/>
<line x1="218.900000" y1="55.000000" x2="221.900000" y2="56.000000"  transform="rotate(0.000000,221.900000,56.000000)" style="stroke: black; stroke-width:0.25;"/>
<line x1="218.900000" y1="57.000000" x2="221.900000" y2="56.000000"  transform="rotate(0.000000,221.900000,56.000000)" style="stroke: black; stroke-width:0.25;"/>
<rect x="280.900000" y="25.000000" width="24.000000" height="24.000000" rx="0" ry="0" style="stroke:none;fill:#cccccc;"/>
<rect x="279.900000" y="24.000000" width="24.000000" height="24.000000" rx="0" ry="0" style="stroke:none;fill:#4B71A1;"/>
<text x="291.900000" y="38.000000" font-family="Arial" font-size="7" text-anchor="middle" fill="#FFFFFF">sin</text>
<circle cx="281.900000" cy="26.000000" r="1"/>
<line x1="276.900000" y1="35.000000" x2="279.900000" y2="36.000000"  transform="rotate(0.000000,279.900000,36.000000)" style="stroke: black; stroke-width:0.25;"/>
<line x1="276.900000" y1="37.000000" x2="279.900000" y2="36.000000"  transform="rotate(0.000000,279.900000,36.000000)" style="stroke: black; stroke-width:0.25;"/>
<rect x="280.900000" y="57.000000" width="24.000000" height="24.000000" rx="0" ry="0" style="stroke:none;fill:#cccccc;"/>
<rect x="279.900000" y="56.000000" width="24.000000" height="24.000000" rx="0" ry="0" style="stroke:none;fill:#4B71A1;"/>
<text x="291.900000" y="70.000000" font-family="Arial" font-size="7" text-anchor="middle" fill="#FFFFFF">cos</text>
<circle cx="281.900000" cy="58.000000" r="1"/>
<line x1="276.900000" y1="67.000000" x2="279.900000" y2="68.000000"  transform="rotate(0.000000,279.900000,68.000000)" style="stroke: black; stroke-width:0.25;"/>
<line x1="276.900000" y1="69.000000" x2="279.900000" y2="68.000000"  transform="rotate(0.000000,279.900000,68.000000)" style="stroke: black; stroke-width:0.25;"/>
<line x1="15.000000" y1="15.000000" x2="15.000000" y2="89.000000"  style="stroke: black; stroke-linecap:round; stroke-width:0.25; stroke-dasharray:3,3;"/>
<line x1="15.000000" y1="89.000000" x2="328.900000" y2="89.000000"  style="stroke: black; stroke-linecap:round; stroke-width:0.25; stroke-dasharray:3,3;"/>
<line x1="328.900000" y1="89.000000" x2="328.900000" y2="15.000000"  style="stroke: black; stroke-linecap:round; stroke-width:0.25; stroke-dasharray:3,3;"/>
<line x1="15.000000" y1="15.000000" x2="20.000000" y2="15.000000"  style="stroke: black; stroke-linecap:round; stroke-width:0.25; stroke-dasharray:3,3;"/>
<line x1="52.250000" y1="15.000000" x2="328.900000" y2="15.000000"  style="stroke: black; stroke-linecap:round; stroke-width:0.25; stroke-dasharray:3,3;"/>
<text x="20.000000" y="17.000000" font-family="Arial" font-size="7">cmpl_osc</text>
<line x1="330.900000" y1="47.000000" x2="333.900000" y2="48.000000"  transform="rotate(0.000000,333.900000,48.000000)" style="stroke: black; stroke-width:0.25;"/>
<line x1="330.900000" y1="49.000000" x2="333.900000" y2="48.000000"  transform="rotate(0.000000,333.900000,48.000000)" style="stroke: black; stroke-width:0.25;"/>
<line x1="330.900000" y1="55.000000" x2="333.900000" y2="56.000000"  transform="rotate(0.000000,333.900000,56.000000)" style="stroke: black; stroke-width:0.25;"/>
<line x1="330.900000" y1="57.000000" x2="333.900000" y2="56.000000"  transform="rotate(0.000000,333.900000,56.000000)" style="stroke: black; stroke-width:0.25;"/>
<line x1="10.000000" y1="52.000000" x2="20.000000" y2="52.000000"  style="stroke:black; stroke-linecap:round; stroke-width:0.25;"/>
<line x1="20.000000" y1="52.000000" x2="24.000000" y2="52.000000"  style="stroke:black; stroke-linecap:round; stroke-width:0.25;"/>
<line x1="24.000000" y1="52.000000" x2="28.000000" y2="52.000000"  style="stroke:black; stroke-linecap:round; stroke-width:0.25;"/>
<line x1="28.000000" y1="52.000000" x2="28.000000" y2="52.000000"  style="stroke:black; stroke-linecap:round; stroke-width:0.25;"/>
<line x1="28.000000" y1="52.000000" x2="32.000000" y2="52.000000"  style="stroke:black; stroke-linecap:round; stroke-width:0.25;"/>
<line x1="117.400000" y1="52.000000" x2="121.400000" y2="52.000000"  style="stroke:black; stroke-linecap:round; stroke-width:0.25;"/>
<line x1="121.400000" y1="52.000000" x2="121.400000" y2="52.000000"  style="stroke:black; stroke-linecap:round; stroke-width:0.25;"/>
<line x1="121.400000" y1="52.000000" x2="125.400000" y2="52.000000"  style="stroke:black; stroke-linecap:round; stroke-width:0.25;"/>
<line x1="151.200000" y1="52.000000" x2="155.200000" y2="52.000000"  style="stroke:black; stroke-linecap:round; stroke-width:0.25;"/>
<line x1="155.200000" y1="36.000000" x2="163.200000" y2="36.000000"  style="stroke:black; stroke-linecap:round; stroke-width:0.25;"/>
<line x1="155.200000" y1="52.000000" x2="155.200000" y2="36.000000"  style="stroke:black; stroke-linecap:round; stroke-width:0.25;"/>
<line x1="155.200000" y1="52.000000" x2="155.200000" y2="52.000000"  style="stroke:black; stroke-linecap:round; stroke-width:0.25;"/>
<line x1="163.200000" y1="36.000000" x2="186.550000" y2="36.000000"  style="stroke:black; stroke-linecap:round; stroke-width:0.25;"/>
<line x1="186.550000" y1="36.000000" x2="209.900000" y2="36.000000"  style="stroke:black; stroke-linecap:round; stroke-width:0.25;"/>
<line x1="205.900000" y1="56.000000" x2="209.900000" y2="56.000000"  style="stroke:black; stroke-linecap:round; stroke-width:0.25;"/>
<line x1="209.900000" y1="36.000000" x2="217.900000" y2="36.000000"  style="stroke:black; stroke-linecap:round; stroke-width:0.25;"/>
<line x1="209.900000" y1="56.000000" x2="217.900000" y2="56.000000"  style="stroke:black; stroke-linecap:round; stroke-width:0.25;"/>
<line x1="217.900000" y1="36.000000" x2="217.900000" y2="48.000000"  style="stroke:black; stroke-linecap:round; stroke-width:0.25;"/>
<line x1="217.900000" y1="48.000000" x2="217.900000" y2="48.000000"  style="stroke:black; stroke-linecap:round; stroke-width:0.25;"/>
<line x1="217.900000" y1="48.000000" x2="221.900000" y2="48.000000"  style="stroke:black; stroke-linecap:round; stroke-width:0.25;"/>
<line x1="217.900000" y1="56.000000" x2="221.900000" y2="56.000000"  style="stroke:black; stroke-linecap:round; stroke-width:0.25;"/>
<line x1="245.900000" y1="52.000000" x2="249.900000" y2="52.000000"  style="stroke:black; stroke-linecap:round; stroke-width:0.25;"/>
<line x1="249.900000" y1="52.000000" x2="275.900000" y2="36.000000"  style="stroke:black; stroke-linecap:round; stroke-width:0.25;"/>
<line x1="249.900000" y1="52.000000" x2="275.900000" y2="68.000000"  style="stroke:black; stroke-linecap:round; stroke-width:0.25;"/>
<line x1="275.900000" y1="36.000000" x2="279.900000" y2="36.000000"  style="stroke:black; stroke-linecap:round; stroke-width:0.25;"/>
<line x1="275.900000" y1="68.000000" x2="279.900000" y2="68.000000"  style="stroke:black; stroke-linecap:round; stroke-width:0.25;"/>
<line x1="303.900000" y1="36.000000" x2="307.900000" y2="36.000000"  style="stroke:black; stroke-linecap:round; stroke-width:0.25;"/>
<line x1="303.900000" y1="68.000000" x2="307.900000" y2="68.000000"  style="stroke:black; stroke-linecap:round; stroke-width:0.25;"/>
<line x1="307.900000" y1="36.000000" x2="315.900000" y2="36.000000"  style="stroke:black; stroke-linecap:round; stroke-width:0.25;"/>
<line x1="307.900000" y1="56.000000" x2="315.900000" y2="56.000000"  style="stroke:black; stroke-linecap:round; stroke-width:0.25;"/>
<line x1="307.900000" y1="68.000000" x2="307.900000" y2="56.000000"  style="stroke:black; stroke-linecap:round; stroke-width:0.25;"/>
<line x1="307.900000" y1="68.000000" x2="307.900000" y2="68.000000"  style="stroke:black; stroke-linecap:round; stroke-width:0.25;"/>
<line x1="315.900000" y1="36.000000" x2="315.900000" y2="48.000000"  style="stroke:black; stroke-linecap:round; stroke-width:0.25;"/>
<line x1="315.900000" y1="48.000000" x2="315.900000" y2="48.000000"  style="stroke:black; stroke-linecap:round; stroke-width:0.25;"/>
<line x1="315.900000" y1="48.000000" x2="319.900000" y2="48.000000"  style="stroke:black; stroke-linecap:round; stroke-width:0.25;"/>
<line x1="315.900000" y1="56.000000" x2="319.900000" y2="56.000000"  style="stroke:black; stroke-linecap:round; stroke-width:0.25;"/>
<line x1="319.900000" y1="48.000000" x2="323.900000" y2="48.000000"  style="stroke:black; stroke-linecap:round; stroke-width:0.25;"/>
<line x1="319.900000" y1="56.000000" x2="323.900000" y2="56.000000"  style="stroke:black; stroke-linecap:round; stroke-width:0.25;"/>
<line x1="323.900000" y1="48.000000" x2="333.900000" y2="48.000000"  style="stroke:black; stroke-linecap:round; stroke-width:0.25;"/>
<line x1="323.900000" y1="56.000000" x2="333.900000" y2="56.000000"  style="stroke:black; stroke-linecap:round; stroke-width:0.25;"/>
</svg>
