<?xml version="1.0"?>
<svg xmlns="http://www.w3.org/2000/svg" xmlns:xlink="http://www.w3.org/1999/xlink" viewBox="0 0 560.200000 112.000000" width="280.100000mm" height="56.000000mm" version="1.1">
<a xlink:href="cmpl-0x7f6828642130.svg">
<rect x="1.000000" y="1.000000" width="559.200000" height="111.000000" rx="0" ry="0" style="stroke:none;fill:#cccccc;"/>
<rect x="0.000000" y="0.000000" width="559.200000" height="111.000000" rx="0" ry="0" style="stroke:none;fill:#ffffff;"/>
</a>
<text x="10.000000" y="7.000000" font-family="Arial" font-size="7"></text>
<rect x="33.000000" y="45.000000" width="24.000000" height="24.000000" rx="0" ry="0" style="stroke:none;fill:#cccccc;"/>
<rect x="32.000000" y="44.000000" width="24.000000" height="24.000000" rx="0" ry="0" style="stroke:none;fill:#47945E;"/>
<text x="44.000000" y="58.000000" font-family="Arial" font-size="7" text-anchor="middle" fill="#FFFFFF">smp</text>
<circle cx="34.000000" cy="46.000000" r="1"/>
<line x1="29.000000" y1="55.000000" x2="32.000000" y2="56.000000"  transform="rotate(0.000000,32.000000,56.000000)" style="stroke: black; stroke-width:0.25;"/>
<line x1="29.000000" y1="57.000000" x2="32.000000" y2="56.000000"  transform="rotate(0.000000,32.000000,56.000000)" style="stroke: black; stroke-width:0.25;"/>
<rect x="85.000000" y="45.000000" width="206.400000" height="24.000000" rx="0" ry="0" style="stroke:none;fill:#cccccc;"/>
<rect x="84.000000" y="44.000000" width="206.400000" height="24.000000" rx="0" ry="0" style="stroke:none;fill:#477881;"/>
<text x="187.200000" y="58.000000" font-family="Arial" font-size="7" text-anchor="middle" fill="#FFFFFF">hslider(filter sweep, 1.0f, 0.0f, 2.0f, 0.001f)</text>
<circle cx="86.000000" cy="46.000000" r="1"/>
<line x1="75.000000" y1="35.000000" x2="75.000000" y2="77.000000"  style="stroke: black; stroke-linecap:round; stroke-width:0.25; stroke-dasharray:3,3;"/>
<line x1="75.000000" y1="77.000000" x2="299.400000" y2="77.000000"  style="stroke: black; stroke-linecap:round; stroke-width:0.25; stroke-dasharray:3,3;"/>
<line x1="299.400000" y1="77.000000" x2="299.400000" y2="35.000000"  style="stroke: black; stroke-linecap:round; stroke-width:0.25; stroke-dasharray:3,3;"/>
<line x1="75.000000" y1="35.000000" x2="80.000000" y2="35.000000"  style="stroke: black; stroke-linecap:round; stroke-width:0.25; stroke-dasharray:3,3;"/>
<line x1="128.375000" y1="35.000000" x2="299.400000" y2="35.000000"  style="stroke: black; stroke-linecap:round; stroke-width:0.25; stroke-dasharray:3,3;"/>
<text x="80.000000" y="37.000000" font-family="Arial" font-size="7">vgroup(snare)</text>
<line x1="65.000000" y1="25.000000" x2="65.000000" y2="87.000000"  style="stroke: black; stroke-linecap:round; stroke-width:0.25; stroke-dasharray:3,3;"/>
<line x1="65.000000" y1="87.000000" x2="309.400000" y2="87.000000"  style="stroke: black; stroke-linecap:round; stroke-width:0.25; stroke-dasharray:3,3;"/>
<line x1="309.400000" y1="87.000000" x2="309.400000" y2="25.000000"  style="stroke: black; stroke-linecap:round; stroke-width:0.25; stroke-dasharray:3,3;"/>
<line x1="65.000000" y1="25.000000" x2="70.000000" y2="25.000000"  style="stroke: black; stroke-linecap:round; stroke-width:0.25; stroke-dasharray:3,3;"/>
<line x1="92.575000" y1="25.000000" x2="309.400000" y2="25.000000"  style="stroke: black; stroke-linecap:round; stroke-width:0.25; stroke-dasharray:3,3;"/>
<text x="70.000000" y="27.000000" font-family="Arial" font-size="7">fltsw</text>
<rect x="335.400000" y="49.000000" width="24.000000" height="24.000000" rx="0" ry="0" style="stroke:none;fill:#cccccc;"/>
<rect x="334.400000" y="48.000000" width="24.000000" height="24.000000" rx="0" ry="0" style="stroke:none;fill:#4B71A1;"/>
<text x="346.400000" y="62.000000" font-family="Arial" font-size="7" text-anchor="middle" fill="#FFFFFF">+</text>
<circle cx="336.400000" cy="50.000000" r="1"/>
<line x1="331.400000" y1="55.000000" x2="334.400000" y2="56.000000"  transform="rotate(0.000000,334.400000,56.000000)" style="stroke: black; stroke-width:0.25;"/>
<line x1="331.400000" y1="57.000000" x2="334.400000" y2="56.000000"  transform="rotate(0.000000,334.400000,56.000000)" style="stroke: black; stroke-width:0.25;"/>
<line x1="331.400000" y1="63.000000" x2="334.400000" y2="64.000000"  transform="rotate(0.000000,334.400000,64.000000)" style="stroke: black; stroke-width:0.25;"/>
<line x1="331.400000" y1="65.000000" x2="334.400000" y2="64.000000"  transform="rotate(0.000000,334.400000,64.000000)" style="stroke: black; stroke-width:0.25;"/>
<line x1="360.400000" y1="60.000000" x2="360.400000" y2="56.000000"  style="stroke:black; stroke-linecap:round; stroke-width:0.25;"/>
<line x1="360.400000" y1="56.000000" x2="364.400000" y2="56.000000"  style="stroke:black; stroke-linecap:round; stroke-width:0.25;"/>
<line x1="364.400000" y1="56.000000" x2="364.400000" y2="60.000000"  style="stroke:black; stroke-linecap:round; stroke-width:0.25;"/>
<rect x="383.400000" y="49.000000" width="24.000000" height="24.000000" rx="0" ry="0" style="stroke:none;fill:#cccccc;"/>
<rect x="382.400000" y="48.000000" width="24.000000" height="24.000000" rx="0" ry="0" style="stroke:none;fill:#47945E;"/>
<text x="394.400000" y="62.000000" font-family="Arial" font-size="7" text-anchor="middle" fill="#FFFFFF">smp</text>
<circle cx="384.400000" cy="50.000000" r="1"/>
<rect x="423.400000" y="45.000000" width="25.800000" height="24.000000" rx="0" ry="0" style="stroke:none;fill:#cccccc;"/>
<rect x="422.400000" y="44.000000" width="25.800000" height="24.000000" rx="0" ry="0" style="stroke:none;fill:#4B71A1;"/>
<text x="435.300000" y="58.000000" font-family="Arial" font-size="7" text-anchor="middle" fill="#FFFFFF">fmod</text>
<circle cx="424.400000" cy="46.000000" r="1"/>
<line x1="419.400000" y1="51.000000" x2="422.400000" y2="52.000000"  transform="rotate(0.000000,422.400000,52.000000)" style="stroke: black; stroke-width:0.25;"/>
<line x1="419.400000" y1="53.000000" x2="422.400000" y2="52.000000"  transform="rotate(0.000000,422.400000,52.000000)" style="stroke: black; stroke-width:0.25;"/>
<line x1="419.400000" y1="59.000000" x2="422.400000" y2="60.000000"  transform="rotate(0.000000,422.400000,60.000000)" style="stroke: black; stroke-width:0.25;"/>
<line x1="419.400000" y1="61.000000" x2="422.400000" y2="60.000000"  transform="rotate(0.000000,422.400000,60.000000)" style="stroke: black; stroke-width:0.25;"/>
<rect x="465.200000" y="49.000000" width="24.000000" height="24.000000" rx="0" ry="0" style="stroke:none;fill:#cccccc;"/>
<rect x="464.200000" y="48.000000" width="24.000000" height="24.000000" rx="0" ry="0" style="stroke:none;fill:#47945E;"/>
<text x="476.200000" y="62.000000" font-family="Arial" font-size="7" text-anchor="middle" fill="#FFFFFF">smp</text>
<circle cx="466.200000" cy="50.000000" r="1"/>
<rect x="505.200000" y="45.000000" width="24.000000" height="24.000000" rx="0" ry="0" style="stroke:none;fill:#cccccc;"/>
<rect x="504.200000" y="44.000000" width="24.000000" height="24.000000" rx="0" ry="0" style="stroke:none;fill:#4B71A1;"/>
<text x="516.200000" y="58.000000" font-family="Arial" font-size="7" text-anchor="middle" fill="#FFFFFF">/</text>
<circle cx="506.200000" cy="46.000000" r="1"/>
<line x1="501.200000" y1="51.000000" x2="504.200000" y2="52.000000"  transform="rotate(0.000000,504.200000,52.000000)" style="stroke: black; stroke-width:0.25;"/>
<line x1="501.200000" y1="53.000000" x2="504.200000" y2="52.000000"  transform="rotate(0.000000,504.200000,52.000000)" style="stroke: black; stroke-width:0.25;"/>
<line x1="501.200000" y1="59.000000" x2="504.200000" y2="60.000000"  transform="rotate(0.000000,504.200000,60.000000)" style="stroke: black; stroke-width:0.25;"/>
<line x1="501.200000" y1="61.000000" x2="504.200000" y2="60.000000"  transform="rotate(0.000000,504.200000,60.000000)" style="stroke: black; stroke-width:0.25;"/>
<line x1="15.000000" y1="15.000000" x2="15.000000" y2="97.000000"  style="stroke: black; stroke-linecap:round; stroke-width:0.25; stroke-dasharray:3,3;"/>
<line x1="15.000000" y1="97.000000" x2="545.200000" y2="97.000000"  style="stroke: black; stroke-linecap:round; stroke-width:0.25; stroke-dasharray:3,3;"/>
<line x1="545.200000" y1="97.000000" x2="545.200000" y2="15.000000"  style="stroke: black; stroke-linecap:round; stroke-width:0.25; stroke-dasharray:3,3;"/>
<line x1="15.000000" y1="15.000000" x2="20.000000" y2="15.000000"  style="stroke: black; stroke-linecap:round; stroke-width:0.25; stroke-dasharray:3,3;"/>
<line x1="45.800000" y1="15.000000" x2="545.200000" y2="15.000000"  style="stroke: black; stroke-linecap:round; stroke-width:0.25; stroke-dasharray:3,3;"/>
<text x="20.000000" y="17.000000" font-family="Arial" font-size="7">phasor</text>
<line x1="547.200000" y1="55.000000" x2="550.200000" y2="56.000000"  transform="rotate(0.000000,550.200000,56.000000)" style="stroke: black; stroke-width:0.25;"/>
<line x1="547.200000" y1="57.000000" x2="550.200000" y2="56.000000"  transform="rotate(0.000000,550.200000,56.000000)" style="stroke: black; stroke-width:0.25;"/>
<line x1="10.000000" y1="56.000000" x2="20.000000" y2="56.000000"  style="stroke:black; stroke-linecap:round; stroke-width:0.25;"/>
<line x1="20.000000" y1="56.000000" x2="24.000000" y2="56.000000"  style="stroke:black; stroke-linecap:round; stroke-width:0.25;"/>
<line x1="24.000000" y1="56.000000" x2="28.000000" y2="56.000000"  style="stroke:black; stroke-linecap:round; stroke-width:0.25;"/>
<line x1="28.000000" y1="56.000000" x2="28.000000" y2="56.000000"  style="stroke:black; stroke-linecap:round; stroke-width:0.25;"/>
<line x1="28.000000" y1="56.000000" x2="32.000000" y2="56.000000"  style="stroke:black; stroke-linecap:round; stroke-width:0.25;"/>
<line x1="290.400000" y1="56.000000" x2="294.400000" y2="56.000000"  style="stroke:black; stroke-linecap:round; stroke-width:0.25;"/>
<line x1="294.400000" y1="56.000000" x2="304.400000" y2="56.000000"  style="stroke:black; stroke-linecap:round; stroke-width:0.25;"/>
<line x1="304.400000" y1="56.000000" x2="314.400000" y2="56.000000"  style="stroke:black; stroke-linecap:round; stroke-width:0.25;"/>
<line x1="314.400000" y1="56.000000" x2="322.400000" y2="56.000000"  style="stroke:black; stroke-linecap:round; stroke-width:0.25;"/>
<line x1="322.400000" y1="56.000000" x2="322.400000" y2="64.000000"  style="stroke:black; stroke-linecap:round; stroke-width:0.25;"/>
<line x1="322.400000" y1="64.000000" x2="322.400000" y2="64.000000"  style="stroke:black; stroke-linecap:round; stroke-width:0.25;"/>
<line x1="322.400000" y1="64.000000" x2="330.400000" y2="64.000000"  style="stroke:black; stroke-linecap:round; stroke-width:0.25;"/>
<line x1="330.400000" y1="40.000000" x2="330.400000" y2="40.000000"  style="stroke:black; stroke-linecap:round; stroke-width:0.25;"/>
<line x1="330.400000" y1="40.000000" x2="330.400000" y2="56.000000"  style="stroke:black; stroke-linecap:round; stroke-width:0.25;"/>
<line x1="330.400000" y1="56.000000" x2="330.400000" y2="56.000000"  style="stroke:black; stroke-linecap:round; stroke-width:0.25;"/>
<line x1="330.400000" y1="56.000000" x2="334.400000" y2="56.000000"  style="stroke:black; stroke-linecap:round; stroke-width:0.25;"/>
<line x1="330.400000" y1="64.000000" x2="334.400000" y2="64.000000"  style="stroke:black; stroke-linecap:round; stroke-width:0.25;"/>
<line x1="346.400000" y1="40.000000" x2="330.400000" y2="40.000000"  style="stroke:black; stroke-linecap:round; stroke-width:0.25;"/>
<line x1="358.400000" y1="60.000000" x2="362.400000" y2="60.000000"  style="stroke:black; stroke-linecap:round; stroke-width:0.25;"/>
<line x1="362.400000" y1="40.000000" x2="346.400000" y2="40.000000"  style="stroke:black; stroke-linecap:round; stroke-width:0.25;"/>
<line x1="362.400000" y1="40.000000" x2="362.400000" y2="40.000000"  style="stroke:black; stroke-linecap:round; stroke-width:0.25;"/>
<line x1="362.400000" y1="56.000000" x2="362.400000" y2="40.000000"  style="stroke:black; stroke-linecap:round; stroke-width:0.25;"/>
<line x1="362.400000" y1="60.000000" x2="364.400000" y2="60.000000"  style="stroke:black; stroke-linecap:round; stroke-width:0.25;"/>
<line x1="364.400000" y1="60.000000" x2="370.400000" y2="60.000000"  style="stroke:black; stroke-linecap:round; stroke-width:0.25;"/>
<line x1="370.400000" y1="40.000000" x2="378.400000" y2="40.000000"  style="stroke:black; stroke-linecap:round; stroke-width:0.25;"/>
<line x1="370.400000" y1="60.000000" x2="370.400000" y2="40.000000"  style="stroke:black; stroke-linecap:round; stroke-width:0.25;"/>
<line x1="370.400000" y1="60.000000" x2="370.400000" y2="60.000000"  style="stroke:black; stroke-linecap:round; stroke-width:0.25;"/>
<line x1="378.400000" y1="40.000000" x2="394.400000" y2="40.000000"  style="stroke:black; stroke-linecap:round; stroke-width:0.25;"/>
<line x1="394.400000" y1="40.000000" x2="410.400000" y2="40.000000"  style="stroke:black; stroke-linecap:round; stroke-width:0.25;"/>
<line x1="406.400000" y1="60.000000" x2="410.400000" y2="60.000000"  style="stroke:black; stroke-linecap:round; stroke-width:0.25;"/>
<line x1="410.400000" y1="40.000000" x2="418.400000" y2="40.000000"  style="stroke:black; stroke-linecap:round; stroke-width:0.25;"/>
<line x1="410.400000" y1="60.000000" x2="418.400000" y2="60.000000"  style="stroke:black; stroke-linecap:round; stroke-width:0.25;"/>
<line x1="418.400000" y1="40.000000" x2="418.400000" y2="52.000000"  style="stroke:black; stroke-linecap:round; stroke-width:0.25;"/>
<line x1="418.400000" y1="52.000000" x2="418.400000" y2="52.000000"  style="stroke:black; stroke-linecap:round; stroke-width:0.25;"/>
<line x1="418.400000" y1="52.000000" x2="422.400000" y2="52.000000"  style="stroke:black; stroke-linecap:round; stroke-width:0.25;"/>
<line x1="418.400000" y1="60.000000" x2="422.400000" y2="60.000000"  style="stroke:black; stroke-linecap:round; stroke-width:0.25;"/>
<line x1="448.200000" y1="56.000000" x2="452.200000" y2="56.000000"  style="stroke:black; stroke-linecap:round; stroke-width:0.25;"/>
<line x1="452.200000" y1="40.000000" x2="460.200000" y2="40.000000"  style="stroke:black; stroke-linecap:round; stroke-width:0.25;"/>
<line x1="452.200000" y1="56.000000" x2="452.200000" y2="40.000000"  style="stroke:black; stroke-linecap:round; stroke-width:0.25;"/>
<line x1="452.200000" y1="56.000000" x2="452.200000" y2="56.000000"  style="stroke:black; stroke-linecap:round; stroke-width:0.25;"/>
<line x1="460.200000" y1="40.000000" x2="476.200000" y2="40.000000"  style="stroke:black; stroke-linecap:round; stroke-width:0.25;"/>
<line x1="476.200000" y1="40.000000" x2="492.200000" y2="40.000000"  style="stroke:black; stroke-linecap:round; stroke-width:0.25;"/>
<line x1="488.200000" y1="60.000000" x2="492.200000" y2="60.000000"  style="stroke:black; stroke-linecap:round; stroke-width:0.25;"/>
<line x1="492.200000" y1="40.000000" x2="500.200000" y2="40.000000"  style="stroke:black; stroke-linecap:round; stroke-width:0.25;"/>
<line x1="492.200000" y1="60.000000" x2="500.200000" y2="60.000000"  style="stroke:black; stroke-linecap:round; stroke-width:0.25;"/>
<line x1="500.200000" y1="40.000000" x2="500.200000" y2="52.000000"  style="stroke:black; stroke-linecap:round; stroke-width:0.25;"/>
<line x1="500.200000" y1="52.000000" x2="500.200000" y2="52.000000"  style="stroke:black; stroke-linecap:round; stroke-width:0.25;"/>
<line x1="500.200000" y1="52.000000" x2="504.200000" y2="52.000000"  style="stroke:black; stroke-linecap:round; stroke-width:0.25;"/>
<line x1="500.200000" y1="60.000000" x2="504.200000" y2="60.000000"  style="stroke:black; stroke-linecap:round; stroke-width:0.25;"/>
<line x1="528.200000" y1="56.000000" x2="532.200000" y2="56.000000"  style="stroke:black; stroke-linecap:round; stroke-width:0.25;"/>
<line x1="532.200000" y1="56.000000" x2="532.200000" y2="56.000000"  style="stroke:black; stroke-linecap:round; stroke-width:0.25;"/>
<line x1="532.200000" y1="56.000000" x2="536.200000" y2="56.000000"  style="stroke:black; stroke-linecap:round; stroke-width:0.25;"/>
<line x1="536.200000" y1="56.000000" x2="540.200000" y2="56.000000"  style="stroke:black; stroke-linecap:round; stroke-width:0.25;"/>
<line x1="540.200000" y1="56.000000" x2="550.200000" y2="56.000000"  style="stroke:black; stroke-linecap:round; stroke-width:0.25;"/>
</svg>
