<?xml version="1.0"?>
<svg xmlns="http://www.w3.org/2000/svg" xmlns:xlink="http://www.w3.org/1999/xlink" viewBox="0 0 457.900000 152.000000" width="228.950000mm" height="76.000000mm" version="1.1">
<rect x="1.000000" y="1.000000" width="456.900000" height="151.000000" rx="0" ry="0" style="stroke:none;fill:#cccccc;"/>
<rect x="0.000000" y="0.000000" width="456.900000" height="151.000000" rx="0" ry="0" style="stroke:none;fill:#ffffff;"/>
<text x="10.000000" y="7.000000" font-family="Arial" font-size="7"></text>
<rect x="33.000000" y="65.000000" width="24.000000" height="24.000000" rx="0" ry="0" style="stroke:none;fill:#cccccc;"/>
<rect x="32.000000" y="64.000000" width="24.000000" height="24.000000" rx="0" ry="0" style="stroke:none;fill:#47945E;"/>
<text x="44.000000" y="78.000000" font-family="Arial" font-size="7" text-anchor="middle" fill="#FFFFFF">x</text>
<circle cx="34.000000" cy="66.000000" r="1"/>
<line x1="29.000000" y1="75.000000" x2="32.000000" y2="76.000000"  transform="rotate(0.000000,32.000000,76.000000)" style="stroke: black; stroke-width:0.25;"/>
<line x1="29.000000" y1="77.000000" x2="32.000000" y2="76.000000"  transform="rotate(0.000000,32.000000,76.000000)" style="stroke: black; stroke-width:0.25;"/>
<a xlink:href="trimod-0x7fe09c646b40.svg">
<rect x="65.000000" y="65.000000" width="25.800000" height="24.000000" rx="0" ry="0" style="stroke:none;fill:#cccccc;"/>
<rect x="64.000000" y="64.000000" width="25.800000" height="24.000000" rx="0" ry="0" style="stroke:none;fill:#003366;"/>
</a>
<a xlink:href="trimod-0x7fe09c646b40.svg">
<text x="76.900000" y="78.000000" font-family="Arial" font-size="7" text-anchor="middle" fill="#FFFFFF">trimod</text>
</a>
<circle cx="66.000000" cy="66.000000" r="1"/>
<a xlink:href="env-0x7fe09c647070.svg">
<rect x="114.800000" y="33.000000" width="38.700000" height="24.000000" rx="0" ry="0" style="stroke:none;fill:#cccccc;"/>
<rect x="113.800000" y="32.000000" width="38.700000" height="24.000000" rx="0" ry="0" style="stroke:none;fill:#003366;"/>
</a>
<a xlink:href="env-0x7fe09c647070.svg">
<text x="133.150000" y="46.000000" font-family="Arial" font-size="7" text-anchor="middle" fill="#FFFFFF">env(x1)</text>
</a>
<circle cx="115.800000" cy="34.000000" r="1"/>
<rect x="169.500000" y="29.000000" width="24.000000" height="24.000000" rx="0" ry="0" style="stroke:none;fill:#cccccc;"/>
<rect x="168.500000" y="28.000000" width="24.000000" height="24.000000" rx="0" ry="0" style="stroke:none;fill:#4B71A1;"/>
<text x="180.500000" y="42.000000" font-family="Arial" font-size="7" text-anchor="middle" fill="#FFFFFF">*</text>
<circle cx="170.500000" cy="30.000000" r="1"/>
<line x1="165.500000" y1="35.000000" x2="168.500000" y2="36.000000"  transform="rotate(0.000000,168.500000,36.000000)" style="stroke: black; stroke-width:0.25;"/>
<line x1="165.500000" y1="37.000000" x2="168.500000" y2="36.000000"  transform="rotate(0.000000,168.500000,36.000000)" style="stroke: black; stroke-width:0.25;"/>
<line x1="165.500000" y1="43.000000" x2="168.500000" y2="44.000000"  transform="rotate(0.000000,168.500000,44.000000)" style="stroke: black; stroke-width:0.25;"/>
<line x1="165.500000" y1="45.000000" x2="168.500000" y2="44.000000"  transform="rotate(0.000000,168.500000,44.000000)" style="stroke: black; stroke-width:0.25;"/>
<a xlink:href="env-0x7fe09c6476c0.svg">
<rect x="114.800000" y="73.000000" width="38.700000" height="24.000000" rx="0" ry="0" style="stroke:none;fill:#cccccc;"/>
<rect x="113.800000" y="72.000000" width="38.700000" height="24.000000" rx="0" ry="0" style="stroke:none;fill:#003366;"/>
</a>
<a xlink:href="env-0x7fe09c6476c0.svg">
<text x="133.150000" y="86.000000" font-family="Arial" font-size="7" text-anchor="middle" fill="#FFFFFF">env(x1)</text>
</a>
<circle cx="115.800000" cy="74.000000" r="1"/>
<rect x="169.500000" y="69.000000" width="24.000000" height="24.000000" rx="0" ry="0" style="stroke:none;fill:#cccccc;"/>
<rect x="168.500000" y="68.000000" width="24.000000" height="24.000000" rx="0" ry="0" style="stroke:none;fill:#4B71A1;"/>
<text x="180.500000" y="82.000000" font-family="Arial" font-size="7" text-anchor="middle" fill="#FFFFFF">*</text>
<circle cx="170.500000" cy="70.000000" r="1"/>
<line x1="165.500000" y1="75.000000" x2="168.500000" y2="76.000000"  transform="rotate(0.000000,168.500000,76.000000)" style="stroke: black; stroke-width:0.25;"/>
<line x1="165.500000" y1="77.000000" x2="168.500000" y2="76.000000"  transform="rotate(0.000000,168.500000,76.000000)" style="stroke: black; stroke-width:0.25;"/>
<line x1="165.500000" y1="83.000000" x2="168.500000" y2="84.000000"  transform="rotate(0.000000,168.500000,84.000000)" style="stroke: black; stroke-width:0.25;"/>
<line x1="165.500000" y1="85.000000" x2="168.500000" y2="84.000000"  transform="rotate(0.000000,168.500000,84.000000)" style="stroke: black; stroke-width:0.25;"/>
<a xlink:href="oscs-0x7fe09c649780.svg">
<rect x="134.800000" y="105.000000" width="38.700000" height="24.000000" rx="0" ry="0" style="stroke:none;fill:#cccccc;"/>
<rect x="133.800000" y="104.000000" width="38.700000" height="24.000000" rx="0" ry="0" style="stroke:none;fill:#003366;"/>
</a>
<a xlink:href="oscs-0x7fe09c649780.svg">
<text x="153.150000" y="118.000000" font-family="Arial" font-size="7" text-anchor="middle" fill="#FFFFFF">oscs(x1)</text>
</a>
<circle cx="135.800000" cy="106.000000" r="1"/>
<a xlink:href="nse-0x7fe09c64fc00.svg">
<rect x="249.500000" y="49.000000" width="38.700000" height="24.000000" rx="0" ry="0" style="stroke:none;fill:#cccccc;"/>
<rect x="248.500000" y="48.000000" width="38.700000" height="24.000000" rx="0" ry="0" style="stroke:none;fill:#003366;"/>
</a>
<a xlink:href="nse-0x7fe09c64fc00.svg">
<text x="267.850000" y="62.000000" font-family="Arial" font-size="7" text-anchor="middle" fill="#FFFFFF">nse(x1)</text>
</a>
<circle cx="250.500000" cy="50.000000" r="1"/>
<rect x="304.200000" y="45.000000" width="24.000000" height="24.000000" rx="0" ry="0" style="stroke:none;fill:#cccccc;"/>
<rect x="303.200000" y="44.000000" width="24.000000" height="24.000000" rx="0" ry="0" style="stroke:none;fill:#4B71A1;"/>
<text x="315.200000" y="58.000000" font-family="Arial" font-size="7" text-anchor="middle" fill="#FFFFFF">+</text>
<circle cx="305.200000" cy="46.000000" r="1"/>
<line x1="300.200000" y1="51.000000" x2="303.200000" y2="52.000000"  transform="rotate(0.000000,303.200000,52.000000)" style="stroke: black; stroke-width:0.25;"/>
<line x1="300.200000" y1="53.000000" x2="303.200000" y2="52.000000"  transform="rotate(0.000000,303.200000,52.000000)" style="stroke: black; stroke-width:0.25;"/>
<line x1="300.200000" y1="59.000000" x2="303.200000" y2="60.000000"  transform="rotate(0.000000,303.200000,60.000000)" style="stroke: black; stroke-width:0.25;"/>
<line x1="300.200000" y1="61.000000" x2="303.200000" y2="60.000000"  transform="rotate(0.000000,303.200000,60.000000)" style="stroke: black; stroke-width:0.25;"/>
<a xlink:href="nse-0x7fe09c64fc00.svg">
<rect x="249.500000" y="89.000000" width="38.700000" height="24.000000" rx="0" ry="0" style="stroke:none;fill:#cccccc;"/>
<rect x="248.500000" y="88.000000" width="38.700000" height="24.000000" rx="0" ry="0" style="stroke:none;fill:#003366;"/>
</a>
<a xlink:href="nse-0x7fe09c64fc00.svg">
<text x="267.850000" y="102.000000" font-family="Arial" font-size="7" text-anchor="middle" fill="#FFFFFF">nse(x1)</text>
</a>
<circle cx="250.500000" cy="90.000000" r="1"/>
<rect x="304.200000" y="85.000000" width="24.000000" height="24.000000" rx="0" ry="0" style="stroke:none;fill:#cccccc;"/>
<rect x="303.200000" y="84.000000" width="24.000000" height="24.000000" rx="0" ry="0" style="stroke:none;fill:#4B71A1;"/>
<text x="315.200000" y="98.000000" font-family="Arial" font-size="7" text-anchor="middle" fill="#FFFFFF">+</text>
<circle cx="305.200000" cy="86.000000" r="1"/>
<line x1="300.200000" y1="91.000000" x2="303.200000" y2="92.000000"  transform="rotate(0.000000,303.200000,92.000000)" style="stroke: black; stroke-width:0.25;"/>
<line x1="300.200000" y1="93.000000" x2="303.200000" y2="92.000000"  transform="rotate(0.000000,303.200000,92.000000)" style="stroke: black; stroke-width:0.25;"/>
<line x1="300.200000" y1="99.000000" x2="303.200000" y2="100.000000"  transform="rotate(0.000000,303.200000,100.000000)" style="stroke: black; stroke-width:0.25;"/>
<line x1="300.200000" y1="101.000000" x2="303.200000" y2="100.000000"  transform="rotate(0.000000,303.200000,100.000000)" style="stroke: black; stroke-width:0.25;"/>
<rect x="387.550000" y="49.000000" width="24.000000" height="24.000000" rx="0" ry="0" style="stroke:none;fill:#cccccc;"/>
<rect x="386.550000" y="48.000000" width="24.000000" height="24.000000" rx="0" ry="0" style="stroke:none;fill:#47945E;"/>
<text x="398.550000" y="62.000000" font-family="Arial" font-size="7" text-anchor="middle" fill="#FFFFFF">x</text>
<circle cx="388.550000" cy="50.000000" r="1"/>
<a xlink:href="volume-0x7fe09c019cc0.svg">
<rect x="380.200000" y="81.000000" width="38.700000" height="24.000000" rx="0" ry="0" style="stroke:none;fill:#cccccc;"/>
<rect x="379.200000" y="80.000000" width="38.700000" height="24.000000" rx="0" ry="0" style="stroke:none;fill:#003366;"/>
</a>
<a xlink:href="volume-0x7fe09c019cc0.svg">
<text x="398.550000" y="94.000000" font-family="Arial" font-size="7" text-anchor="middle" fill="#FFFFFF">volume(_)</text>
</a>
<circle cx="381.200000" cy="82.000000" r="1"/>
<line x1="376.200000" y1="91.000000" x2="379.200000" y2="92.000000"  transform="rotate(0.000000,379.200000,92.000000)" style="stroke: black; stroke-width:0.25;"/>
<line x1="376.200000" y1="93.000000" x2="379.200000" y2="92.000000"  transform="rotate(0.000000,379.200000,92.000000)" style="stroke: black; stroke-width:0.25;"/>
<line x1="15.000000" y1="15.000000" x2="15.000000" y2="137.000000"  style="stroke: black; stroke-linecap:round; stroke-width:0.25; stroke-dasharray:3,3;"/>
<line x1="15.000000" y1="137.000000" x2="442.900000" y2="137.000000"  style="stroke: black; stroke-linecap:round; stroke-width:0.25; stroke-dasharray:3,3;"/>
<line x1="442.900000" y1="137.000000" x2="442.900000" y2="15.000000"  style="stroke: black; stroke-linecap:round; stroke-width:0.25; stroke-dasharray:3,3;"/>
<line x1="15.000000" y1="15.000000" x2="20.000000" y2="15.000000"  style="stroke: black; stroke-linecap:round; stroke-width:0.25; stroke-dasharray:3,3;"/>
<line x1="49.025000" y1="15.000000" x2="442.900000" y2="15.000000"  style="stroke: black; stroke-linecap:round; stroke-width:0.25; stroke-dasharray:3,3;"/>
<text x="20.000000" y="17.000000" font-family="Arial" font-size="7">process</text>
<line x1="444.900000" y1="71.000000" x2="447.900000" y2="72.000000"  transform="rotate(0.000000,447.900000,72.000000)" style="stroke: black; stroke-width:0.25;"/>
<line x1="444.900000" y1="73.000000" x2="447.900000" y2="72.000000"  transform="rotate(0.000000,447.900000,72.000000)" style="stroke: black; stroke-width:0.25;"/>
<line x1="444.900000" y1="79.000000" x2="447.900000" y2="80.000000"  transform="rotate(0.000000,447.900000,80.000000)" style="stroke: black; stroke-width:0.25;"/>
<line x1="444.900000" y1="81.000000" x2="447.900000" y2="80.000000"  transform="rotate(0.000000,447.900000,80.000000)" style="stroke: black; stroke-width:0.25;"/>
<line x1="10.000000" y1="76.000000" x2="20.000000" y2="76.000000"  style="stroke:black; stroke-linecap:round; stroke-width:0.25;"/>
<line x1="20.000000" y1="76.000000" x2="24.000000" y2="76.000000"  style="stroke:black; stroke-linecap:round; stroke-width:0.25;"/>
<line x1="24.000000" y1="76.000000" x2="28.000000" y2="76.000000"  style="stroke:black; stroke-linecap:round; stroke-width:0.25;"/>
<line x1="28.000000" y1="76.000000" x2="28.000000" y2="76.000000"  style="stroke:black; stroke-linecap:round; stroke-width:0.25;"/>
<line x1="28.000000" y1="76.000000" x2="32.000000" y2="76.000000"  style="stroke:black; stroke-linecap:round; stroke-width:0.25;"/>
<line x1="89.800000" y1="72.000000" x2="93.800000" y2="72.000000"  style="stroke:black; stroke-linecap:round; stroke-width:0.25;"/>
<line x1="89.800000" y1="80.000000" x2="93.800000" y2="80.000000"  style="stroke:black; stroke-linecap:round; stroke-width:0.25;"/>
<line x1="93.800000" y1="24.000000" x2="109.800000" y2="24.000000"  style="stroke:black; stroke-linecap:round; stroke-width:0.25;"/>
<line x1="93.800000" y1="72.000000" x2="93.800000" y2="24.000000"  style="stroke:black; stroke-linecap:round; stroke-width:0.25;"/>
<line x1="93.800000" y1="72.000000" x2="93.800000" y2="72.000000"  style="stroke:black; stroke-linecap:round; stroke-width:0.25;"/>
<line x1="93.800000" y1="80.000000" x2="101.800000" y2="80.000000"  style="stroke:black; stroke-linecap:round; stroke-width:0.25;"/>
<line x1="101.800000" y1="64.000000" x2="109.800000" y2="64.000000"  style="stroke:black; stroke-linecap:round; stroke-width:0.25;"/>
<line x1="101.800000" y1="80.000000" x2="101.800000" y2="64.000000"  style="stroke:black; stroke-linecap:round; stroke-width:0.25;"/>
<line x1="109.800000" y1="24.000000" x2="133.150000" y2="24.000000"  style="stroke:black; stroke-linecap:round; stroke-width:0.25;"/>
<line x1="109.800000" y1="64.000000" x2="133.150000" y2="64.000000"  style="stroke:black; stroke-linecap:round; stroke-width:0.25;"/>
<line x1="133.150000" y1="24.000000" x2="156.500000" y2="24.000000"  style="stroke:black; stroke-linecap:round; stroke-width:0.25;"/>
<line x1="133.150000" y1="64.000000" x2="156.500000" y2="64.000000"  style="stroke:black; stroke-linecap:round; stroke-width:0.25;"/>
<line x1="152.500000" y1="44.000000" x2="156.500000" y2="44.000000"  style="stroke:black; stroke-linecap:round; stroke-width:0.25;"/>
<line x1="152.500000" y1="84.000000" x2="156.500000" y2="84.000000"  style="stroke:black; stroke-linecap:round; stroke-width:0.25;"/>
<line x1="156.500000" y1="24.000000" x2="164.500000" y2="24.000000"  style="stroke:black; stroke-linecap:round; stroke-width:0.25;"/>
<line x1="156.500000" y1="44.000000" x2="164.500000" y2="44.000000"  style="stroke:black; stroke-linecap:round; stroke-width:0.25;"/>
<line x1="156.500000" y1="64.000000" x2="164.500000" y2="64.000000"  style="stroke:black; stroke-linecap:round; stroke-width:0.25;"/>
<line x1="156.500000" y1="84.000000" x2="164.500000" y2="84.000000"  style="stroke:black; stroke-linecap:round; stroke-width:0.25;"/>
<line x1="164.500000" y1="24.000000" x2="164.500000" y2="36.000000"  style="stroke:black; stroke-linecap:round; stroke-width:0.25;"/>
<line x1="164.500000" y1="36.000000" x2="164.500000" y2="36.000000"  style="stroke:black; stroke-linecap:round; stroke-width:0.25;"/>
<line x1="164.500000" y1="36.000000" x2="168.500000" y2="36.000000"  style="stroke:black; stroke-linecap:round; stroke-width:0.25;"/>
<line x1="164.500000" y1="44.000000" x2="168.500000" y2="44.000000"  style="stroke:black; stroke-linecap:round; stroke-width:0.25;"/>
<line x1="164.500000" y1="64.000000" x2="164.500000" y2="76.000000"  style="stroke:black; stroke-linecap:round; stroke-width:0.25;"/>
<line x1="164.500000" y1="76.000000" x2="164.500000" y2="76.000000"  style="stroke:black; stroke-linecap:round; stroke-width:0.25;"/>
<line x1="164.500000" y1="76.000000" x2="168.500000" y2="76.000000"  style="stroke:black; stroke-linecap:round; stroke-width:0.25;"/>
<line x1="164.500000" y1="84.000000" x2="168.500000" y2="84.000000"  style="stroke:black; stroke-linecap:round; stroke-width:0.25;"/>
<line x1="172.500000" y1="112.000000" x2="176.500000" y2="112.000000"  style="stroke:black; stroke-linecap:round; stroke-width:0.25;"/>
<line x1="172.500000" y1="120.000000" x2="176.500000" y2="120.000000"  style="stroke:black; stroke-linecap:round; stroke-width:0.25;"/>
<line x1="176.500000" y1="112.000000" x2="196.500000" y2="112.000000"  style="stroke:black; stroke-linecap:round; stroke-width:0.25;"/>
<line x1="176.500000" y1="120.000000" x2="196.500000" y2="120.000000"  style="stroke:black; stroke-linecap:round; stroke-width:0.25;"/>
<line x1="192.500000" y1="40.000000" x2="196.500000" y2="40.000000"  style="stroke:black; stroke-linecap:round; stroke-width:0.25;"/>
<line x1="192.500000" y1="80.000000" x2="196.500000" y2="80.000000"  style="stroke:black; stroke-linecap:round; stroke-width:0.25;"/>
<line x1="196.500000" y1="112.000000" x2="244.500000" y2="40.000000"  style="stroke:black; stroke-linecap:round; stroke-width:0.25;"/>
<line x1="196.500000" y1="120.000000" x2="244.500000" y2="80.000000"  style="stroke:black; stroke-linecap:round; stroke-width:0.25;"/>
<line x1="196.500000" y1="40.000000" x2="244.500000" y2="40.000000"  style="stroke:black; stroke-linecap:round; stroke-width:0.25;"/>
<line x1="196.500000" y1="80.000000" x2="244.500000" y2="80.000000"  style="stroke:black; stroke-linecap:round; stroke-width:0.25;"/>
<line x1="244.500000" y1="40.000000" x2="267.850000" y2="40.000000"  style="stroke:black; stroke-linecap:round; stroke-width:0.25;"/>
<line x1="244.500000" y1="80.000000" x2="267.850000" y2="80.000000"  style="stroke:black; stroke-linecap:round; stroke-width:0.25;"/>
<line x1="267.850000" y1="40.000000" x2="291.200000" y2="40.000000"  style="stroke:black; stroke-linecap:round; stroke-width:0.25;"/>
<line x1="267.850000" y1="80.000000" x2="291.200000" y2="80.000000"  style="stroke:black; stroke-linecap:round; stroke-width:0.25;"/>
<line x1="287.200000" y1="60.000000" x2="291.200000" y2="60.000000"  style="stroke:black; stroke-linecap:round; stroke-width:0.25;"/>
<line x1="287.200000" y1="100.000000" x2="291.200000" y2="100.000000"  style="stroke:black; stroke-linecap:round; stroke-width:0.25;"/>
<line x1="291.200000" y1="60.000000" x2="299.200000" y2="60.000000"  style="stroke:black; stroke-linecap:round; stroke-width:0.25;"/>
<line x1="291.200000" y1="100.000000" x2="299.200000" y2="100.000000"  style="stroke:black; stroke-linecap:round; stroke-width:0.25;"/>
<line x1="291.200000" y1="40.000000" x2="299.200000" y2="40.000000"  style="stroke:black; stroke-linecap:round; stroke-width:0.25;"/>
<line x1="291.200000" y1="80.000000" x2="299.200000" y2="80.000000"  style="stroke:black; stroke-linecap:round; stroke-width:0.25;"/>
<line x1="299.200000" y1="52.000000" x2="303.200000" y2="52.000000"  style="stroke:black; stroke-linecap:round; stroke-width:0.25;"/>
<line x1="299.200000" y1="60.000000" x2="303.200000" y2="60.000000"  style="stroke:black; stroke-linecap:round; stroke-width:0.25;"/>
<line x1="299.200000" y1="92.000000" x2="303.200000" y2="92.000000"  style="stroke:black; stroke-linecap:round; stroke-width:0.25;"/>
<line x1="299.200000" y1="100.000000" x2="303.200000" y2="100.000000"  style="stroke:black; stroke-linecap:round; stroke-width:0.25;"/>
<line x1="299.200000" y1="40.000000" x2="299.200000" y2="52.000000"  style="stroke:black; stroke-linecap:round; stroke-width:0.25;"/>
<line x1="299.200000" y1="52.000000" x2="299.200000" y2="52.000000"  style="stroke:black; stroke-linecap:round; stroke-width:0.25;"/>
<line x1="299.200000" y1="80.000000" x2="299.200000" y2="92.000000"  style="stroke:black; stroke-linecap:round; stroke-width:0.25;"/>
<line x1="299.200000" y1="92.000000" x2="299.200000" y2="92.000000"  style="stroke:black; stroke-linecap:round; stroke-width:0.25;"/>
<line x1="327.200000" y1="56.000000" x2="331.200000" y2="56.000000"  style="stroke:black; stroke-linecap:round; stroke-width:0.25;"/>
<line x1="327.200000" y1="96.000000" x2="331.200000" y2="96.000000"  style="stroke:black; stroke-linecap:round; stroke-width:0.25;"/>
<line x1="331.200000" y1="56.000000" x2="367.200000" y2="76.000000"  style="stroke:black; stroke-linecap:round; stroke-width:0.25;"/>
<line x1="331.200000" y1="96.000000" x2="367.200000" y2="76.000000"  style="stroke:black; stroke-linecap:round; stroke-width:0.25;"/>
<line x1="367.200000" y1="76.000000" x2="375.200000" y2="76.000000"  style="stroke:black; stroke-linecap:round; stroke-width:0.25;"/>
<line x1="375.200000" y1="76.000000" x2="375.200000" y2="92.000000"  style="stroke:black; stroke-linecap:round; stroke-width:0.25;"/>
<line x1="375.200000" y1="92.000000" x2="375.200000" y2="92.000000"  style="stroke:black; stroke-linecap:round; stroke-width:0.25;"/>
<line x1="375.200000" y1="92.000000" x2="379.200000" y2="92.000000"  style="stroke:black; stroke-linecap:round; stroke-width:0.25;"/>
<line x1="410.550000" y1="60.000000" x2="414.550000" y2="60.000000"  style="stroke:black; stroke-linecap:round; stroke-width:0.25;"/>
<line x1="414.550000" y1="60.000000" x2="421.900000" y2="60.000000"  style="stroke:black; stroke-linecap:round; stroke-width:0.25;"/>
<line x1="417.900000" y1="92.000000" x2="421.900000" y2="92.000000"  style="stroke:black; stroke-linecap:round; stroke-width:0.25;"/>
<line x1="421.900000" y1="80.000000" x2="429.900000" y2="80.000000"  style="stroke:black; stroke-linecap:round; stroke-width:0.25;"/>
<line x1="421.900000" y1="92.000000" x2="421.900000" y2="80.000000"  style="stroke:black; stroke-linecap:round; stroke-width:0.25;"/>
<line x1="421.900000" y1="92.000000" x2="421.900000" y2="92.000000"  style="stroke:black; stroke-linecap:round; stroke-width:0.25;"/>
<line x1="421.900000" y1="60.000000" x2="429.900000" y2="60.000000"  style="stroke:black; stroke-linecap:round; stroke-width:0.25;"/>
<line x1="429.900000" y1="72.000000" x2="433.900000" y2="72.000000"  style="stroke:black; stroke-linecap:round; stroke-width:0.25;"/>
<line x1="429.900000" y1="80.000000" x2="433.900000" y2="80.000000"  style="stroke:black; stroke-linecap:round; stroke-width:0.25;"/>
<line x1="429.900000" y1="60.000000" x2="429.900000" y2="72.000000"  style="stroke:black; stroke-linecap:round; stroke-width:0.25;"/>
<line x1="429.900000" y1="72.000000" x2="429.900000" y2="72.000000"  style="stroke:black; stroke-linecap:round; stroke-width:0.25;"/>
<line x1="433.900000" y1="72.000000" x2="437.900000" y2="72.000000"  style="stroke:black; stroke-linecap:round; stroke-width:0.25;"/>
<line x1="433.900000" y1="80.000000" x2="437.900000" y2="80.000000"  style="stroke:black; stroke-linecap:round; stroke-width:0.25;"/>
<line x1="437.900000" y1="72.000000" x2="447.900000" y2="72.000000"  style="stroke:black; stroke-linecap:round; stroke-width:0.25;"/>
<line x1="437.900000" y1="80.000000" x2="447.900000" y2="80.000000"  style="stroke:black; stroke-linecap:round; stroke-width:0.25;"/>
</svg>
