<?xml version="1.0"?>
<svg xmlns="http://www.w3.org/2000/svg" xmlns:xlink="http://www.w3.org/1999/xlink" viewBox="0 0 600.000000 92.000000" width="300.000000mm" height="46.000000mm" version="1.1">
<a xlink:href="rn-0x7f68281280b0.svg">
<rect x="1.000000" y="1.000000" width="599.000000" height="91.000000" rx="0" ry="0" style="stroke:none;fill:#cccccc;"/>
<rect x="0.000000" y="0.000000" width="599.000000" height="91.000000" rx="0" ry="0" style="stroke:none;fill:#ffffff;"/>
</a>
<text x="10.000000" y="7.000000" font-family="Arial" font-size="7"></text>
<rect x="35.000000" y="35.000000" width="387.000000" height="24.000000" rx="0" ry="0" style="stroke:none;fill:#cccccc;"/>
<rect x="34.000000" y="34.000000" width="387.000000" height="24.000000" rx="0" ry="0" style="stroke:none;fill:#477881;"/>
<text x="227.500000" y="48.000000" font-family="Arial" font-size="7" text-anchor="middle" fill="#FFFFFF">hslider(rel, 0.10000000000000001f, 9.9999999999999995e-08f, 0.5f, 9.9999999999999995e-08f)</text>
<circle cx="36.000000" cy="36.000000" r="1"/>
<a xlink:href="smooth-0x7f6828037790.svg">
<rect x="430.000000" y="35.000000" width="129.000000" height="24.000000" rx="0" ry="0" style="stroke:none;fill:#cccccc;"/>
<rect x="429.000000" y="34.000000" width="129.000000" height="24.000000" rx="0" ry="0" style="stroke:none;fill:#003366;"/>
</a>
<a xlink:href="smooth-0x7f6828037790.svg">
<text x="493.500000" y="48.000000" font-family="Arial" font-size="7" text-anchor="middle" fill="#FFFFFF">smooth(0.20000000000000001f)</text>
</a>
<circle cx="431.000000" cy="36.000000" r="1"/>
<line x1="426.000000" y1="45.000000" x2="429.000000" y2="46.000000"  transform="rotate(0.000000,429.000000,46.000000)" style="stroke: black; stroke-width:0.25;"/>
<line x1="426.000000" y1="47.000000" x2="429.000000" y2="46.000000"  transform="rotate(0.000000,429.000000,46.000000)" style="stroke: black; stroke-width:0.25;"/>
<line x1="25.000000" y1="25.000000" x2="25.000000" y2="67.000000"  style="stroke: black; stroke-linecap:round; stroke-width:0.25; stroke-dasharray:3,3;"/>
<line x1="25.000000" y1="67.000000" x2="567.000000" y2="67.000000"  style="stroke: black; stroke-linecap:round; stroke-width:0.25; stroke-dasharray:3,3;"/>
<line x1="567.000000" y1="67.000000" x2="567.000000" y2="25.000000"  style="stroke: black; stroke-linecap:round; stroke-width:0.25; stroke-dasharray:3,3;"/>
<line x1="25.000000" y1="25.000000" x2="30.000000" y2="25.000000"  style="stroke: black; stroke-linecap:round; stroke-width:0.25; stroke-dasharray:3,3;"/>
<line x1="78.375000" y1="25.000000" x2="567.000000" y2="25.000000"  style="stroke: black; stroke-linecap:round; stroke-width:0.25; stroke-dasharray:3,3;"/>
<text x="30.000000" y="27.000000" font-family="Arial" font-size="7">vgroup(snare)</text>
<line x1="15.000000" y1="15.000000" x2="15.000000" y2="77.000000"  style="stroke: black; stroke-linecap:round; stroke-width:0.25; stroke-dasharray:3,3;"/>
<line x1="15.000000" y1="77.000000" x2="585.000000" y2="77.000000"  style="stroke: black; stroke-linecap:round; stroke-width:0.25; stroke-dasharray:3,3;"/>
<line x1="585.000000" y1="77.000000" x2="585.000000" y2="15.000000"  style="stroke: black; stroke-linecap:round; stroke-width:0.25; stroke-dasharray:3,3;"/>
<line x1="15.000000" y1="15.000000" x2="20.000000" y2="15.000000"  style="stroke: black; stroke-linecap:round; stroke-width:0.25; stroke-dasharray:3,3;"/>
<line x1="36.125000" y1="15.000000" x2="585.000000" y2="15.000000"  style="stroke: black; stroke-linecap:round; stroke-width:0.25; stroke-dasharray:3,3;"/>
<text x="20.000000" y="17.000000" font-family="Arial" font-size="7">rel</text>
<line x1="587.000000" y1="45.000000" x2="590.000000" y2="46.000000"  transform="rotate(0.000000,590.000000,46.000000)" style="stroke: black; stroke-width:0.25;"/>
<line x1="587.000000" y1="47.000000" x2="590.000000" y2="46.000000"  transform="rotate(0.000000,590.000000,46.000000)" style="stroke: black; stroke-width:0.25;"/>
<line x1="421.000000" y1="46.000000" x2="425.000000" y2="46.000000"  style="stroke:black; stroke-linecap:round; stroke-width:0.25;"/>
<line x1="425.000000" y1="46.000000" x2="425.000000" y2="46.000000"  style="stroke:black; stroke-linecap:round; stroke-width:0.25;"/>
<line x1="425.000000" y1="46.000000" x2="429.000000" y2="46.000000"  style="stroke:black; stroke-linecap:round; stroke-width:0.25;"/>
<line x1="558.000000" y1="46.000000" x2="562.000000" y2="46.000000"  style="stroke:black; stroke-linecap:round; stroke-width:0.25;"/>
<line x1="562.000000" y1="46.000000" x2="572.000000" y2="46.000000"  style="stroke:black; stroke-linecap:round; stroke-width:0.25;"/>
<line x1="572.000000" y1="46.000000" x2="572.000000" y2="46.000000"  style="stroke:black; stroke-linecap:round; stroke-width:0.25;"/>
<line x1="572.000000" y1="46.000000" x2="576.000000" y2="46.000000"  style="stroke:black; stroke-linecap:round; stroke-width:0.25;"/>
<line x1="576.000000" y1="46.000000" x2="580.000000" y2="46.000000"  style="stroke:black; stroke-linecap:round; stroke-width:0.25;"/>
<line x1="580.000000" y1="46.000000" x2="590.000000" y2="46.000000"  style="stroke:black; stroke-linecap:round; stroke-width:0.25;"/>
</svg>
