<?xml version="1.0"?>
<svg xmlns="http://www.w3.org/2000/svg" xmlns:xlink="http://www.w3.org/1999/xlink" viewBox="0 0 263.200000 104.000000" width="131.600000mm" height="52.000000mm" version="1.1">
<a xlink:href="process.svg">
<rect x="1.000000" y="1.000000" width="262.200000" height="103.000000" rx="0" ry="0" style="stroke:none;fill:#cccccc;"/>
<rect x="0.000000" y="0.000000" width="262.200000" height="103.000000" rx="0" ry="0" style="stroke:none;fill:#ffffff;"/>
</a>
<text x="10.000000" y="7.000000" font-family="Arial" font-size="7"></text>
<a xlink:href="tri1-0x7f6828637720.svg">
<rect x="25.000000" y="25.000000" width="25.800000" height="24.000000" rx="0" ry="0" style="stroke:none;fill:#cccccc;"/>
<rect x="24.000000" y="24.000000" width="25.800000" height="24.000000" rx="0" ry="0" style="stroke:none;fill:#003366;"/>
</a>
<a xlink:href="tri1-0x7f6828637720.svg">
<text x="36.900000" y="38.000000" font-family="Arial" font-size="7" text-anchor="middle" fill="#FFFFFF">tri1</text>
</a>
<circle cx="26.000000" cy="26.000000" r="1"/>
<a xlink:href="tri1-0x7f6828637720.svg">
<rect x="25.000000" y="57.000000" width="25.800000" height="24.000000" rx="0" ry="0" style="stroke:none;fill:#cccccc;"/>
<rect x="24.000000" y="56.000000" width="25.800000" height="24.000000" rx="0" ry="0" style="stroke:none;fill:#003366;"/>
</a>
<a xlink:href="tri1-0x7f6828637720.svg">
<text x="36.900000" y="70.000000" font-family="Arial" font-size="7" text-anchor="middle" fill="#FFFFFF">tri1</text>
</a>
<circle cx="26.000000" cy="58.000000" r="1"/>
<a xlink:href="filters-0x7f6828523db0.svg">
<rect x="58.800000" y="25.000000" width="38.700000" height="24.000000" rx="0" ry="0" style="stroke:none;fill:#cccccc;"/>
<rect x="57.800000" y="24.000000" width="38.700000" height="24.000000" rx="0" ry="0" style="stroke:none;fill:#003366;"/>
</a>
<a xlink:href="filters-0x7f6828523db0.svg">
<text x="77.150000" y="38.000000" font-family="Arial" font-size="7" text-anchor="middle" fill="#FFFFFF">filters</text>
</a>
<circle cx="59.800000" cy="26.000000" r="1"/>
<line x1="54.800000" y1="35.000000" x2="57.800000" y2="36.000000"  transform="rotate(0.000000,57.800000,36.000000)" style="stroke: black; stroke-width:0.25;"/>
<line x1="54.800000" y1="37.000000" x2="57.800000" y2="36.000000"  transform="rotate(0.000000,57.800000,36.000000)" style="stroke: black; stroke-width:0.25;"/>
<a xlink:href="cmpl-0x7f6828642130.svg">
<rect x="58.800000" y="57.000000" width="38.700000" height="24.000000" rx="0" ry="0" style="stroke:none;fill:#cccccc;"/>
<rect x="57.800000" y="56.000000" width="38.700000" height="24.000000" rx="0" ry="0" style="stroke:none;fill:#003366;"/>
</a>
<a xlink:href="cmpl-0x7f6828642130.svg">
<text x="77.150000" y="70.000000" font-family="Arial" font-size="7" text-anchor="middle" fill="#FFFFFF">cmpl_osc</text>
</a>
<circle cx="59.800000" cy="58.000000" r="1"/>
<line x1="54.800000" y1="67.000000" x2="57.800000" y2="68.000000"  transform="rotate(0.000000,57.800000,68.000000)" style="stroke: black; stroke-width:0.25;"/>
<line x1="54.800000" y1="69.000000" x2="57.800000" y2="68.000000"  transform="rotate(0.000000,57.800000,68.000000)" style="stroke: black; stroke-width:0.25;"/>
<a xlink:href="cmpl-0x7f6828646770.svg">
<rect x="121.500000" y="37.000000" width="38.700000" height="32.000000" rx="0" ry="0" style="stroke:none;fill:#cccccc;"/>
<rect x="120.500000" y="36.000000" width="38.700000" height="32.000000" rx="0" ry="0" style="stroke:none;fill:#003366;"/>
</a>
<a xlink:href="cmpl-0x7f6828646770.svg">
<text x="139.850000" y="54.000000" font-family="Arial" font-size="7" text-anchor="middle" fill="#FFFFFF">cmpl_mul</text>
</a>
<circle cx="122.500000" cy="38.000000" r="1"/>
<line x1="117.500000" y1="39.000000" x2="120.500000" y2="40.000000"  transform="rotate(0.000000,120.500000,40.000000)" style="stroke: black; stroke-width:0.25;"/>
<line x1="117.500000" y1="41.000000" x2="120.500000" y2="40.000000"  transform="rotate(0.000000,120.500000,40.000000)" style="stroke: black; stroke-width:0.25;"/>
<line x1="117.500000" y1="47.000000" x2="120.500000" y2="48.000000"  transform="rotate(0.000000,120.500000,48.000000)" style="stroke: black; stroke-width:0.25;"/>
<line x1="117.500000" y1="49.000000" x2="120.500000" y2="48.000000"  transform="rotate(0.000000,120.500000,48.000000)" style="stroke: black; stroke-width:0.25;"/>
<line x1="117.500000" y1="55.000000" x2="120.500000" y2="56.000000"  transform="rotate(0.000000,120.500000,56.000000)" style="stroke: black; stroke-width:0.25;"/>
<line x1="117.500000" y1="57.000000" x2="120.500000" y2="56.000000"  transform="rotate(0.000000,120.500000,56.000000)" style="stroke: black; stroke-width:0.25;"/>
<line x1="117.500000" y1="63.000000" x2="120.500000" y2="64.000000"  transform="rotate(0.000000,120.500000,64.000000)" style="stroke: black; stroke-width:0.25;"/>
<line x1="117.500000" y1="65.000000" x2="120.500000" y2="64.000000"  transform="rotate(0.000000,120.500000,64.000000)" style="stroke: black; stroke-width:0.25;"/>
<rect x="200.200000" y="25.000000" width="24.000000" height="24.000000" rx="0" ry="0" style="stroke:none;fill:#cccccc;"/>
<rect x="199.200000" y="24.000000" width="24.000000" height="24.000000" rx="0" ry="0" style="stroke:none;fill:#4B71A1;"/>
<text x="211.200000" y="38.000000" font-family="Arial" font-size="7" text-anchor="middle" fill="#FFFFFF">+</text>
<circle cx="201.200000" cy="26.000000" r="1"/>
<line x1="196.200000" y1="31.000000" x2="199.200000" y2="32.000000"  transform="rotate(0.000000,199.200000,32.000000)" style="stroke: black; stroke-width:0.25;"/>
<line x1="196.200000" y1="33.000000" x2="199.200000" y2="32.000000"  transform="rotate(0.000000,199.200000,32.000000)" style="stroke: black; stroke-width:0.25;"/>
<line x1="196.200000" y1="39.000000" x2="199.200000" y2="40.000000"  transform="rotate(0.000000,199.200000,40.000000)" style="stroke: black; stroke-width:0.25;"/>
<line x1="196.200000" y1="41.000000" x2="199.200000" y2="40.000000"  transform="rotate(0.000000,199.200000,40.000000)" style="stroke: black; stroke-width:0.25;"/>
<rect x="200.200000" y="57.000000" width="24.000000" height="24.000000" rx="0" ry="0" style="stroke:none;fill:#cccccc;"/>
<rect x="199.200000" y="56.000000" width="24.000000" height="24.000000" rx="0" ry="0" style="stroke:none;fill:#4B71A1;"/>
<text x="211.200000" y="70.000000" font-family="Arial" font-size="7" text-anchor="middle" fill="#FFFFFF">-</text>
<circle cx="201.200000" cy="58.000000" r="1"/>
<line x1="196.200000" y1="63.000000" x2="199.200000" y2="64.000000"  transform="rotate(0.000000,199.200000,64.000000)" style="stroke: black; stroke-width:0.25;"/>
<line x1="196.200000" y1="65.000000" x2="199.200000" y2="64.000000"  transform="rotate(0.000000,199.200000,64.000000)" style="stroke: black; stroke-width:0.25;"/>
<line x1="196.200000" y1="71.000000" x2="199.200000" y2="72.000000"  transform="rotate(0.000000,199.200000,72.000000)" style="stroke: black; stroke-width:0.25;"/>
<line x1="196.200000" y1="73.000000" x2="199.200000" y2="72.000000"  transform="rotate(0.000000,199.200000,72.000000)" style="stroke: black; stroke-width:0.25;"/>
<line x1="15.000000" y1="15.000000" x2="15.000000" y2="89.000000"  style="stroke: black; stroke-linecap:round; stroke-width:0.25; stroke-dasharray:3,3;"/>
<line x1="15.000000" y1="89.000000" x2="248.200000" y2="89.000000"  style="stroke: black; stroke-linecap:round; stroke-width:0.25; stroke-dasharray:3,3;"/>
<line x1="248.200000" y1="89.000000" x2="248.200000" y2="15.000000"  style="stroke: black; stroke-linecap:round; stroke-width:0.25; stroke-dasharray:3,3;"/>
<line x1="15.000000" y1="15.000000" x2="20.000000" y2="15.000000"  style="stroke: black; stroke-linecap:round; stroke-width:0.25; stroke-dasharray:3,3;"/>
<line x1="45.800000" y1="15.000000" x2="248.200000" y2="15.000000"  style="stroke: black; stroke-linecap:round; stroke-width:0.25; stroke-dasharray:3,3;"/>
<text x="20.000000" y="17.000000" font-family="Arial" font-size="7">trimod</text>
<line x1="250.200000" y1="47.000000" x2="253.200000" y2="48.000000"  transform="rotate(0.000000,253.200000,48.000000)" style="stroke: black; stroke-width:0.25;"/>
<line x1="250.200000" y1="49.000000" x2="253.200000" y2="48.000000"  transform="rotate(0.000000,253.200000,48.000000)" style="stroke: black; stroke-width:0.25;"/>
<line x1="250.200000" y1="55.000000" x2="253.200000" y2="56.000000"  transform="rotate(0.000000,253.200000,56.000000)" style="stroke: black; stroke-width:0.25;"/>
<line x1="250.200000" y1="57.000000" x2="253.200000" y2="56.000000"  transform="rotate(0.000000,253.200000,56.000000)" style="stroke: black; stroke-width:0.25;"/>
<line x1="49.800000" y1="36.000000" x2="53.800000" y2="36.000000"  style="stroke:black; stroke-linecap:round; stroke-width:0.25;"/>
<line x1="49.800000" y1="68.000000" x2="53.800000" y2="68.000000"  style="stroke:black; stroke-linecap:round; stroke-width:0.25;"/>
<line x1="53.800000" y1="36.000000" x2="53.800000" y2="36.000000"  style="stroke:black; stroke-linecap:round; stroke-width:0.25;"/>
<line x1="53.800000" y1="36.000000" x2="57.800000" y2="36.000000"  style="stroke:black; stroke-linecap:round; stroke-width:0.25;"/>
<line x1="53.800000" y1="68.000000" x2="53.800000" y2="68.000000"  style="stroke:black; stroke-linecap:round; stroke-width:0.25;"/>
<line x1="53.800000" y1="68.000000" x2="57.800000" y2="68.000000"  style="stroke:black; stroke-linecap:round; stroke-width:0.25;"/>
<line x1="96.500000" y1="32.000000" x2="100.500000" y2="32.000000"  style="stroke:black; stroke-linecap:round; stroke-width:0.25;"/>
<line x1="96.500000" y1="40.000000" x2="100.500000" y2="40.000000"  style="stroke:black; stroke-linecap:round; stroke-width:0.25;"/>
<line x1="96.500000" y1="64.000000" x2="100.500000" y2="64.000000"  style="stroke:black; stroke-linecap:round; stroke-width:0.25;"/>
<line x1="96.500000" y1="72.000000" x2="100.500000" y2="72.000000"  style="stroke:black; stroke-linecap:round; stroke-width:0.25;"/>
<line x1="100.500000" y1="32.000000" x2="116.500000" y2="32.000000"  style="stroke:black; stroke-linecap:round; stroke-width:0.25;"/>
<line x1="100.500000" y1="40.000000" x2="108.500000" y2="40.000000"  style="stroke:black; stroke-linecap:round; stroke-width:0.25;"/>
<line x1="100.500000" y1="56.000000" x2="116.500000" y2="56.000000"  style="stroke:black; stroke-linecap:round; stroke-width:0.25;"/>
<line x1="100.500000" y1="64.000000" x2="100.500000" y2="56.000000"  style="stroke:black; stroke-linecap:round; stroke-width:0.25;"/>
<line x1="100.500000" y1="64.000000" x2="100.500000" y2="64.000000"  style="stroke:black; stroke-linecap:round; stroke-width:0.25;"/>
<line x1="100.500000" y1="72.000000" x2="108.500000" y2="72.000000"  style="stroke:black; stroke-linecap:round; stroke-width:0.25;"/>
<line x1="108.500000" y1="40.000000" x2="108.500000" y2="48.000000"  style="stroke:black; stroke-linecap:round; stroke-width:0.25;"/>
<line x1="108.500000" y1="48.000000" x2="116.500000" y2="48.000000"  style="stroke:black; stroke-linecap:round; stroke-width:0.25;"/>
<line x1="108.500000" y1="64.000000" x2="116.500000" y2="64.000000"  style="stroke:black; stroke-linecap:round; stroke-width:0.25;"/>
<line x1="108.500000" y1="72.000000" x2="108.500000" y2="64.000000"  style="stroke:black; stroke-linecap:round; stroke-width:0.25;"/>
<line x1="116.500000" y1="32.000000" x2="116.500000" y2="40.000000"  style="stroke:black; stroke-linecap:round; stroke-width:0.25;"/>
<line x1="116.500000" y1="40.000000" x2="116.500000" y2="40.000000"  style="stroke:black; stroke-linecap:round; stroke-width:0.25;"/>
<line x1="116.500000" y1="40.000000" x2="120.500000" y2="40.000000"  style="stroke:black; stroke-linecap:round; stroke-width:0.25;"/>
<line x1="116.500000" y1="48.000000" x2="120.500000" y2="48.000000"  style="stroke:black; stroke-linecap:round; stroke-width:0.25;"/>
<line x1="116.500000" y1="56.000000" x2="120.500000" y2="56.000000"  style="stroke:black; stroke-linecap:round; stroke-width:0.25;"/>
<line x1="116.500000" y1="64.000000" x2="120.500000" y2="64.000000"  style="stroke:black; stroke-linecap:round; stroke-width:0.25;"/>
<line x1="159.200000" y1="48.000000" x2="163.200000" y2="48.000000"  style="stroke:black; stroke-linecap:round; stroke-width:0.25;"/>
<line x1="159.200000" y1="56.000000" x2="163.200000" y2="56.000000"  style="stroke:black; stroke-linecap:round; stroke-width:0.25;"/>
<line x1="163.200000" y1="48.000000" x2="195.200000" y2="32.000000"  style="stroke:black; stroke-linecap:round; stroke-width:0.25;"/>
<line x1="163.200000" y1="48.000000" x2="195.200000" y2="64.000000"  style="stroke:black; stroke-linecap:round; stroke-width:0.25;"/>
<line x1="163.200000" y1="56.000000" x2="195.200000" y2="40.000000"  style="stroke:black; stroke-linecap:round; stroke-width:0.25;"/>
<line x1="163.200000" y1="56.000000" x2="195.200000" y2="72.000000"  style="stroke:black; stroke-linecap:round; stroke-width:0.25;"/>
<line x1="195.200000" y1="32.000000" x2="199.200000" y2="32.000000"  style="stroke:black; stroke-linecap:round; stroke-width:0.25;"/>
<line x1="195.200000" y1="40.000000" x2="199.200000" y2="40.000000"  style="stroke:black; stroke-linecap:round; stroke-width:0.25;"/>
<line x1="195.200000" y1="64.000000" x2="199.200000" y2="64.000000"  style="stroke:black; stroke-linecap:round; stroke-width:0.25;"/>
<line x1="195.200000" y1="72.000000" x2="199.200000" y2="72.000000"  style="stroke:black; stroke-linecap:round; stroke-width:0.25;"/>
<line x1="223.200000" y1="36.000000" x2="227.200000" y2="36.000000"  style="stroke:black; stroke-linecap:round; stroke-width:0.25;"/>
<line x1="223.200000" y1="68.000000" x2="227.200000" y2="68.000000"  style="stroke:black; stroke-linecap:round; stroke-width:0.25;"/>
<line x1="227.200000" y1="36.000000" x2="235.200000" y2="36.000000"  style="stroke:black; stroke-linecap:round; stroke-width:0.25;"/>
<line x1="227.200000" y1="56.000000" x2="235.200000" y2="56.000000"  style="stroke:black; stroke-linecap:round; stroke-width:0.25;"/>
<line x1="227.200000" y1="68.000000" x2="227.200000" y2="56.000000"  style="stroke:black; stroke-linecap:round; stroke-width:0.25;"/>
<line x1="227.200000" y1="68.000000" x2="227.200000" y2="68.000000"  style="stroke:black; stroke-linecap:round; stroke-width:0.25;"/>
<line x1="235.200000" y1="36.000000" x2="235.200000" y2="48.000000"  style="stroke:black; stroke-linecap:round; stroke-width:0.25;"/>
<line x1="235.200000" y1="48.000000" x2="235.200000" y2="48.000000"  style="stroke:black; stroke-linecap:round; stroke-width:0.25;"/>
<line x1="235.200000" y1="48.000000" x2="239.200000" y2="48.000000"  style="stroke:black; stroke-linecap:round; stroke-width:0.25;"/>
<line x1="235.200000" y1="56.000000" x2="239.200000" y2="56.000000"  style="stroke:black; stroke-linecap:round; stroke-width:0.25;"/>
<line x1="239.200000" y1="48.000000" x2="243.200000" y2="48.000000"  style="stroke:black; stroke-linecap:round; stroke-width:0.25;"/>
<line x1="239.200000" y1="56.000000" x2="243.200000" y2="56.000000"  style="stroke:black; stroke-linecap:round; stroke-width:0.25;"/>
<line x1="243.200000" y1="48.000000" x2="253.200000" y2="48.000000"  style="stroke:black; stroke-linecap:round; stroke-width:0.25;"/>
<line x1="243.200000" y1="56.000000" x2="253.200000" y2="56.000000"  style="stroke:black; stroke-linecap:round; stroke-width:0.25;"/>
</svg>
