<?xml version="1.0"?>
<svg xmlns="http://www.w3.org/2000/svg" xmlns:xlink="http://www.w3.org/1999/xlink" viewBox="0 0 329.400000 136.000000" width="164.700000mm" height="68.000000mm" version="1.1">
<a xlink:href="filters-0x7fe09c523db0.svg">
<rect x="1.000000" y="1.000000" width="328.400000" height="135.000000" rx="0" ry="0" style="stroke:none;fill:#cccccc;"/>
<rect x="0.000000" y="0.000000" width="328.400000" height="135.000000" rx="0" ry="0" style="stroke:none;fill:#ffffff;"/>
</a>
<text x="10.000000" y="7.000000" font-family="Arial" font-size="7"></text>
<rect x="61.000000" y="45.000000" width="38.700000" height="24.000000" rx="0" ry="0" style="stroke:none;fill:#cccccc;"/>
<rect x="60.000000" y="44.000000" width="38.700000" height="24.000000" rx="0" ry="0" style="stroke:none;fill:#f44800;"/>
<text x="79.350000" y="58.000000" font-family="Arial" font-size="7" text-anchor="middle" fill="#FFFFFF">0.479401</text>
<circle cx="62.000000" cy="46.000000" r="1"/>
<rect x="115.700000" y="41.000000" width="24.000000" height="24.000000" rx="0" ry="0" style="stroke:none;fill:#cccccc;"/>
<rect x="114.700000" y="40.000000" width="24.000000" height="24.000000" rx="0" ry="0" style="stroke:none;fill:#4B71A1;"/>
<text x="126.700000" y="54.000000" font-family="Arial" font-size="7" text-anchor="middle" fill="#FFFFFF">*</text>
<circle cx="116.700000" cy="42.000000" r="1"/>
<line x1="111.700000" y1="47.000000" x2="114.700000" y2="48.000000"  transform="rotate(0.000000,114.700000,48.000000)" style="stroke: black; stroke-width:0.25;"/>
<line x1="111.700000" y1="49.000000" x2="114.700000" y2="48.000000"  transform="rotate(0.000000,114.700000,48.000000)" style="stroke: black; stroke-width:0.25;"/>
<line x1="111.700000" y1="55.000000" x2="114.700000" y2="56.000000"  transform="rotate(0.000000,114.700000,56.000000)" style="stroke: black; stroke-width:0.25;"/>
<line x1="111.700000" y1="57.000000" x2="114.700000" y2="56.000000"  transform="rotate(0.000000,114.700000,56.000000)" style="stroke: black; stroke-width:0.25;"/>
<rect x="72.350000" y="77.000000" width="24.000000" height="24.000000" rx="0" ry="0" style="stroke:none;fill:#cccccc;"/>
<rect x="71.350000" y="76.000000" width="24.000000" height="24.000000" rx="0" ry="0" style="stroke:none;fill:#4B71A1;"/>
<text x="83.350000" y="90.000000" font-family="Arial" font-size="7" text-anchor="middle" fill="#FFFFFF">mem</text>
<circle cx="73.350000" cy="78.000000" r="1"/>
<line x1="68.350000" y1="87.000000" x2="71.350000" y2="88.000000"  transform="rotate(0.000000,71.350000,88.000000)" style="stroke: black; stroke-width:0.25;"/>
<line x1="68.350000" y1="89.000000" x2="71.350000" y2="88.000000"  transform="rotate(0.000000,71.350000,88.000000)" style="stroke: black; stroke-width:0.25;"/>
<rect x="104.350000" y="77.000000" width="24.000000" height="24.000000" rx="0" ry="0" style="stroke:none;fill:#cccccc;"/>
<rect x="103.350000" y="76.000000" width="24.000000" height="24.000000" rx="0" ry="0" style="stroke:none;fill:#4B71A1;"/>
<text x="115.350000" y="90.000000" font-family="Arial" font-size="7" text-anchor="middle" fill="#FFFFFF">mem</text>
<circle cx="105.350000" cy="78.000000" r="1"/>
<line x1="100.350000" y1="87.000000" x2="103.350000" y2="88.000000"  transform="rotate(0.000000,103.350000,88.000000)" style="stroke: black; stroke-width:0.25;"/>
<line x1="100.350000" y1="89.000000" x2="103.350000" y2="88.000000"  transform="rotate(0.000000,103.350000,88.000000)" style="stroke: black; stroke-width:0.25;"/>
<rect x="155.700000" y="57.000000" width="24.000000" height="24.000000" rx="0" ry="0" style="stroke:none;fill:#cccccc;"/>
<rect x="154.700000" y="56.000000" width="24.000000" height="24.000000" rx="0" ry="0" style="stroke:none;fill:#4B71A1;"/>
<text x="166.700000" y="70.000000" font-family="Arial" font-size="7" text-anchor="middle" fill="#FFFFFF">-</text>
<circle cx="156.700000" cy="58.000000" r="1"/>
<line x1="151.700000" y1="63.000000" x2="154.700000" y2="64.000000"  transform="rotate(0.000000,154.700000,64.000000)" style="stroke: black; stroke-width:0.25;"/>
<line x1="151.700000" y1="65.000000" x2="154.700000" y2="64.000000"  transform="rotate(0.000000,154.700000,64.000000)" style="stroke: black; stroke-width:0.25;"/>
<line x1="151.700000" y1="71.000000" x2="154.700000" y2="72.000000"  transform="rotate(0.000000,154.700000,72.000000)" style="stroke: black; stroke-width:0.25;"/>
<line x1="151.700000" y1="73.000000" x2="154.700000" y2="72.000000"  transform="rotate(0.000000,154.700000,72.000000)" style="stroke: black; stroke-width:0.25;"/>
<rect x="231.050000" y="89.000000" width="24.000000" height="24.000000" rx="0" ry="0" style="stroke:none;fill:#cccccc;"/>
<rect x="230.050000" y="88.000000" width="24.000000" height="24.000000" rx="0" ry="0" style="stroke:none;fill:#4B71A1;"/>
<text x="242.050000" y="102.000000" font-family="Arial" font-size="7" text-anchor="middle" fill="#FFFFFF">+</text>
<circle cx="232.050000" cy="90.000000" r="1"/>
<line x1="227.050000" y1="95.000000" x2="230.050000" y2="96.000000"  transform="rotate(0.000000,230.050000,96.000000)" style="stroke: black; stroke-width:0.25;"/>
<line x1="227.050000" y1="97.000000" x2="230.050000" y2="96.000000"  transform="rotate(0.000000,230.050000,96.000000)" style="stroke: black; stroke-width:0.25;"/>
<line x1="227.050000" y1="103.000000" x2="230.050000" y2="104.000000"  transform="rotate(0.000000,230.050000,104.000000)" style="stroke: black; stroke-width:0.25;"/>
<line x1="227.050000" y1="105.000000" x2="230.050000" y2="104.000000"  transform="rotate(0.000000,230.050000,104.000000)" style="stroke: black; stroke-width:0.25;"/>
<rect x="251.050000" y="57.000000" width="24.000000" height="24.000000" rx="0" ry="0" style="stroke:none;fill:#cccccc;"/>
<rect x="250.050000" y="56.000000" width="24.000000" height="24.000000" rx="0" ry="0" style="stroke:none;fill:#4B71A1;"/>
<text x="262.050000" y="70.000000" font-family="Arial" font-size="7" text-anchor="middle" fill="#FFFFFF">mem</text>
<circle cx="272.050000" cy="78.000000" r="1"/>
<line x1="277.050000" y1="67.000000" x2="274.050000" y2="68.000000"  transform="rotate(0.000000,274.050000,68.000000)" style="stroke: black; stroke-width:0.25;"/>
<line x1="277.050000" y1="69.000000" x2="274.050000" y2="68.000000"  transform="rotate(0.000000,274.050000,68.000000)" style="stroke: black; stroke-width:0.25;"/>
<rect x="243.700000" y="25.000000" width="38.700000" height="24.000000" rx="0" ry="0" style="stroke:none;fill:#cccccc;"/>
<rect x="242.700000" y="24.000000" width="38.700000" height="24.000000" rx="0" ry="0" style="stroke:none;fill:#f44800;"/>
<text x="262.050000" y="38.000000" font-family="Arial" font-size="7" text-anchor="middle" fill="#FFFFFF">0.479401</text>
<circle cx="279.400000" cy="46.000000" r="1"/>
<rect x="203.700000" y="41.000000" width="24.000000" height="24.000000" rx="0" ry="0" style="stroke:none;fill:#cccccc;"/>
<rect x="202.700000" y="40.000000" width="24.000000" height="24.000000" rx="0" ry="0" style="stroke:none;fill:#4B71A1;"/>
<text x="214.700000" y="54.000000" font-family="Arial" font-size="7" text-anchor="middle" fill="#FFFFFF">*</text>
<circle cx="224.700000" cy="62.000000" r="1"/>
<line x1="229.700000" y1="55.000000" x2="226.700000" y2="56.000000"  transform="rotate(0.000000,226.700000,56.000000)" style="stroke: black; stroke-width:0.25;"/>
<line x1="229.700000" y1="57.000000" x2="226.700000" y2="56.000000"  transform="rotate(0.000000,226.700000,56.000000)" style="stroke: black; stroke-width:0.25;"/>
<line x1="229.700000" y1="47.000000" x2="226.700000" y2="48.000000"  transform="rotate(0.000000,226.700000,48.000000)" style="stroke: black; stroke-width:0.25;"/>
<line x1="229.700000" y1="49.000000" x2="226.700000" y2="48.000000"  transform="rotate(0.000000,226.700000,48.000000)" style="stroke: black; stroke-width:0.25;"/>
<line x1="283.400000" y1="100.000000" x2="283.400000" y2="96.000000"  style="stroke:black; stroke-linecap:round; stroke-width:0.25;"/>
<line x1="283.400000" y1="96.000000" x2="287.400000" y2="96.000000"  style="stroke:black; stroke-linecap:round; stroke-width:0.25;"/>
<line x1="287.400000" y1="96.000000" x2="287.400000" y2="100.000000"  style="stroke:black; stroke-linecap:round; stroke-width:0.25;"/>
<line x1="15.000000" y1="15.000000" x2="15.000000" y2="121.000000"  style="stroke: black; stroke-linecap:round; stroke-width:0.25; stroke-dasharray:3,3;"/>
<line x1="15.000000" y1="121.000000" x2="314.400000" y2="121.000000"  style="stroke: black; stroke-linecap:round; stroke-width:0.25; stroke-dasharray:3,3;"/>
<line x1="314.400000" y1="121.000000" x2="314.400000" y2="15.000000"  style="stroke: black; stroke-linecap:round; stroke-width:0.25; stroke-dasharray:3,3;"/>
<line x1="15.000000" y1="15.000000" x2="20.000000" y2="15.000000"  style="stroke: black; stroke-linecap:round; stroke-width:0.25; stroke-dasharray:3,3;"/>
<line x1="110.300000" y1="15.000000" x2="314.400000" y2="15.000000"  style="stroke: black; stroke-linecap:round; stroke-width:0.25; stroke-dasharray:3,3;"/>
<text x="20.000000" y="17.000000" font-family="Arial" font-size="7">unit(0.47940100000000002f)</text>
<line x1="316.400000" y1="67.000000" x2="319.400000" y2="68.000000"  transform="rotate(0.000000,319.400000,68.000000)" style="stroke: black; stroke-width:0.25;"/>
<line x1="316.400000" y1="69.000000" x2="319.400000" y2="68.000000"  transform="rotate(0.000000,319.400000,68.000000)" style="stroke: black; stroke-width:0.25;"/>
<line x1="10.000000" y1="68.000000" x2="20.000000" y2="68.000000"  style="stroke:black; stroke-linecap:round; stroke-width:0.25;"/>
<line x1="20.000000" y1="68.000000" x2="24.000000" y2="68.000000"  style="stroke:black; stroke-linecap:round; stroke-width:0.25;"/>
<line x1="24.000000" y1="68.000000" x2="28.000000" y2="68.000000"  style="stroke:black; stroke-linecap:round; stroke-width:0.25;"/>
<line x1="28.000000" y1="68.000000" x2="28.000000" y2="68.000000"  style="stroke:black; stroke-linecap:round; stroke-width:0.25;"/>
<line x1="28.000000" y1="68.000000" x2="32.000000" y2="68.000000"  style="stroke:black; stroke-linecap:round; stroke-width:0.25;"/>
<line x1="32.000000" y1="68.000000" x2="36.000000" y2="68.000000"  style="stroke:black; stroke-linecap:round; stroke-width:0.25;"/>
<line x1="36.000000" y1="68.000000" x2="56.000000" y2="36.000000"  style="stroke:black; stroke-linecap:round; stroke-width:0.25;"/>
<line x1="36.000000" y1="68.000000" x2="56.000000" y2="88.000000"  style="stroke:black; stroke-linecap:round; stroke-width:0.25;"/>
<line x1="56.000000" y1="36.000000" x2="79.350000" y2="36.000000"  style="stroke:black; stroke-linecap:round; stroke-width:0.25;"/>
<line x1="56.000000" y1="88.000000" x2="67.350000" y2="88.000000"  style="stroke:black; stroke-linecap:round; stroke-width:0.25;"/>
<line x1="67.350000" y1="88.000000" x2="67.350000" y2="88.000000"  style="stroke:black; stroke-linecap:round; stroke-width:0.25;"/>
<line x1="67.350000" y1="88.000000" x2="71.350000" y2="88.000000"  style="stroke:black; stroke-linecap:round; stroke-width:0.25;"/>
<line x1="79.350000" y1="36.000000" x2="102.700000" y2="36.000000"  style="stroke:black; stroke-linecap:round; stroke-width:0.25;"/>
<line x1="95.350000" y1="88.000000" x2="99.350000" y2="88.000000"  style="stroke:black; stroke-linecap:round; stroke-width:0.25;"/>
<line x1="98.700000" y1="56.000000" x2="102.700000" y2="56.000000"  style="stroke:black; stroke-linecap:round; stroke-width:0.25;"/>
<line x1="99.350000" y1="88.000000" x2="99.350000" y2="88.000000"  style="stroke:black; stroke-linecap:round; stroke-width:0.25;"/>
<line x1="99.350000" y1="88.000000" x2="103.350000" y2="88.000000"  style="stroke:black; stroke-linecap:round; stroke-width:0.25;"/>
<line x1="102.700000" y1="36.000000" x2="110.700000" y2="36.000000"  style="stroke:black; stroke-linecap:round; stroke-width:0.25;"/>
<line x1="102.700000" y1="56.000000" x2="110.700000" y2="56.000000"  style="stroke:black; stroke-linecap:round; stroke-width:0.25;"/>
<line x1="110.700000" y1="36.000000" x2="110.700000" y2="48.000000"  style="stroke:black; stroke-linecap:round; stroke-width:0.25;"/>
<line x1="110.700000" y1="48.000000" x2="110.700000" y2="48.000000"  style="stroke:black; stroke-linecap:round; stroke-width:0.25;"/>
<line x1="110.700000" y1="48.000000" x2="114.700000" y2="48.000000"  style="stroke:black; stroke-linecap:round; stroke-width:0.25;"/>
<line x1="110.700000" y1="56.000000" x2="114.700000" y2="56.000000"  style="stroke:black; stroke-linecap:round; stroke-width:0.25;"/>
<line x1="127.350000" y1="88.000000" x2="131.350000" y2="88.000000"  style="stroke:black; stroke-linecap:round; stroke-width:0.25;"/>
<line x1="131.350000" y1="88.000000" x2="142.700000" y2="88.000000"  style="stroke:black; stroke-linecap:round; stroke-width:0.25;"/>
<line x1="138.700000" y1="52.000000" x2="142.700000" y2="52.000000"  style="stroke:black; stroke-linecap:round; stroke-width:0.25;"/>
<line x1="142.700000" y1="52.000000" x2="150.700000" y2="52.000000"  style="stroke:black; stroke-linecap:round; stroke-width:0.25;"/>
<line x1="142.700000" y1="72.000000" x2="150.700000" y2="72.000000"  style="stroke:black; stroke-linecap:round; stroke-width:0.25;"/>
<line x1="142.700000" y1="88.000000" x2="142.700000" y2="72.000000"  style="stroke:black; stroke-linecap:round; stroke-width:0.25;"/>
<line x1="142.700000" y1="88.000000" x2="142.700000" y2="88.000000"  style="stroke:black; stroke-linecap:round; stroke-width:0.25;"/>
<line x1="150.700000" y1="52.000000" x2="150.700000" y2="64.000000"  style="stroke:black; stroke-linecap:round; stroke-width:0.25;"/>
<line x1="150.700000" y1="64.000000" x2="150.700000" y2="64.000000"  style="stroke:black; stroke-linecap:round; stroke-width:0.25;"/>
<line x1="150.700000" y1="64.000000" x2="154.700000" y2="64.000000"  style="stroke:black; stroke-linecap:round; stroke-width:0.25;"/>
<line x1="150.700000" y1="72.000000" x2="154.700000" y2="72.000000"  style="stroke:black; stroke-linecap:round; stroke-width:0.25;"/>
<line x1="178.700000" y1="68.000000" x2="182.700000" y2="68.000000"  style="stroke:black; stroke-linecap:round; stroke-width:0.25;"/>
<line x1="182.700000" y1="68.000000" x2="190.700000" y2="68.000000"  style="stroke:black; stroke-linecap:round; stroke-width:0.25;"/>
<line x1="190.700000" y1="68.000000" x2="190.700000" y2="104.000000"  style="stroke:black; stroke-linecap:round; stroke-width:0.25;"/>
<line x1="190.700000" y1="104.000000" x2="190.700000" y2="104.000000"  style="stroke:black; stroke-linecap:round; stroke-width:0.25;"/>
<line x1="190.700000" y1="104.000000" x2="198.700000" y2="104.000000"  style="stroke:black; stroke-linecap:round; stroke-width:0.25;"/>
<line x1="198.700000" y1="52.000000" x2="198.700000" y2="52.000000"  style="stroke:black; stroke-linecap:round; stroke-width:0.25;"/>
<line x1="198.700000" y1="52.000000" x2="198.700000" y2="96.000000"  style="stroke:black; stroke-linecap:round; stroke-width:0.25;"/>
<line x1="198.700000" y1="96.000000" x2="198.700000" y2="96.000000"  style="stroke:black; stroke-linecap:round; stroke-width:0.25;"/>
<line x1="198.700000" y1="96.000000" x2="226.050000" y2="96.000000"  style="stroke:black; stroke-linecap:round; stroke-width:0.25;"/>
<line x1="198.700000" y1="104.000000" x2="226.050000" y2="104.000000"  style="stroke:black; stroke-linecap:round; stroke-width:0.25;"/>
<line x1="202.700000" y1="52.000000" x2="198.700000" y2="52.000000"  style="stroke:black; stroke-linecap:round; stroke-width:0.25;"/>
<line x1="226.050000" y1="96.000000" x2="230.050000" y2="96.000000"  style="stroke:black; stroke-linecap:round; stroke-width:0.25;"/>
<line x1="226.050000" y1="104.000000" x2="230.050000" y2="104.000000"  style="stroke:black; stroke-linecap:round; stroke-width:0.25;"/>
<line x1="230.700000" y1="48.000000" x2="226.700000" y2="48.000000"  style="stroke:black; stroke-linecap:round; stroke-width:0.25;"/>
<line x1="230.700000" y1="56.000000" x2="226.700000" y2="56.000000"  style="stroke:black; stroke-linecap:round; stroke-width:0.25;"/>
<line x1="230.700000" y1="56.000000" x2="230.700000" y2="56.000000"  style="stroke:black; stroke-linecap:round; stroke-width:0.25;"/>
<line x1="230.700000" y1="68.000000" x2="230.700000" y2="56.000000"  style="stroke:black; stroke-linecap:round; stroke-width:0.25;"/>
<line x1="238.700000" y1="36.000000" x2="238.700000" y2="36.000000"  style="stroke:black; stroke-linecap:round; stroke-width:0.25;"/>
<line x1="238.700000" y1="36.000000" x2="238.700000" y2="48.000000"  style="stroke:black; stroke-linecap:round; stroke-width:0.25;"/>
<line x1="238.700000" y1="48.000000" x2="230.700000" y2="48.000000"  style="stroke:black; stroke-linecap:round; stroke-width:0.25;"/>
<line x1="238.700000" y1="68.000000" x2="230.700000" y2="68.000000"  style="stroke:black; stroke-linecap:round; stroke-width:0.25;"/>
<line x1="242.700000" y1="36.000000" x2="238.700000" y2="36.000000"  style="stroke:black; stroke-linecap:round; stroke-width:0.25;"/>
<line x1="246.050000" y1="68.000000" x2="238.700000" y2="68.000000"  style="stroke:black; stroke-linecap:round; stroke-width:0.25;"/>
<line x1="250.050000" y1="68.000000" x2="246.050000" y2="68.000000"  style="stroke:black; stroke-linecap:round; stroke-width:0.25;"/>
<line x1="254.050000" y1="100.000000" x2="258.050000" y2="100.000000"  style="stroke:black; stroke-linecap:round; stroke-width:0.25;"/>
<line x1="258.050000" y1="100.000000" x2="285.400000" y2="100.000000"  style="stroke:black; stroke-linecap:round; stroke-width:0.25;"/>
<line x1="278.050000" y1="68.000000" x2="274.050000" y2="68.000000"  style="stroke:black; stroke-linecap:round; stroke-width:0.25;"/>
<line x1="278.050000" y1="68.000000" x2="278.050000" y2="68.000000"  style="stroke:black; stroke-linecap:round; stroke-width:0.25;"/>
<line x1="285.400000" y1="68.000000" x2="278.050000" y2="68.000000"  style="stroke:black; stroke-linecap:round; stroke-width:0.25;"/>
<line x1="285.400000" y1="68.000000" x2="285.400000" y2="68.000000"  style="stroke:black; stroke-linecap:round; stroke-width:0.25;"/>
<line x1="285.400000" y1="96.000000" x2="285.400000" y2="68.000000"  style="stroke:black; stroke-linecap:round; stroke-width:0.25;"/>
<line x1="285.400000" y1="100.000000" x2="287.400000" y2="100.000000"  style="stroke:black; stroke-linecap:round; stroke-width:0.25;"/>
<line x1="287.400000" y1="100.000000" x2="293.400000" y2="100.000000"  style="stroke:black; stroke-linecap:round; stroke-width:0.25;"/>
<line x1="293.400000" y1="68.000000" x2="301.400000" y2="68.000000"  style="stroke:black; stroke-linecap:round; stroke-width:0.25;"/>
<line x1="293.400000" y1="100.000000" x2="293.400000" y2="68.000000"  style="stroke:black; stroke-linecap:round; stroke-width:0.25;"/>
<line x1="293.400000" y1="100.000000" x2="293.400000" y2="100.000000"  style="stroke:black; stroke-linecap:round; stroke-width:0.25;"/>
<line x1="301.400000" y1="68.000000" x2="305.400000" y2="68.000000"  style="stroke:black; stroke-linecap:round; stroke-width:0.25;"/>
<line x1="305.400000" y1="68.000000" x2="309.400000" y2="68.000000"  style="stroke:black; stroke-linecap:round; stroke-width:0.25;"/>
<line x1="309.400000" y1="68.000000" x2="319.400000" y2="68.000000"  style="stroke:black; stroke-linecap:round; stroke-width:0.25;"/>
</svg>
