<?xml version="1.0"?>
<svg xmlns="http://www.w3.org/2000/svg" xmlns:xlink="http://www.w3.org/1999/xlink" viewBox="0 0 574.200000 92.000000" width="287.100000mm" height="46.000000mm" version="1.1">
<a xlink:href="an-0x7f6a600c9c70.svg">
<rect x="1.000000" y="1.000000" width="573.200000" height="91.000000" rx="0" ry="0" style="stroke:none;fill:#cccccc;"/>
<rect x="0.000000" y="0.000000" width="573.200000" height="91.000000" rx="0" ry="0" style="stroke:none;fill:#ffffff;"/>
</a>
<text x="10.000000" y="7.000000" font-family="Arial" font-size="7"></text>
<rect x="35.000000" y="35.000000" width="361.200000" height="24.000000" rx="0" ry="0" style="stroke:none;fill:#cccccc;"/>
<rect x="34.000000" y="34.000000" width="361.200000" height="24.000000" rx="0" ry="0" style="stroke:none;fill:#477881;"/>
<text x="214.600000" y="48.000000" font-family="Arial" font-size="7" text-anchor="middle" fill="#FFFFFF">hslider(noise attack, 1e-08f, 0.0f, 0.10000000000000001f, 1.0000000000000001e-09f)</text>
<circle cx="36.000000" cy="36.000000" r="1"/>
<a xlink:href="smooth-0x7f6a60042500.svg">
<rect x="404.200000" y="35.000000" width="129.000000" height="24.000000" rx="0" ry="0" style="stroke:none;fill:#cccccc;"/>
<rect x="403.200000" y="34.000000" width="129.000000" height="24.000000" rx="0" ry="0" style="stroke:none;fill:#003366;"/>
</a>
<a xlink:href="smooth-0x7f6a60042500.svg">
<text x="467.700000" y="48.000000" font-family="Arial" font-size="7" text-anchor="middle" fill="#FFFFFF">smooth(0.10000000000000001f)</text>
</a>
<circle cx="405.200000" cy="36.000000" r="1"/>
<line x1="400.200000" y1="45.000000" x2="403.200000" y2="46.000000"  transform="rotate(0.000000,403.200000,46.000000)" style="stroke: black; stroke-width:0.25;"/>
<line x1="400.200000" y1="47.000000" x2="403.200000" y2="46.000000"  transform="rotate(0.000000,403.200000,46.000000)" style="stroke: black; stroke-width:0.25;"/>
<line x1="25.000000" y1="25.000000" x2="25.000000" y2="67.000000"  style="stroke: black; stroke-linecap:round; stroke-width:0.25; stroke-dasharray:3,3;"/>
<line x1="25.000000" y1="67.000000" x2="541.200000" y2="67.000000"  style="stroke: black; stroke-linecap:round; stroke-width:0.25; stroke-dasharray:3,3;"/>
<line x1="541.200000" y1="67.000000" x2="541.200000" y2="25.000000"  style="stroke: black; stroke-linecap:round; stroke-width:0.25; stroke-dasharray:3,3;"/>
<line x1="25.000000" y1="25.000000" x2="30.000000" y2="25.000000"  style="stroke: black; stroke-linecap:round; stroke-width:0.25; stroke-dasharray:3,3;"/>
<line x1="78.375000" y1="25.000000" x2="541.200000" y2="25.000000"  style="stroke: black; stroke-linecap:round; stroke-width:0.25; stroke-dasharray:3,3;"/>
<text x="30.000000" y="27.000000" font-family="Arial" font-size="7">vgroup(snare)</text>
<line x1="15.000000" y1="15.000000" x2="15.000000" y2="77.000000"  style="stroke: black; stroke-linecap:round; stroke-width:0.25; stroke-dasharray:3,3;"/>
<line x1="15.000000" y1="77.000000" x2="559.200000" y2="77.000000"  style="stroke: black; stroke-linecap:round; stroke-width:0.25; stroke-dasharray:3,3;"/>
<line x1="559.200000" y1="77.000000" x2="559.200000" y2="15.000000"  style="stroke: black; stroke-linecap:round; stroke-width:0.25; stroke-dasharray:3,3;"/>
<line x1="15.000000" y1="15.000000" x2="20.000000" y2="15.000000"  style="stroke: black; stroke-linecap:round; stroke-width:0.25; stroke-dasharray:3,3;"/>
<line x1="45.800000" y1="15.000000" x2="559.200000" y2="15.000000"  style="stroke: black; stroke-linecap:round; stroke-width:0.25; stroke-dasharray:3,3;"/>
<text x="20.000000" y="17.000000" font-family="Arial" font-size="7">attack</text>
<line x1="561.200000" y1="45.000000" x2="564.200000" y2="46.000000"  transform="rotate(0.000000,564.200000,46.000000)" style="stroke: black; stroke-width:0.25;"/>
<line x1="561.200000" y1="47.000000" x2="564.200000" y2="46.000000"  transform="rotate(0.000000,564.200000,46.000000)" style="stroke: black; stroke-width:0.25;"/>
<line x1="395.200000" y1="46.000000" x2="399.200000" y2="46.000000"  style="stroke:black; stroke-linecap:round; stroke-width:0.25;"/>
<line x1="399.200000" y1="46.000000" x2="399.200000" y2="46.000000"  style="stroke:black; stroke-linecap:round; stroke-width:0.25;"/>
<line x1="399.200000" y1="46.000000" x2="403.200000" y2="46.000000"  style="stroke:black; stroke-linecap:round; stroke-width:0.25;"/>
<line x1="532.200000" y1="46.000000" x2="536.200000" y2="46.000000"  style="stroke:black; stroke-linecap:round; stroke-width:0.25;"/>
<line x1="536.200000" y1="46.000000" x2="546.200000" y2="46.000000"  style="stroke:black; stroke-linecap:round; stroke-width:0.25;"/>
<line x1="546.200000" y1="46.000000" x2="546.200000" y2="46.000000"  style="stroke:black; stroke-linecap:round; stroke-width:0.25;"/>
<line x1="546.200000" y1="46.000000" x2="550.200000" y2="46.000000"  style="stroke:black; stroke-linecap:round; stroke-width:0.25;"/>
<line x1="550.200000" y1="46.000000" x2="554.200000" y2="46.000000"  style="stroke:black; stroke-linecap:round; stroke-width:0.25;"/>
<line x1="554.200000" y1="46.000000" x2="564.200000" y2="46.000000"  style="stroke:black; stroke-linecap:round; stroke-width:0.25;"/>
</svg>
