<?xml version="1.0"?>
<svg xmlns="http://www.w3.org/2000/svg" xmlns:xlink="http://www.w3.org/1999/xlink" viewBox="0 0 419.700000 120.000000" width="209.850000mm" height="60.000000mm" version="1.1">
<a xlink:href="process.svg">
<rect x="1.000000" y="1.000000" width="418.700000" height="119.000000" rx="0" ry="0" style="stroke:none;fill:#cccccc;"/>
<rect x="0.000000" y="0.000000" width="418.700000" height="119.000000" rx="0" ry="0" style="stroke:none;fill:#ffffff;"/>
</a>
<text x="10.000000" y="7.000000" font-family="Arial" font-size="7"></text>
<rect x="61.000000" y="53.000000" width="167.700000" height="24.000000" rx="0" ry="0" style="stroke:none;fill:#cccccc;"/>
<rect x="60.000000" y="52.000000" width="167.700000" height="24.000000" rx="0" ry="0" style="stroke:none;fill:#477881;"/>
<text x="143.850000" y="66.000000" font-family="Arial" font-size="7" text-anchor="middle" fill="#FFFFFF">hslider(amp, 0.5f, 0.0f, 2.0f, 0.001f)</text>
<circle cx="62.000000" cy="54.000000" r="1"/>
<line x1="51.000000" y1="43.000000" x2="51.000000" y2="85.000000"  style="stroke: black; stroke-linecap:round; stroke-width:0.25; stroke-dasharray:3,3;"/>
<line x1="51.000000" y1="85.000000" x2="236.700000" y2="85.000000"  style="stroke: black; stroke-linecap:round; stroke-width:0.25; stroke-dasharray:3,3;"/>
<line x1="236.700000" y1="85.000000" x2="236.700000" y2="43.000000"  style="stroke: black; stroke-linecap:round; stroke-width:0.25; stroke-dasharray:3,3;"/>
<line x1="51.000000" y1="43.000000" x2="56.000000" y2="43.000000"  style="stroke: black; stroke-linecap:round; stroke-width:0.25; stroke-dasharray:3,3;"/>
<line x1="104.375000" y1="43.000000" x2="236.700000" y2="43.000000"  style="stroke: black; stroke-linecap:round; stroke-width:0.25; stroke-dasharray:3,3;"/>
<text x="56.000000" y="45.000000" font-family="Arial" font-size="7">vgroup(snare)</text>
<line x1="41.000000" y1="33.000000" x2="41.000000" y2="95.000000"  style="stroke: black; stroke-linecap:round; stroke-width:0.25; stroke-dasharray:3,3;"/>
<line x1="41.000000" y1="95.000000" x2="246.700000" y2="95.000000"  style="stroke: black; stroke-linecap:round; stroke-width:0.25; stroke-dasharray:3,3;"/>
<line x1="246.700000" y1="95.000000" x2="246.700000" y2="33.000000"  style="stroke: black; stroke-linecap:round; stroke-width:0.25; stroke-dasharray:3,3;"/>
<line x1="41.000000" y1="33.000000" x2="46.000000" y2="33.000000"  style="stroke: black; stroke-linecap:round; stroke-width:0.25; stroke-dasharray:3,3;"/>
<line x1="62.125000" y1="33.000000" x2="246.700000" y2="33.000000"  style="stroke: black; stroke-linecap:round; stroke-width:0.25; stroke-dasharray:3,3;"/>
<text x="46.000000" y="35.000000" font-family="Arial" font-size="7">amp</text>
<rect x="264.700000" y="49.000000" width="24.000000" height="24.000000" rx="0" ry="0" style="stroke:none;fill:#cccccc;"/>
<rect x="263.700000" y="48.000000" width="24.000000" height="24.000000" rx="0" ry="0" style="stroke:none;fill:#4B71A1;"/>
<text x="275.700000" y="62.000000" font-family="Arial" font-size="7" text-anchor="middle" fill="#FFFFFF">*</text>
<circle cx="265.700000" cy="50.000000" r="1"/>
<line x1="260.700000" y1="55.000000" x2="263.700000" y2="56.000000"  transform="rotate(0.000000,263.700000,56.000000)" style="stroke: black; stroke-width:0.25;"/>
<line x1="260.700000" y1="57.000000" x2="263.700000" y2="56.000000"  transform="rotate(0.000000,263.700000,56.000000)" style="stroke: black; stroke-width:0.25;"/>
<line x1="260.700000" y1="63.000000" x2="263.700000" y2="64.000000"  transform="rotate(0.000000,263.700000,64.000000)" style="stroke: black; stroke-width:0.25;"/>
<line x1="260.700000" y1="65.000000" x2="263.700000" y2="64.000000"  transform="rotate(0.000000,263.700000,64.000000)" style="stroke: black; stroke-width:0.25;"/>
<rect x="314.700000" y="53.000000" width="24.000000" height="24.000000" rx="0" ry="0" style="stroke:none;fill:#cccccc;"/>
<rect x="313.700000" y="52.000000" width="24.000000" height="24.000000" rx="0" ry="0" style="stroke:none;fill:#f44800;"/>
<text x="325.700000" y="66.000000" font-family="Arial" font-size="7" text-anchor="middle" fill="#FFFFFF">1</text>
<circle cx="315.700000" cy="54.000000" r="1"/>
<line x1="304.700000" y1="43.000000" x2="304.700000" y2="85.000000"  style="stroke: black; stroke-linecap:round; stroke-width:0.25; stroke-dasharray:3,3;"/>
<line x1="304.700000" y1="85.000000" x2="346.700000" y2="85.000000"  style="stroke: black; stroke-linecap:round; stroke-width:0.25; stroke-dasharray:3,3;"/>
<line x1="346.700000" y1="85.000000" x2="346.700000" y2="43.000000"  style="stroke: black; stroke-linecap:round; stroke-width:0.25; stroke-dasharray:3,3;"/>
<line x1="304.700000" y1="43.000000" x2="309.700000" y2="43.000000"  style="stroke: black; stroke-linecap:round; stroke-width:0.25; stroke-dasharray:3,3;"/>
<line x1="335.500000" y1="43.000000" x2="346.700000" y2="43.000000"  style="stroke: black; stroke-linecap:round; stroke-width:0.25; stroke-dasharray:3,3;"/>
<text x="309.700000" y="45.000000" font-family="Arial" font-size="7">accent</text>
<rect x="364.700000" y="49.000000" width="24.000000" height="24.000000" rx="0" ry="0" style="stroke:none;fill:#cccccc;"/>
<rect x="363.700000" y="48.000000" width="24.000000" height="24.000000" rx="0" ry="0" style="stroke:none;fill:#4B71A1;"/>
<text x="375.700000" y="62.000000" font-family="Arial" font-size="7" text-anchor="middle" fill="#FFFFFF">*</text>
<circle cx="365.700000" cy="50.000000" r="1"/>
<line x1="360.700000" y1="55.000000" x2="363.700000" y2="56.000000"  transform="rotate(0.000000,363.700000,56.000000)" style="stroke: black; stroke-width:0.25;"/>
<line x1="360.700000" y1="57.000000" x2="363.700000" y2="56.000000"  transform="rotate(0.000000,363.700000,56.000000)" style="stroke: black; stroke-width:0.25;"/>
<line x1="360.700000" y1="63.000000" x2="363.700000" y2="64.000000"  transform="rotate(0.000000,363.700000,64.000000)" style="stroke: black; stroke-width:0.25;"/>
<line x1="360.700000" y1="65.000000" x2="363.700000" y2="64.000000"  transform="rotate(0.000000,363.700000,64.000000)" style="stroke: black; stroke-width:0.25;"/>
<line x1="15.000000" y1="15.000000" x2="15.000000" y2="105.000000"  style="stroke: black; stroke-linecap:round; stroke-width:0.25; stroke-dasharray:3,3;"/>
<line x1="15.000000" y1="105.000000" x2="404.700000" y2="105.000000"  style="stroke: black; stroke-linecap:round; stroke-width:0.25; stroke-dasharray:3,3;"/>
<line x1="404.700000" y1="105.000000" x2="404.700000" y2="15.000000"  style="stroke: black; stroke-linecap:round; stroke-width:0.25; stroke-dasharray:3,3;"/>
<line x1="15.000000" y1="15.000000" x2="20.000000" y2="15.000000"  style="stroke: black; stroke-linecap:round; stroke-width:0.25; stroke-dasharray:3,3;"/>
<line x1="55.475000" y1="15.000000" x2="404.700000" y2="15.000000"  style="stroke: black; stroke-linecap:round; stroke-width:0.25; stroke-dasharray:3,3;"/>
<text x="20.000000" y="17.000000" font-family="Arial" font-size="7">volume(_)</text>
<line x1="406.700000" y1="59.000000" x2="409.700000" y2="60.000000"  transform="rotate(0.000000,409.700000,60.000000)" style="stroke: black; stroke-width:0.25;"/>
<line x1="406.700000" y1="61.000000" x2="409.700000" y2="60.000000"  transform="rotate(0.000000,409.700000,60.000000)" style="stroke: black; stroke-width:0.25;"/>
<line x1="10.000000" y1="60.000000" x2="20.000000" y2="60.000000"  style="stroke:black; stroke-linecap:round; stroke-width:0.25;"/>
<line x1="20.000000" y1="60.000000" x2="24.000000" y2="60.000000"  style="stroke:black; stroke-linecap:round; stroke-width:0.25;"/>
<line x1="24.000000" y1="60.000000" x2="28.000000" y2="60.000000"  style="stroke:black; stroke-linecap:round; stroke-width:0.25;"/>
<line x1="28.000000" y1="24.000000" x2="36.000000" y2="24.000000"  style="stroke:black; stroke-linecap:round; stroke-width:0.25;"/>
<line x1="28.000000" y1="60.000000" x2="28.000000" y2="24.000000"  style="stroke:black; stroke-linecap:round; stroke-width:0.25;"/>
<line x1="28.000000" y1="60.000000" x2="28.000000" y2="60.000000"  style="stroke:black; stroke-linecap:round; stroke-width:0.25;"/>
<line x1="36.000000" y1="24.000000" x2="143.850000" y2="24.000000"  style="stroke:black; stroke-linecap:round; stroke-width:0.25;"/>
<line x1="143.850000" y1="24.000000" x2="251.700000" y2="24.000000"  style="stroke:black; stroke-linecap:round; stroke-width:0.25;"/>
<line x1="227.700000" y1="64.000000" x2="231.700000" y2="64.000000"  style="stroke:black; stroke-linecap:round; stroke-width:0.25;"/>
<line x1="231.700000" y1="64.000000" x2="241.700000" y2="64.000000"  style="stroke:black; stroke-linecap:round; stroke-width:0.25;"/>
<line x1="241.700000" y1="64.000000" x2="251.700000" y2="64.000000"  style="stroke:black; stroke-linecap:round; stroke-width:0.25;"/>
<line x1="251.700000" y1="24.000000" x2="259.700000" y2="24.000000"  style="stroke:black; stroke-linecap:round; stroke-width:0.25;"/>
<line x1="251.700000" y1="64.000000" x2="259.700000" y2="64.000000"  style="stroke:black; stroke-linecap:round; stroke-width:0.25;"/>
<line x1="259.700000" y1="24.000000" x2="259.700000" y2="56.000000"  style="stroke:black; stroke-linecap:round; stroke-width:0.25;"/>
<line x1="259.700000" y1="56.000000" x2="259.700000" y2="56.000000"  style="stroke:black; stroke-linecap:round; stroke-width:0.25;"/>
<line x1="259.700000" y1="56.000000" x2="263.700000" y2="56.000000"  style="stroke:black; stroke-linecap:round; stroke-width:0.25;"/>
<line x1="259.700000" y1="64.000000" x2="263.700000" y2="64.000000"  style="stroke:black; stroke-linecap:round; stroke-width:0.25;"/>
<line x1="287.700000" y1="60.000000" x2="291.700000" y2="60.000000"  style="stroke:black; stroke-linecap:round; stroke-width:0.25;"/>
<line x1="291.700000" y1="34.000000" x2="299.700000" y2="34.000000"  style="stroke:black; stroke-linecap:round; stroke-width:0.25;"/>
<line x1="291.700000" y1="60.000000" x2="291.700000" y2="34.000000"  style="stroke:black; stroke-linecap:round; stroke-width:0.25;"/>
<line x1="291.700000" y1="60.000000" x2="291.700000" y2="60.000000"  style="stroke:black; stroke-linecap:round; stroke-width:0.25;"/>
<line x1="299.700000" y1="34.000000" x2="325.700000" y2="34.000000"  style="stroke:black; stroke-linecap:round; stroke-width:0.25;"/>
<line x1="325.700000" y1="34.000000" x2="351.700000" y2="34.000000"  style="stroke:black; stroke-linecap:round; stroke-width:0.25;"/>
<line x1="337.700000" y1="64.000000" x2="341.700000" y2="64.000000"  style="stroke:black; stroke-linecap:round; stroke-width:0.25;"/>
<line x1="341.700000" y1="64.000000" x2="351.700000" y2="64.000000"  style="stroke:black; stroke-linecap:round; stroke-width:0.25;"/>
<line x1="351.700000" y1="34.000000" x2="359.700000" y2="34.000000"  style="stroke:black; stroke-linecap:round; stroke-width:0.25;"/>
<line x1="351.700000" y1="64.000000" x2="359.700000" y2="64.000000"  style="stroke:black; stroke-linecap:round; stroke-width:0.25;"/>
<line x1="359.700000" y1="34.000000" x2="359.700000" y2="56.000000"  style="stroke:black; stroke-linecap:round; stroke-width:0.25;"/>
<line x1="359.700000" y1="56.000000" x2="359.700000" y2="56.000000"  style="stroke:black; stroke-linecap:round; stroke-width:0.25;"/>
<line x1="359.700000" y1="56.000000" x2="363.700000" y2="56.000000"  style="stroke:black; stroke-linecap:round; stroke-width:0.25;"/>
<line x1="359.700000" y1="64.000000" x2="363.700000" y2="64.000000"  style="stroke:black; stroke-linecap:round; stroke-width:0.25;"/>
<line x1="387.700000" y1="60.000000" x2="391.700000" y2="60.000000"  style="stroke:black; stroke-linecap:round; stroke-width:0.25;"/>
<line x1="391.700000" y1="60.000000" x2="391.700000" y2="60.000000"  style="stroke:black; stroke-linecap:round; stroke-width:0.25;"/>
<line x1="391.700000" y1="60.000000" x2="395.700000" y2="60.000000"  style="stroke:black; stroke-linecap:round; stroke-width:0.25;"/>
<line x1="395.700000" y1="60.000000" x2="399.700000" y2="60.000000"  style="stroke:black; stroke-linecap:round; stroke-width:0.25;"/>
<line x1="399.700000" y1="60.000000" x2="409.700000" y2="60.000000"  style="stroke:black; stroke-linecap:round; stroke-width:0.25;"/>
</svg>
