<?xml version="1.0"?>
<svg xmlns="http://www.w3.org/2000/svg" xmlns:xlink="http://www.w3.org/1999/xlink" viewBox="0 0 468.200000 292.000000" width="234.100000mm" height="146.000000mm" version="1.1">
<a xlink:href="filt-0x7fb3b9d38960.svg">
<rect x="1.000000" y="1.000000" width="467.200000" height="291.000000" rx="0" ry="0" style="stroke:none;fill:#cccccc;"/>
<rect x="0.000000" y="0.000000" width="467.200000" height="291.000000" rx="0" ry="0" style="stroke:none;fill:#ffffff;"/>
</a>
<text x="10.000000" y="7.000000" font-family="Arial" font-size="7"></text>
<rect x="159.100000" y="35.000000" width="24.000000" height="24.000000" rx="0" ry="0" style="stroke:none;fill:#cccccc;"/>
<rect x="158.100000" y="34.000000" width="24.000000" height="24.000000" rx="0" ry="0" style="stroke:none;fill:#f44800;"/>
<text x="170.100000" y="48.000000" font-family="Arial" font-size="7" text-anchor="middle" fill="#FFFFFF">0</text>
<circle cx="160.100000" cy="36.000000" r="1"/>
<line x1="149.100000" y1="25.000000" x2="149.100000" y2="67.000000"  style="stroke: black; stroke-linecap:round; stroke-width:0.25; stroke-dasharray:3,3;"/>
<line x1="149.100000" y1="67.000000" x2="191.100000" y2="67.000000"  style="stroke: black; stroke-linecap:round; stroke-width:0.25; stroke-dasharray:3,3;"/>
<line x1="191.100000" y1="67.000000" x2="191.100000" y2="25.000000"  style="stroke: black; stroke-linecap:round; stroke-width:0.25; stroke-dasharray:3,3;"/>
<line x1="149.100000" y1="25.000000" x2="154.100000" y2="25.000000"  style="stroke: black; stroke-linecap:round; stroke-width:0.25; stroke-dasharray:3,3;"/>
<line x1="167.000000" y1="25.000000" x2="191.100000" y2="25.000000"  style="stroke: black; stroke-linecap:round; stroke-width:0.25; stroke-dasharray:3,3;"/>
<text x="154.100000" y="27.000000" font-family="Arial" font-size="7">b2</text>
<rect x="35.000000" y="87.000000" width="232.200000" height="24.000000" rx="0" ry="0" style="stroke:none;fill:#cccccc;"/>
<rect x="34.000000" y="86.000000" width="232.200000" height="24.000000" rx="0" ry="0" style="stroke:none;fill:#477881;"/>
<text x="150.100000" y="100.000000" font-family="Arial" font-size="7" text-anchor="middle" fill="#FFFFFF">hslider(gn, 0.0f, 0.0f, 2.0f, 1.0000000000000001e-05f)</text>
<circle cx="36.000000" cy="88.000000" r="1"/>
<line x1="25.000000" y1="77.000000" x2="25.000000" y2="119.000000"  style="stroke: black; stroke-linecap:round; stroke-width:0.25; stroke-dasharray:3,3;"/>
<line x1="25.000000" y1="119.000000" x2="275.200000" y2="119.000000"  style="stroke: black; stroke-linecap:round; stroke-width:0.25; stroke-dasharray:3,3;"/>
<line x1="275.200000" y1="119.000000" x2="275.200000" y2="77.000000"  style="stroke: black; stroke-linecap:round; stroke-width:0.25; stroke-dasharray:3,3;"/>
<line x1="25.000000" y1="77.000000" x2="30.000000" y2="77.000000"  style="stroke: black; stroke-linecap:round; stroke-width:0.25; stroke-dasharray:3,3;"/>
<line x1="42.900000" y1="77.000000" x2="275.200000" y2="77.000000"  style="stroke: black; stroke-linecap:round; stroke-width:0.25; stroke-dasharray:3,3;"/>
<text x="30.000000" y="79.000000" font-family="Arial" font-size="7">b1</text>
<a xlink:href="c-0x7fb3b9e4d440.svg">
<rect x="139.100000" y="129.000000" width="24.000000" height="24.000000" rx="0" ry="0" style="stroke:none;fill:#cccccc;"/>
<rect x="138.100000" y="128.000000" width="24.000000" height="24.000000" rx="0" ry="0" style="stroke:none;fill:#003366;"/>
</a>
<a xlink:href="c-0x7fb3b9e4d440.svg">
<text x="150.100000" y="142.000000" font-family="Arial" font-size="7" text-anchor="middle" fill="#FFFFFF">c</text>
</a>
<circle cx="140.100000" cy="130.000000" r="1"/>
<rect x="293.200000" y="103.000000" width="24.000000" height="24.000000" rx="0" ry="0" style="stroke:none;fill:#cccccc;"/>
<rect x="292.200000" y="102.000000" width="24.000000" height="24.000000" rx="0" ry="0" style="stroke:none;fill:#4B71A1;"/>
<text x="304.200000" y="116.000000" font-family="Arial" font-size="7" text-anchor="middle" fill="#FFFFFF">*</text>
<circle cx="294.200000" cy="104.000000" r="1"/>
<line x1="289.200000" y1="109.000000" x2="292.200000" y2="110.000000"  transform="rotate(0.000000,292.200000,110.000000)" style="stroke: black; stroke-width:0.25;"/>
<line x1="289.200000" y1="111.000000" x2="292.200000" y2="110.000000"  transform="rotate(0.000000,292.200000,110.000000)" style="stroke: black; stroke-width:0.25;"/>
<line x1="289.200000" y1="117.000000" x2="292.200000" y2="118.000000"  transform="rotate(0.000000,292.200000,118.000000)" style="stroke: black; stroke-width:0.25;"/>
<line x1="289.200000" y1="119.000000" x2="292.200000" y2="118.000000"  transform="rotate(0.000000,292.200000,118.000000)" style="stroke: black; stroke-width:0.25;"/>
<rect x="333.200000" y="77.000000" width="24.000000" height="24.000000" rx="0" ry="0" style="stroke:none;fill:#cccccc;"/>
<rect x="332.200000" y="76.000000" width="24.000000" height="24.000000" rx="0" ry="0" style="stroke:none;fill:#4B71A1;"/>
<text x="344.200000" y="90.000000" font-family="Arial" font-size="7" text-anchor="middle" fill="#FFFFFF">-</text>
<circle cx="334.200000" cy="78.000000" r="1"/>
<line x1="329.200000" y1="83.000000" x2="332.200000" y2="84.000000"  transform="rotate(0.000000,332.200000,84.000000)" style="stroke: black; stroke-width:0.25;"/>
<line x1="329.200000" y1="85.000000" x2="332.200000" y2="84.000000"  transform="rotate(0.000000,332.200000,84.000000)" style="stroke: black; stroke-width:0.25;"/>
<line x1="329.200000" y1="91.000000" x2="332.200000" y2="92.000000"  transform="rotate(0.000000,332.200000,92.000000)" style="stroke: black; stroke-width:0.25;"/>
<line x1="329.200000" y1="93.000000" x2="332.200000" y2="92.000000"  transform="rotate(0.000000,332.200000,92.000000)" style="stroke: black; stroke-width:0.25;"/>
<rect x="159.100000" y="171.000000" width="24.000000" height="24.000000" rx="0" ry="0" style="stroke:none;fill:#cccccc;"/>
<rect x="158.100000" y="170.000000" width="24.000000" height="24.000000" rx="0" ry="0" style="stroke:none;fill:#f44800;"/>
<text x="170.100000" y="184.000000" font-family="Arial" font-size="7" text-anchor="middle" fill="#FFFFFF">0</text>
<circle cx="160.100000" cy="172.000000" r="1"/>
<line x1="149.100000" y1="161.000000" x2="149.100000" y2="203.000000"  style="stroke: black; stroke-linecap:round; stroke-width:0.25; stroke-dasharray:3,3;"/>
<line x1="149.100000" y1="203.000000" x2="191.100000" y2="203.000000"  style="stroke: black; stroke-linecap:round; stroke-width:0.25; stroke-dasharray:3,3;"/>
<line x1="191.100000" y1="203.000000" x2="191.100000" y2="161.000000"  style="stroke: black; stroke-linecap:round; stroke-width:0.25; stroke-dasharray:3,3;"/>
<line x1="149.100000" y1="161.000000" x2="154.100000" y2="161.000000"  style="stroke: black; stroke-linecap:round; stroke-width:0.25; stroke-dasharray:3,3;"/>
<line x1="167.000000" y1="161.000000" x2="191.100000" y2="161.000000"  style="stroke: black; stroke-linecap:round; stroke-width:0.25; stroke-dasharray:3,3;"/>
<text x="154.100000" y="163.000000" font-family="Arial" font-size="7">b2</text>
<a xlink:href="csq-0x7fb3b9c5acb0.svg">
<rect x="159.100000" y="213.000000" width="24.000000" height="24.000000" rx="0" ry="0" style="stroke:none;fill:#cccccc;"/>
<rect x="158.100000" y="212.000000" width="24.000000" height="24.000000" rx="0" ry="0" style="stroke:none;fill:#003366;"/>
</a>
<a xlink:href="csq-0x7fb3b9c5acb0.svg">
<text x="170.100000" y="226.000000" font-family="Arial" font-size="7" text-anchor="middle" fill="#FFFFFF">csq</text>
</a>
<circle cx="160.100000" cy="214.000000" r="1"/>
<rect x="209.100000" y="187.000000" width="24.000000" height="24.000000" rx="0" ry="0" style="stroke:none;fill:#cccccc;"/>
<rect x="208.100000" y="186.000000" width="24.000000" height="24.000000" rx="0" ry="0" style="stroke:none;fill:#4B71A1;"/>
<text x="220.100000" y="200.000000" font-family="Arial" font-size="7" text-anchor="middle" fill="#FFFFFF">*</text>
<circle cx="210.100000" cy="188.000000" r="1"/>
<line x1="205.100000" y1="193.000000" x2="208.100000" y2="194.000000"  transform="rotate(0.000000,208.100000,194.000000)" style="stroke: black; stroke-width:0.25;"/>
<line x1="205.100000" y1="195.000000" x2="208.100000" y2="194.000000"  transform="rotate(0.000000,208.100000,194.000000)" style="stroke: black; stroke-width:0.25;"/>
<line x1="205.100000" y1="201.000000" x2="208.100000" y2="202.000000"  transform="rotate(0.000000,208.100000,202.000000)" style="stroke: black; stroke-width:0.25;"/>
<line x1="205.100000" y1="203.000000" x2="208.100000" y2="202.000000"  transform="rotate(0.000000,208.100000,202.000000)" style="stroke: black; stroke-width:0.25;"/>
<rect x="373.200000" y="119.000000" width="24.000000" height="24.000000" rx="0" ry="0" style="stroke:none;fill:#cccccc;"/>
<rect x="372.200000" y="118.000000" width="24.000000" height="24.000000" rx="0" ry="0" style="stroke:none;fill:#4B71A1;"/>
<text x="384.200000" y="132.000000" font-family="Arial" font-size="7" text-anchor="middle" fill="#FFFFFF">+</text>
<circle cx="374.200000" cy="120.000000" r="1"/>
<line x1="369.200000" y1="125.000000" x2="372.200000" y2="126.000000"  transform="rotate(0.000000,372.200000,126.000000)" style="stroke: black; stroke-width:0.25;"/>
<line x1="369.200000" y1="127.000000" x2="372.200000" y2="126.000000"  transform="rotate(0.000000,372.200000,126.000000)" style="stroke: black; stroke-width:0.25;"/>
<line x1="369.200000" y1="133.000000" x2="372.200000" y2="134.000000"  transform="rotate(0.000000,372.200000,134.000000)" style="stroke: black; stroke-width:0.25;"/>
<line x1="369.200000" y1="135.000000" x2="372.200000" y2="134.000000"  transform="rotate(0.000000,372.200000,134.000000)" style="stroke: black; stroke-width:0.25;"/>
<a xlink:href="d-0x7fb3b9c5b750.svg">
<rect x="199.100000" y="245.000000" width="24.000000" height="24.000000" rx="0" ry="0" style="stroke:none;fill:#cccccc;"/>
<rect x="198.100000" y="244.000000" width="24.000000" height="24.000000" rx="0" ry="0" style="stroke:none;fill:#003366;"/>
</a>
<a xlink:href="d-0x7fb3b9c5b750.svg">
<text x="210.100000" y="258.000000" font-family="Arial" font-size="7" text-anchor="middle" fill="#FFFFFF">d</text>
</a>
<circle cx="200.100000" cy="246.000000" r="1"/>
<rect x="413.200000" y="135.000000" width="24.000000" height="24.000000" rx="0" ry="0" style="stroke:none;fill:#cccccc;"/>
<rect x="412.200000" y="134.000000" width="24.000000" height="24.000000" rx="0" ry="0" style="stroke:none;fill:#4B71A1;"/>
<text x="424.200000" y="148.000000" font-family="Arial" font-size="7" text-anchor="middle" fill="#FFFFFF">/</text>
<circle cx="414.200000" cy="136.000000" r="1"/>
<line x1="409.200000" y1="141.000000" x2="412.200000" y2="142.000000"  transform="rotate(0.000000,412.200000,142.000000)" style="stroke: black; stroke-width:0.25;"/>
<line x1="409.200000" y1="143.000000" x2="412.200000" y2="142.000000"  transform="rotate(0.000000,412.200000,142.000000)" style="stroke: black; stroke-width:0.25;"/>
<line x1="409.200000" y1="149.000000" x2="412.200000" y2="150.000000"  transform="rotate(0.000000,412.200000,150.000000)" style="stroke: black; stroke-width:0.25;"/>
<line x1="409.200000" y1="151.000000" x2="412.200000" y2="150.000000"  transform="rotate(0.000000,412.200000,150.000000)" style="stroke: black; stroke-width:0.25;"/>
<line x1="15.000000" y1="15.000000" x2="15.000000" y2="277.000000"  style="stroke: black; stroke-linecap:round; stroke-width:0.25; stroke-dasharray:3,3;"/>
<line x1="15.000000" y1="277.000000" x2="453.200000" y2="277.000000"  style="stroke: black; stroke-linecap:round; stroke-width:0.25; stroke-dasharray:3,3;"/>
<line x1="453.200000" y1="277.000000" x2="453.200000" y2="15.000000"  style="stroke: black; stroke-linecap:round; stroke-width:0.25; stroke-dasharray:3,3;"/>
<line x1="15.000000" y1="15.000000" x2="20.000000" y2="15.000000"  style="stroke: black; stroke-linecap:round; stroke-width:0.25; stroke-dasharray:3,3;"/>
<line x1="36.125000" y1="15.000000" x2="453.200000" y2="15.000000"  style="stroke: black; stroke-linecap:round; stroke-width:0.25; stroke-dasharray:3,3;"/>
<text x="20.000000" y="17.000000" font-family="Arial" font-size="7">b2d</text>
<line x1="455.200000" y1="145.000000" x2="458.200000" y2="146.000000"  transform="rotate(0.000000,458.200000,146.000000)" style="stroke: black; stroke-width:0.25;"/>
<line x1="455.200000" y1="147.000000" x2="458.200000" y2="146.000000"  transform="rotate(0.000000,458.200000,146.000000)" style="stroke: black; stroke-width:0.25;"/>
<line x1="162.100000" y1="140.000000" x2="166.100000" y2="140.000000"  style="stroke:black; stroke-linecap:round; stroke-width:0.25;"/>
<line x1="166.100000" y1="140.000000" x2="280.200000" y2="140.000000"  style="stroke:black; stroke-linecap:round; stroke-width:0.25;"/>
<line x1="182.100000" y1="46.000000" x2="186.100000" y2="46.000000"  style="stroke:black; stroke-linecap:round; stroke-width:0.25;"/>
<line x1="182.100000" y1="182.000000" x2="186.100000" y2="182.000000"  style="stroke:black; stroke-linecap:round; stroke-width:0.25;"/>
<line x1="182.100000" y1="224.000000" x2="186.100000" y2="224.000000"  style="stroke:black; stroke-linecap:round; stroke-width:0.25;"/>
<line x1="186.100000" y1="46.000000" x2="196.100000" y2="46.000000"  style="stroke:black; stroke-linecap:round; stroke-width:0.25;"/>
<line x1="186.100000" y1="182.000000" x2="196.100000" y2="182.000000"  style="stroke:black; stroke-linecap:round; stroke-width:0.25;"/>
<line x1="186.100000" y1="224.000000" x2="196.100000" y2="224.000000"  style="stroke:black; stroke-linecap:round; stroke-width:0.25;"/>
<line x1="196.100000" y1="46.000000" x2="320.200000" y2="46.000000"  style="stroke:black; stroke-linecap:round; stroke-width:0.25;"/>
<line x1="196.100000" y1="182.000000" x2="204.100000" y2="182.000000"  style="stroke:black; stroke-linecap:round; stroke-width:0.25;"/>
<line x1="196.100000" y1="202.000000" x2="204.100000" y2="202.000000"  style="stroke:black; stroke-linecap:round; stroke-width:0.25;"/>
<line x1="196.100000" y1="224.000000" x2="196.100000" y2="202.000000"  style="stroke:black; stroke-linecap:round; stroke-width:0.25;"/>
<line x1="196.100000" y1="224.000000" x2="196.100000" y2="224.000000"  style="stroke:black; stroke-linecap:round; stroke-width:0.25;"/>
<line x1="204.100000" y1="182.000000" x2="204.100000" y2="194.000000"  style="stroke:black; stroke-linecap:round; stroke-width:0.25;"/>
<line x1="204.100000" y1="194.000000" x2="204.100000" y2="194.000000"  style="stroke:black; stroke-linecap:round; stroke-width:0.25;"/>
<line x1="204.100000" y1="194.000000" x2="208.100000" y2="194.000000"  style="stroke:black; stroke-linecap:round; stroke-width:0.25;"/>
<line x1="204.100000" y1="202.000000" x2="208.100000" y2="202.000000"  style="stroke:black; stroke-linecap:round; stroke-width:0.25;"/>
<line x1="222.100000" y1="256.000000" x2="226.100000" y2="256.000000"  style="stroke:black; stroke-linecap:round; stroke-width:0.25;"/>
<line x1="226.100000" y1="256.000000" x2="400.200000" y2="256.000000"  style="stroke:black; stroke-linecap:round; stroke-width:0.25;"/>
<line x1="232.100000" y1="198.000000" x2="236.100000" y2="198.000000"  style="stroke:black; stroke-linecap:round; stroke-width:0.25;"/>
<line x1="236.100000" y1="198.000000" x2="360.200000" y2="198.000000"  style="stroke:black; stroke-linecap:round; stroke-width:0.25;"/>
<line x1="266.200000" y1="98.000000" x2="270.200000" y2="98.000000"  style="stroke:black; stroke-linecap:round; stroke-width:0.25;"/>
<line x1="270.200000" y1="98.000000" x2="280.200000" y2="98.000000"  style="stroke:black; stroke-linecap:round; stroke-width:0.25;"/>
<line x1="280.200000" y1="98.000000" x2="288.200000" y2="98.000000"  style="stroke:black; stroke-linecap:round; stroke-width:0.25;"/>
<line x1="280.200000" y1="118.000000" x2="288.200000" y2="118.000000"  style="stroke:black; stroke-linecap:round; stroke-width:0.25;"/>
<line x1="280.200000" y1="140.000000" x2="280.200000" y2="118.000000"  style="stroke:black; stroke-linecap:round; stroke-width:0.25;"/>
<line x1="280.200000" y1="140.000000" x2="280.200000" y2="140.000000"  style="stroke:black; stroke-linecap:round; stroke-width:0.25;"/>
<line x1="288.200000" y1="98.000000" x2="288.200000" y2="110.000000"  style="stroke:black; stroke-linecap:round; stroke-width:0.25;"/>
<line x1="288.200000" y1="110.000000" x2="288.200000" y2="110.000000"  style="stroke:black; stroke-linecap:round; stroke-width:0.25;"/>
<line x1="288.200000" y1="110.000000" x2="292.200000" y2="110.000000"  style="stroke:black; stroke-linecap:round; stroke-width:0.25;"/>
<line x1="288.200000" y1="118.000000" x2="292.200000" y2="118.000000"  style="stroke:black; stroke-linecap:round; stroke-width:0.25;"/>
<line x1="316.200000" y1="114.000000" x2="320.200000" y2="114.000000"  style="stroke:black; stroke-linecap:round; stroke-width:0.25;"/>
<line x1="320.200000" y1="46.000000" x2="328.200000" y2="46.000000"  style="stroke:black; stroke-linecap:round; stroke-width:0.25;"/>
<line x1="320.200000" y1="92.000000" x2="328.200000" y2="92.000000"  style="stroke:black; stroke-linecap:round; stroke-width:0.25;"/>
<line x1="320.200000" y1="114.000000" x2="320.200000" y2="92.000000"  style="stroke:black; stroke-linecap:round; stroke-width:0.25;"/>
<line x1="320.200000" y1="114.000000" x2="320.200000" y2="114.000000"  style="stroke:black; stroke-linecap:round; stroke-width:0.25;"/>
<line x1="328.200000" y1="46.000000" x2="328.200000" y2="84.000000"  style="stroke:black; stroke-linecap:round; stroke-width:0.25;"/>
<line x1="328.200000" y1="84.000000" x2="328.200000" y2="84.000000"  style="stroke:black; stroke-linecap:round; stroke-width:0.25;"/>
<line x1="328.200000" y1="84.000000" x2="332.200000" y2="84.000000"  style="stroke:black; stroke-linecap:round; stroke-width:0.25;"/>
<line x1="328.200000" y1="92.000000" x2="332.200000" y2="92.000000"  style="stroke:black; stroke-linecap:round; stroke-width:0.25;"/>
<line x1="356.200000" y1="88.000000" x2="360.200000" y2="88.000000"  style="stroke:black; stroke-linecap:round; stroke-width:0.25;"/>
<line x1="360.200000" y1="88.000000" x2="368.200000" y2="88.000000"  style="stroke:black; stroke-linecap:round; stroke-width:0.25;"/>
<line x1="360.200000" y1="134.000000" x2="368.200000" y2="134.000000"  style="stroke:black; stroke-linecap:round; stroke-width:0.25;"/>
<line x1="360.200000" y1="198.000000" x2="360.200000" y2="134.000000"  style="stroke:black; stroke-linecap:round; stroke-width:0.25;"/>
<line x1="360.200000" y1="198.000000" x2="360.200000" y2="198.000000"  style="stroke:black; stroke-linecap:round; stroke-width:0.25;"/>
<line x1="368.200000" y1="88.000000" x2="368.200000" y2="126.000000"  style="stroke:black; stroke-linecap:round; stroke-width:0.25;"/>
<line x1="368.200000" y1="126.000000" x2="368.200000" y2="126.000000"  style="stroke:black; stroke-linecap:round; stroke-width:0.25;"/>
<line x1="368.200000" y1="126.000000" x2="372.200000" y2="126.000000"  style="stroke:black; stroke-linecap:round; stroke-width:0.25;"/>
<line x1="368.200000" y1="134.000000" x2="372.200000" y2="134.000000"  style="stroke:black; stroke-linecap:round; stroke-width:0.25;"/>
<line x1="396.200000" y1="130.000000" x2="400.200000" y2="130.000000"  style="stroke:black; stroke-linecap:round; stroke-width:0.25;"/>
<line x1="400.200000" y1="130.000000" x2="408.200000" y2="130.000000"  style="stroke:black; stroke-linecap:round; stroke-width:0.25;"/>
<line x1="400.200000" y1="150.000000" x2="408.200000" y2="150.000000"  style="stroke:black; stroke-linecap:round; stroke-width:0.25;"/>
<line x1="400.200000" y1="256.000000" x2="400.200000" y2="150.000000"  style="stroke:black; stroke-linecap:round; stroke-width:0.25;"/>
<line x1="400.200000" y1="256.000000" x2="400.200000" y2="256.000000"  style="stroke:black; stroke-linecap:round; stroke-width:0.25;"/>
<line x1="408.200000" y1="130.000000" x2="408.200000" y2="142.000000"  style="stroke:black; stroke-linecap:round; stroke-width:0.25;"/>
<line x1="408.200000" y1="142.000000" x2="408.200000" y2="142.000000"  style="stroke:black; stroke-linecap:round; stroke-width:0.25;"/>
<line x1="408.200000" y1="142.000000" x2="412.200000" y2="142.000000"  style="stroke:black; stroke-linecap:round; stroke-width:0.25;"/>
<line x1="408.200000" y1="150.000000" x2="412.200000" y2="150.000000"  style="stroke:black; stroke-linecap:round; stroke-width:0.25;"/>
<line x1="436.200000" y1="146.000000" x2="440.200000" y2="146.000000"  style="stroke:black; stroke-linecap:round; stroke-width:0.25;"/>
<line x1="440.200000" y1="146.000000" x2="440.200000" y2="146.000000"  style="stroke:black; stroke-linecap:round; stroke-width:0.25;"/>
<line x1="440.200000" y1="146.000000" x2="444.200000" y2="146.000000"  style="stroke:black; stroke-linecap:round; stroke-width:0.25;"/>
<line x1="444.200000" y1="146.000000" x2="448.200000" y2="146.000000"  style="stroke:black; stroke-linecap:round; stroke-width:0.25;"/>
<line x1="448.200000" y1="146.000000" x2="458.200000" y2="146.000000"  style="stroke:black; stroke-linecap:round; stroke-width:0.25;"/>
</svg>
