<?xml version="1.0"?>
<svg xmlns="http://www.w3.org/2000/svg" xmlns:xlink="http://www.w3.org/1999/xlink" viewBox="0 0 358.400000 140.000000" width="179.200000mm" height="70.000000mm" version="1.1">
<a xlink:href="imp-0x7fb3bc21c1f0.svg">
<rect x="1.000000" y="1.000000" width="357.400000" height="139.000000" rx="0" ry="0" style="stroke:none;fill:#cccccc;"/>
<rect x="0.000000" y="0.000000" width="357.400000" height="139.000000" rx="0" ry="0" style="stroke:none;fill:#ffffff;"/>
</a>
<text x="10.000000" y="7.000000" font-family="Arial" font-size="7"></text>
<rect x="33.000000" y="93.000000" width="206.400000" height="24.000000" rx="0" ry="0" style="stroke:none;fill:#cccccc;"/>
<rect x="32.000000" y="92.000000" width="206.400000" height="24.000000" rx="0" ry="0" style="stroke:none;fill:#477881;"/>
<text x="135.200000" y="106.000000" font-family="Arial" font-size="7" text-anchor="middle" fill="#FFFFFF">hslider(tempo, 5000.0f, 500.0f, 10000.0f, 1.0f)</text>
<circle cx="34.000000" cy="94.000000" r="1"/>
<rect x="247.400000" y="93.000000" width="24.000000" height="24.000000" rx="0" ry="0" style="stroke:none;fill:#cccccc;"/>
<rect x="246.400000" y="92.000000" width="24.000000" height="24.000000" rx="0" ry="0" style="stroke:none;fill:#4B71A1;"/>
<text x="258.400000" y="106.000000" font-family="Arial" font-size="7" text-anchor="middle" fill="#FFFFFF">int</text>
<circle cx="248.400000" cy="94.000000" r="1"/>
<line x1="243.400000" y1="103.000000" x2="246.400000" y2="104.000000"  transform="rotate(0.000000,246.400000,104.000000)" style="stroke: black; stroke-width:0.25;"/>
<line x1="243.400000" y1="105.000000" x2="246.400000" y2="104.000000"  transform="rotate(0.000000,246.400000,104.000000)" style="stroke: black; stroke-width:0.25;"/>
<rect x="287.400000" y="89.000000" width="24.000000" height="24.000000" rx="0" ry="0" style="stroke:none;fill:#cccccc;"/>
<rect x="286.400000" y="88.000000" width="24.000000" height="24.000000" rx="0" ry="0" style="stroke:none;fill:#4B71A1;"/>
<text x="298.400000" y="102.000000" font-family="Arial" font-size="7" text-anchor="middle" fill="#FFFFFF">%</text>
<circle cx="288.400000" cy="90.000000" r="1"/>
<line x1="283.400000" y1="95.000000" x2="286.400000" y2="96.000000"  transform="rotate(0.000000,286.400000,96.000000)" style="stroke: black; stroke-width:0.25;"/>
<line x1="283.400000" y1="97.000000" x2="286.400000" y2="96.000000"  transform="rotate(0.000000,286.400000,96.000000)" style="stroke: black; stroke-width:0.25;"/>
<line x1="283.400000" y1="103.000000" x2="286.400000" y2="104.000000"  transform="rotate(0.000000,286.400000,104.000000)" style="stroke: black; stroke-width:0.25;"/>
<line x1="283.400000" y1="105.000000" x2="286.400000" y2="104.000000"  transform="rotate(0.000000,286.400000,104.000000)" style="stroke: black; stroke-width:0.25;"/>
<rect x="196.200000" y="35.000000" width="24.000000" height="24.000000" rx="0" ry="0" style="stroke:none;fill:#cccccc;"/>
<rect x="195.200000" y="34.000000" width="24.000000" height="24.000000" rx="0" ry="0" style="stroke:none;fill:#f44800;"/>
<text x="207.200000" y="48.000000" font-family="Arial" font-size="7" text-anchor="middle" fill="#FFFFFF">1</text>
<circle cx="217.200000" cy="56.000000" r="1"/>
<line x1="186.200000" y1="25.000000" x2="186.200000" y2="67.000000"  style="stroke: black; stroke-linecap:round; stroke-width:0.25; stroke-dasharray:3,3;"/>
<line x1="186.200000" y1="67.000000" x2="228.200000" y2="67.000000"  style="stroke: black; stroke-linecap:round; stroke-width:0.25; stroke-dasharray:3,3;"/>
<line x1="228.200000" y1="67.000000" x2="228.200000" y2="25.000000"  style="stroke: black; stroke-linecap:round; stroke-width:0.25; stroke-dasharray:3,3;"/>
<line x1="186.200000" y1="25.000000" x2="191.200000" y2="25.000000"  style="stroke: black; stroke-linecap:round; stroke-width:0.25; stroke-dasharray:3,3;"/>
<line x1="204.100000" y1="25.000000" x2="228.200000" y2="25.000000"  style="stroke: black; stroke-linecap:round; stroke-width:0.25; stroke-dasharray:3,3;"/>
<text x="191.200000" y="27.000000" font-family="Arial" font-size="7">a0</text>
<rect x="154.200000" y="35.000000" width="24.000000" height="24.000000" rx="0" ry="0" style="stroke:none;fill:#cccccc;"/>
<rect x="153.200000" y="34.000000" width="24.000000" height="24.000000" rx="0" ry="0" style="stroke:none;fill:#4B71A1;"/>
<text x="165.200000" y="48.000000" font-family="Arial" font-size="7" text-anchor="middle" fill="#FFFFFF">mem</text>
<circle cx="175.200000" cy="56.000000" r="1"/>
<line x1="180.200000" y1="45.000000" x2="177.200000" y2="46.000000"  transform="rotate(0.000000,177.200000,46.000000)" style="stroke: black; stroke-width:0.25;"/>
<line x1="180.200000" y1="47.000000" x2="177.200000" y2="46.000000"  transform="rotate(0.000000,177.200000,46.000000)" style="stroke: black; stroke-width:0.25;"/>
<rect x="114.200000" y="39.000000" width="24.000000" height="24.000000" rx="0" ry="0" style="stroke:none;fill:#cccccc;"/>
<rect x="113.200000" y="38.000000" width="24.000000" height="24.000000" rx="0" ry="0" style="stroke:none;fill:#4B71A1;"/>
<text x="125.200000" y="52.000000" font-family="Arial" font-size="7" text-anchor="middle" fill="#FFFFFF">+</text>
<circle cx="135.200000" cy="60.000000" r="1"/>
<line x1="140.200000" y1="53.000000" x2="137.200000" y2="54.000000"  transform="rotate(0.000000,137.200000,54.000000)" style="stroke: black; stroke-width:0.25;"/>
<line x1="140.200000" y1="55.000000" x2="137.200000" y2="54.000000"  transform="rotate(0.000000,137.200000,54.000000)" style="stroke: black; stroke-width:0.25;"/>
<line x1="140.200000" y1="45.000000" x2="137.200000" y2="46.000000"  transform="rotate(0.000000,137.200000,46.000000)" style="stroke: black; stroke-width:0.25;"/>
<line x1="140.200000" y1="47.000000" x2="137.200000" y2="46.000000"  transform="rotate(0.000000,137.200000,46.000000)" style="stroke: black; stroke-width:0.25;"/>
<line x1="312.400000" y1="100.000000" x2="312.400000" y2="96.000000"  style="stroke:black; stroke-linecap:round; stroke-width:0.25;"/>
<line x1="312.400000" y1="96.000000" x2="316.400000" y2="96.000000"  style="stroke:black; stroke-linecap:round; stroke-width:0.25;"/>
<line x1="316.400000" y1="96.000000" x2="316.400000" y2="100.000000"  style="stroke:black; stroke-linecap:round; stroke-width:0.25;"/>
<line x1="15.000000" y1="15.000000" x2="15.000000" y2="125.000000"  style="stroke: black; stroke-linecap:round; stroke-width:0.25; stroke-dasharray:3,3;"/>
<line x1="15.000000" y1="125.000000" x2="343.400000" y2="125.000000"  style="stroke: black; stroke-linecap:round; stroke-width:0.25; stroke-dasharray:3,3;"/>
<line x1="343.400000" y1="125.000000" x2="343.400000" y2="15.000000"  style="stroke: black; stroke-linecap:round; stroke-width:0.25; stroke-dasharray:3,3;"/>
<line x1="15.000000" y1="15.000000" x2="20.000000" y2="15.000000"  style="stroke: black; stroke-linecap:round; stroke-width:0.25; stroke-dasharray:3,3;"/>
<line x1="119.975000" y1="15.000000" x2="343.400000" y2="15.000000"  style="stroke: black; stroke-linecap:round; stroke-width:0.25; stroke-dasharray:3,3;"/>
<text x="20.000000" y="17.000000" font-family="Arial" font-size="7">period(hslide...00.0f, 1.0f))</text>
<line x1="345.400000" y1="69.000000" x2="348.400000" y2="70.000000"  transform="rotate(0.000000,348.400000,70.000000)" style="stroke: black; stroke-width:0.25;"/>
<line x1="345.400000" y1="71.000000" x2="348.400000" y2="70.000000"  transform="rotate(0.000000,348.400000,70.000000)" style="stroke: black; stroke-width:0.25;"/>
<line x1="28.000000" y1="50.000000" x2="28.000000" y2="50.000000"  style="stroke:black; stroke-linecap:round; stroke-width:0.25;"/>
<line x1="28.000000" y1="50.000000" x2="28.000000" y2="84.000000"  style="stroke:black; stroke-linecap:round; stroke-width:0.25;"/>
<line x1="28.000000" y1="84.000000" x2="28.000000" y2="84.000000"  style="stroke:black; stroke-linecap:round; stroke-width:0.25;"/>
<line x1="28.000000" y1="84.000000" x2="151.200000" y2="84.000000"  style="stroke:black; stroke-linecap:round; stroke-width:0.25;"/>
<line x1="109.200000" y1="50.000000" x2="28.000000" y2="50.000000"  style="stroke:black; stroke-linecap:round; stroke-width:0.25;"/>
<line x1="113.200000" y1="50.000000" x2="109.200000" y2="50.000000"  style="stroke:black; stroke-linecap:round; stroke-width:0.25;"/>
<line x1="141.200000" y1="46.000000" x2="137.200000" y2="46.000000"  style="stroke:black; stroke-linecap:round; stroke-width:0.25;"/>
<line x1="141.200000" y1="54.000000" x2="137.200000" y2="54.000000"  style="stroke:black; stroke-linecap:round; stroke-width:0.25;"/>
<line x1="141.200000" y1="54.000000" x2="141.200000" y2="54.000000"  style="stroke:black; stroke-linecap:round; stroke-width:0.25;"/>
<line x1="141.200000" y1="76.000000" x2="141.200000" y2="54.000000"  style="stroke:black; stroke-linecap:round; stroke-width:0.25;"/>
<line x1="149.200000" y1="46.000000" x2="141.200000" y2="46.000000"  style="stroke:black; stroke-linecap:round; stroke-width:0.25;"/>
<line x1="149.200000" y1="76.000000" x2="141.200000" y2="76.000000"  style="stroke:black; stroke-linecap:round; stroke-width:0.25;"/>
<line x1="151.200000" y1="84.000000" x2="274.400000" y2="84.000000"  style="stroke:black; stroke-linecap:round; stroke-width:0.25;"/>
<line x1="153.200000" y1="46.000000" x2="149.200000" y2="46.000000"  style="stroke:black; stroke-linecap:round; stroke-width:0.25;"/>
<line x1="181.200000" y1="46.000000" x2="177.200000" y2="46.000000"  style="stroke:black; stroke-linecap:round; stroke-width:0.25;"/>
<line x1="181.200000" y1="46.000000" x2="181.200000" y2="46.000000"  style="stroke:black; stroke-linecap:round; stroke-width:0.25;"/>
<line x1="191.200000" y1="46.000000" x2="181.200000" y2="46.000000"  style="stroke:black; stroke-linecap:round; stroke-width:0.25;"/>
<line x1="191.200000" y1="76.000000" x2="149.200000" y2="76.000000"  style="stroke:black; stroke-linecap:round; stroke-width:0.25;"/>
<line x1="195.200000" y1="46.000000" x2="191.200000" y2="46.000000"  style="stroke:black; stroke-linecap:round; stroke-width:0.25;"/>
<line x1="233.200000" y1="76.000000" x2="191.200000" y2="76.000000"  style="stroke:black; stroke-linecap:round; stroke-width:0.25;"/>
<line x1="238.400000" y1="104.000000" x2="242.400000" y2="104.000000"  style="stroke:black; stroke-linecap:round; stroke-width:0.25;"/>
<line x1="242.400000" y1="104.000000" x2="242.400000" y2="104.000000"  style="stroke:black; stroke-linecap:round; stroke-width:0.25;"/>
<line x1="242.400000" y1="104.000000" x2="246.400000" y2="104.000000"  style="stroke:black; stroke-linecap:round; stroke-width:0.25;"/>
<line x1="270.400000" y1="104.000000" x2="274.400000" y2="104.000000"  style="stroke:black; stroke-linecap:round; stroke-width:0.25;"/>
<line x1="274.400000" y1="84.000000" x2="282.400000" y2="84.000000"  style="stroke:black; stroke-linecap:round; stroke-width:0.25;"/>
<line x1="274.400000" y1="104.000000" x2="282.400000" y2="104.000000"  style="stroke:black; stroke-linecap:round; stroke-width:0.25;"/>
<line x1="282.400000" y1="84.000000" x2="282.400000" y2="96.000000"  style="stroke:black; stroke-linecap:round; stroke-width:0.25;"/>
<line x1="282.400000" y1="96.000000" x2="282.400000" y2="96.000000"  style="stroke:black; stroke-linecap:round; stroke-width:0.25;"/>
<line x1="282.400000" y1="96.000000" x2="286.400000" y2="96.000000"  style="stroke:black; stroke-linecap:round; stroke-width:0.25;"/>
<line x1="282.400000" y1="104.000000" x2="286.400000" y2="104.000000"  style="stroke:black; stroke-linecap:round; stroke-width:0.25;"/>
<line x1="310.400000" y1="100.000000" x2="314.400000" y2="100.000000"  style="stroke:black; stroke-linecap:round; stroke-width:0.25;"/>
<line x1="314.400000" y1="76.000000" x2="233.200000" y2="76.000000"  style="stroke:black; stroke-linecap:round; stroke-width:0.25;"/>
<line x1="314.400000" y1="76.000000" x2="314.400000" y2="76.000000"  style="stroke:black; stroke-linecap:round; stroke-width:0.25;"/>
<line x1="314.400000" y1="96.000000" x2="314.400000" y2="76.000000"  style="stroke:black; stroke-linecap:round; stroke-width:0.25;"/>
<line x1="314.400000" y1="100.000000" x2="316.400000" y2="100.000000"  style="stroke:black; stroke-linecap:round; stroke-width:0.25;"/>
<line x1="316.400000" y1="100.000000" x2="322.400000" y2="100.000000"  style="stroke:black; stroke-linecap:round; stroke-width:0.25;"/>
<line x1="322.400000" y1="70.000000" x2="330.400000" y2="70.000000"  style="stroke:black; stroke-linecap:round; stroke-width:0.25;"/>
<line x1="322.400000" y1="100.000000" x2="322.400000" y2="70.000000"  style="stroke:black; stroke-linecap:round; stroke-width:0.25;"/>
<line x1="322.400000" y1="100.000000" x2="322.400000" y2="100.000000"  style="stroke:black; stroke-linecap:round; stroke-width:0.25;"/>
<line x1="330.400000" y1="70.000000" x2="334.400000" y2="70.000000"  style="stroke:black; stroke-linecap:round; stroke-width:0.25;"/>
<line x1="334.400000" y1="70.000000" x2="338.400000" y2="70.000000"  style="stroke:black; stroke-linecap:round; stroke-width:0.25;"/>
<line x1="338.400000" y1="70.000000" x2="348.400000" y2="70.000000"  style="stroke:black; stroke-linecap:round; stroke-width:0.25;"/>
</svg>
