<?xml version="1.0"?>
<svg xmlns="http://www.w3.org/2000/svg" xmlns:xlink="http://www.w3.org/1999/xlink" viewBox="0 0 155.800000 112.000000" width="77.900000mm" height="56.000000mm" version="1.1">
<rect x="1.000000" y="1.000000" width="154.800000" height="111.000000" rx="0" ry="0" style="stroke:none;fill:#cccccc;"/>
<rect x="0.000000" y="0.000000" width="154.800000" height="111.000000" rx="0" ry="0" style="stroke:none;fill:#ffffff;"/>
<text x="10.000000" y="7.000000" font-family="Arial" font-size="7"></text>
<a xlink:href="n-0x7fb3b9d36ba0.svg">
<rect x="25.000000" y="25.000000" width="24.000000" height="64.000000" rx="0" ry="0" style="stroke:none;fill:#cccccc;"/>
<rect x="24.000000" y="24.000000" width="24.000000" height="64.000000" rx="0" ry="0" style="stroke:none;fill:#003366;"/>
</a>
<a xlink:href="n-0x7fb3b9d36ba0.svg">
<text x="36.000000" y="58.000000" font-family="Arial" font-size="7" text-anchor="middle" fill="#FFFFFF">n</text>
</a>
<circle cx="26.000000" cy="26.000000" r="1"/>
<a xlink:href="filt-0x7fb3b9d38960.svg">
<rect x="91.000000" y="29.000000" width="25.800000" height="24.000000" rx="0" ry="0" style="stroke:none;fill:#cccccc;"/>
<rect x="90.000000" y="28.000000" width="25.800000" height="24.000000" rx="0" ry="0" style="stroke:none;fill:#003366;"/>
</a>
<a xlink:href="filt-0x7fb3b9d38960.svg">
<text x="102.900000" y="42.000000" font-family="Arial" font-size="7" text-anchor="middle" fill="#FFFFFF">filt</text>
</a>
<circle cx="92.000000" cy="30.000000" r="1"/>
<line x1="87.000000" y1="39.000000" x2="90.000000" y2="40.000000"  transform="rotate(0.000000,90.000000,40.000000)" style="stroke: black; stroke-width:0.25;"/>
<line x1="87.000000" y1="41.000000" x2="90.000000" y2="40.000000"  transform="rotate(0.000000,90.000000,40.000000)" style="stroke: black; stroke-width:0.25;"/>
<a xlink:href="filt-0x7fb3b9d38960.svg">
<rect x="91.000000" y="61.000000" width="25.800000" height="24.000000" rx="0" ry="0" style="stroke:none;fill:#cccccc;"/>
<rect x="90.000000" y="60.000000" width="25.800000" height="24.000000" rx="0" ry="0" style="stroke:none;fill:#003366;"/>
</a>
<a xlink:href="filt-0x7fb3b9d38960.svg">
<text x="102.900000" y="74.000000" font-family="Arial" font-size="7" text-anchor="middle" fill="#FFFFFF">filt</text>
</a>
<circle cx="92.000000" cy="62.000000" r="1"/>
<line x1="87.000000" y1="71.000000" x2="90.000000" y2="72.000000"  transform="rotate(0.000000,90.000000,72.000000)" style="stroke: black; stroke-width:0.25;"/>
<line x1="87.000000" y1="73.000000" x2="90.000000" y2="72.000000"  transform="rotate(0.000000,90.000000,72.000000)" style="stroke: black; stroke-width:0.25;"/>
<line x1="15.000000" y1="15.000000" x2="15.000000" y2="97.000000"  style="stroke: black; stroke-linecap:round; stroke-width:0.25; stroke-dasharray:3,3;"/>
<line x1="15.000000" y1="97.000000" x2="140.800000" y2="97.000000"  style="stroke: black; stroke-linecap:round; stroke-width:0.25; stroke-dasharray:3,3;"/>
<line x1="140.800000" y1="97.000000" x2="140.800000" y2="15.000000"  style="stroke: black; stroke-linecap:round; stroke-width:0.25; stroke-dasharray:3,3;"/>
<line x1="15.000000" y1="15.000000" x2="20.000000" y2="15.000000"  style="stroke: black; stroke-linecap:round; stroke-width:0.25; stroke-dasharray:3,3;"/>
<line x1="49.025000" y1="15.000000" x2="140.800000" y2="15.000000"  style="stroke: black; stroke-linecap:round; stroke-width:0.25; stroke-dasharray:3,3;"/>
<text x="20.000000" y="17.000000" font-family="Arial" font-size="7">process</text>
<line x1="142.800000" y1="51.000000" x2="145.800000" y2="52.000000"  transform="rotate(0.000000,145.800000,52.000000)" style="stroke: black; stroke-width:0.25;"/>
<line x1="142.800000" y1="53.000000" x2="145.800000" y2="52.000000"  transform="rotate(0.000000,145.800000,52.000000)" style="stroke: black; stroke-width:0.25;"/>
<line x1="142.800000" y1="59.000000" x2="145.800000" y2="60.000000"  transform="rotate(0.000000,145.800000,60.000000)" style="stroke: black; stroke-width:0.25;"/>
<line x1="142.800000" y1="61.000000" x2="145.800000" y2="60.000000"  transform="rotate(0.000000,145.800000,60.000000)" style="stroke: black; stroke-width:0.25;"/>
<line x1="48.000000" y1="28.000000" x2="52.000000" y2="28.000000"  style="stroke:black; stroke-linecap:round; stroke-width:0.25;"/>
<line x1="48.000000" y1="36.000000" x2="52.000000" y2="36.000000"  style="stroke:black; stroke-linecap:round; stroke-width:0.25;"/>
<line x1="48.000000" y1="44.000000" x2="52.000000" y2="44.000000"  style="stroke:black; stroke-linecap:round; stroke-width:0.25;"/>
<line x1="48.000000" y1="52.000000" x2="52.000000" y2="52.000000"  style="stroke:black; stroke-linecap:round; stroke-width:0.25;"/>
<line x1="48.000000" y1="60.000000" x2="52.000000" y2="60.000000"  style="stroke:black; stroke-linecap:round; stroke-width:0.25;"/>
<line x1="48.000000" y1="68.000000" x2="52.000000" y2="68.000000"  style="stroke:black; stroke-linecap:round; stroke-width:0.25;"/>
<line x1="48.000000" y1="76.000000" x2="52.000000" y2="76.000000"  style="stroke:black; stroke-linecap:round; stroke-width:0.25;"/>
<line x1="48.000000" y1="84.000000" x2="52.000000" y2="84.000000"  style="stroke:black; stroke-linecap:round; stroke-width:0.25;"/>
<line x1="52.000000" y1="28.000000" x2="86.000000" y2="40.000000"  style="stroke:black; stroke-linecap:round; stroke-width:0.25;"/>
<line x1="52.000000" y1="36.000000" x2="86.000000" y2="72.000000"  style="stroke:black; stroke-linecap:round; stroke-width:0.25;"/>
<line x1="52.000000" y1="44.000000" x2="86.000000" y2="40.000000"  style="stroke:black; stroke-linecap:round; stroke-width:0.25;"/>
<line x1="52.000000" y1="52.000000" x2="86.000000" y2="72.000000"  style="stroke:black; stroke-linecap:round; stroke-width:0.25;"/>
<line x1="52.000000" y1="60.000000" x2="86.000000" y2="40.000000"  style="stroke:black; stroke-linecap:round; stroke-width:0.25;"/>
<line x1="52.000000" y1="68.000000" x2="86.000000" y2="72.000000"  style="stroke:black; stroke-linecap:round; stroke-width:0.25;"/>
<line x1="52.000000" y1="76.000000" x2="86.000000" y2="40.000000"  style="stroke:black; stroke-linecap:round; stroke-width:0.25;"/>
<line x1="52.000000" y1="84.000000" x2="86.000000" y2="72.000000"  style="stroke:black; stroke-linecap:round; stroke-width:0.25;"/>
<line x1="86.000000" y1="40.000000" x2="90.000000" y2="40.000000"  style="stroke:black; stroke-linecap:round; stroke-width:0.25;"/>
<line x1="86.000000" y1="72.000000" x2="90.000000" y2="72.000000"  style="stroke:black; stroke-linecap:round; stroke-width:0.25;"/>
<line x1="115.800000" y1="40.000000" x2="119.800000" y2="40.000000"  style="stroke:black; stroke-linecap:round; stroke-width:0.25;"/>
<line x1="115.800000" y1="72.000000" x2="119.800000" y2="72.000000"  style="stroke:black; stroke-linecap:round; stroke-width:0.25;"/>
<line x1="119.800000" y1="40.000000" x2="127.800000" y2="40.000000"  style="stroke:black; stroke-linecap:round; stroke-width:0.25;"/>
<line x1="119.800000" y1="60.000000" x2="127.800000" y2="60.000000"  style="stroke:black; stroke-linecap:round; stroke-width:0.25;"/>
<line x1="119.800000" y1="72.000000" x2="119.800000" y2="60.000000"  style="stroke:black; stroke-linecap:round; stroke-width:0.25;"/>
<line x1="119.800000" y1="72.000000" x2="119.800000" y2="72.000000"  style="stroke:black; stroke-linecap:round; stroke-width:0.25;"/>
<line x1="127.800000" y1="40.000000" x2="127.800000" y2="52.000000"  style="stroke:black; stroke-linecap:round; stroke-width:0.25;"/>
<line x1="127.800000" y1="52.000000" x2="127.800000" y2="52.000000"  style="stroke:black; stroke-linecap:round; stroke-width:0.25;"/>
<line x1="127.800000" y1="52.000000" x2="131.800000" y2="52.000000"  style="stroke:black; stroke-linecap:round; stroke-width:0.25;"/>
<line x1="127.800000" y1="60.000000" x2="131.800000" y2="60.000000"  style="stroke:black; stroke-linecap:round; stroke-width:0.25;"/>
<line x1="131.800000" y1="52.000000" x2="135.800000" y2="52.000000"  style="stroke:black; stroke-linecap:round; stroke-width:0.25;"/>
<line x1="131.800000" y1="60.000000" x2="135.800000" y2="60.000000"  style="stroke:black; stroke-linecap:round; stroke-width:0.25;"/>
<line x1="135.800000" y1="52.000000" x2="145.800000" y2="52.000000"  style="stroke:black; stroke-linecap:round; stroke-width:0.25;"/>
<line x1="135.800000" y1="60.000000" x2="145.800000" y2="60.000000"  style="stroke:black; stroke-linecap:round; stroke-width:0.25;"/>
</svg>
