<?xml version="1.0"?>
<svg xmlns="http://www.w3.org/2000/svg" xmlns:xlink="http://www.w3.org/1999/xlink" viewBox="0 0 528.400000 72.000000" width="264.200000mm" height="36.000000mm" version="1.1">
<a xlink:href="attTime-0x7f85c8ccddd0.svg">
<rect x="1.000000" y="1.000000" width="527.400000" height="71.000000" rx="0" ry="0" style="stroke:none;fill:#cccccc;"/>
<rect x="0.000000" y="0.000000" width="527.400000" height="71.000000" rx="0" ry="0" style="stroke:none;fill:#ffffff;"/>
</a>
<text x="10.000000" y="7.000000" font-family="Arial" font-size="7"></text>
<rect x="25.000000" y="25.000000" width="335.400000" height="24.000000" rx="0" ry="0" style="stroke:none;fill:#cccccc;"/>
<rect x="24.000000" y="24.000000" width="335.400000" height="24.000000" rx="0" ry="0" style="stroke:none;fill:#477881;"/>
<text x="191.700000" y="38.000000" font-family="Arial" font-size="7" text-anchor="middle" fill="#FFFFFF">hslider(attack, 1e-08f, 0.0f, 0.10000000000000001f, 1.0000000000000001e-09f)</text>
<circle cx="26.000000" cy="26.000000" r="1"/>
<a xlink:href="smooth-0x7f85c8cba180.svg">
<rect x="368.400000" y="25.000000" width="129.000000" height="24.000000" rx="0" ry="0" style="stroke:none;fill:#cccccc;"/>
<rect x="367.400000" y="24.000000" width="129.000000" height="24.000000" rx="0" ry="0" style="stroke:none;fill:#003366;"/>
</a>
<a xlink:href="smooth-0x7f85c8cba180.svg">
<text x="431.900000" y="38.000000" font-family="Arial" font-size="7" text-anchor="middle" fill="#FFFFFF">smooth(0.10000000000000001f)</text>
</a>
<circle cx="369.400000" cy="26.000000" r="1"/>
<line x1="364.400000" y1="35.000000" x2="367.400000" y2="36.000000"  transform="rotate(0.000000,367.400000,36.000000)" style="stroke: black; stroke-width:0.25;"/>
<line x1="364.400000" y1="37.000000" x2="367.400000" y2="36.000000"  transform="rotate(0.000000,367.400000,36.000000)" style="stroke: black; stroke-width:0.25;"/>
<line x1="15.000000" y1="15.000000" x2="15.000000" y2="57.000000"  style="stroke: black; stroke-linecap:round; stroke-width:0.25; stroke-dasharray:3,3;"/>
<line x1="15.000000" y1="57.000000" x2="513.400000" y2="57.000000"  style="stroke: black; stroke-linecap:round; stroke-width:0.25; stroke-dasharray:3,3;"/>
<line x1="513.400000" y1="57.000000" x2="513.400000" y2="15.000000"  style="stroke: black; stroke-linecap:round; stroke-width:0.25; stroke-dasharray:3,3;"/>
<line x1="15.000000" y1="15.000000" x2="20.000000" y2="15.000000"  style="stroke: black; stroke-linecap:round; stroke-width:0.25; stroke-dasharray:3,3;"/>
<line x1="45.800000" y1="15.000000" x2="513.400000" y2="15.000000"  style="stroke: black; stroke-linecap:round; stroke-width:0.25; stroke-dasharray:3,3;"/>
<text x="20.000000" y="17.000000" font-family="Arial" font-size="7">attack</text>
<line x1="515.400000" y1="35.000000" x2="518.400000" y2="36.000000"  transform="rotate(0.000000,518.400000,36.000000)" style="stroke: black; stroke-width:0.25;"/>
<line x1="515.400000" y1="37.000000" x2="518.400000" y2="36.000000"  transform="rotate(0.000000,518.400000,36.000000)" style="stroke: black; stroke-width:0.25;"/>
<line x1="359.400000" y1="36.000000" x2="363.400000" y2="36.000000"  style="stroke:black; stroke-linecap:round; stroke-width:0.25;"/>
<line x1="363.400000" y1="36.000000" x2="363.400000" y2="36.000000"  style="stroke:black; stroke-linecap:round; stroke-width:0.25;"/>
<line x1="363.400000" y1="36.000000" x2="367.400000" y2="36.000000"  style="stroke:black; stroke-linecap:round; stroke-width:0.25;"/>
<line x1="496.400000" y1="36.000000" x2="500.400000" y2="36.000000"  style="stroke:black; stroke-linecap:round; stroke-width:0.25;"/>
<line x1="500.400000" y1="36.000000" x2="500.400000" y2="36.000000"  style="stroke:black; stroke-linecap:round; stroke-width:0.25;"/>
<line x1="500.400000" y1="36.000000" x2="504.400000" y2="36.000000"  style="stroke:black; stroke-linecap:round; stroke-width:0.25;"/>
<line x1="504.400000" y1="36.000000" x2="508.400000" y2="36.000000"  style="stroke:black; stroke-linecap:round; stroke-width:0.25;"/>
<line x1="508.400000" y1="36.000000" x2="518.400000" y2="36.000000"  style="stroke:black; stroke-linecap:round; stroke-width:0.25;"/>
</svg>
