<?xml version="1.0"?>
<svg xmlns="http://www.w3.org/2000/svg" xmlns:xlink="http://www.w3.org/1999/xlink" viewBox="0 0 580.000000 72.000000" width="290.000000mm" height="36.000000mm" version="1.1">
<a xlink:href="relTime-0x7f85c8ccf0a0.svg">
<rect x="1.000000" y="1.000000" width="579.000000" height="71.000000" rx="0" ry="0" style="stroke:none;fill:#cccccc;"/>
<rect x="0.000000" y="0.000000" width="579.000000" height="71.000000" rx="0" ry="0" style="stroke:none;fill:#ffffff;"/>
</a>
<text x="10.000000" y="7.000000" font-family="Arial" font-size="7"></text>
<rect x="25.000000" y="25.000000" width="387.000000" height="24.000000" rx="0" ry="0" style="stroke:none;fill:#cccccc;"/>
<rect x="24.000000" y="24.000000" width="387.000000" height="24.000000" rx="0" ry="0" style="stroke:none;fill:#477881;"/>
<text x="217.500000" y="38.000000" font-family="Arial" font-size="7" text-anchor="middle" fill="#FFFFFF">hslider(rel, 0.10000000000000001f, 9.9999999999999995e-08f, 0.5f, 9.9999999999999995e-08f)</text>
<circle cx="26.000000" cy="26.000000" r="1"/>
<a xlink:href="smooth-0x7f85c8cb7570.svg">
<rect x="420.000000" y="25.000000" width="129.000000" height="24.000000" rx="0" ry="0" style="stroke:none;fill:#cccccc;"/>
<rect x="419.000000" y="24.000000" width="129.000000" height="24.000000" rx="0" ry="0" style="stroke:none;fill:#003366;"/>
</a>
<a xlink:href="smooth-0x7f85c8cb7570.svg">
<text x="483.500000" y="38.000000" font-family="Arial" font-size="7" text-anchor="middle" fill="#FFFFFF">smooth(0.20000000000000001f)</text>
</a>
<circle cx="421.000000" cy="26.000000" r="1"/>
<line x1="416.000000" y1="35.000000" x2="419.000000" y2="36.000000"  transform="rotate(0.000000,419.000000,36.000000)" style="stroke: black; stroke-width:0.25;"/>
<line x1="416.000000" y1="37.000000" x2="419.000000" y2="36.000000"  transform="rotate(0.000000,419.000000,36.000000)" style="stroke: black; stroke-width:0.25;"/>
<line x1="15.000000" y1="15.000000" x2="15.000000" y2="57.000000"  style="stroke: black; stroke-linecap:round; stroke-width:0.25; stroke-dasharray:3,3;"/>
<line x1="15.000000" y1="57.000000" x2="565.000000" y2="57.000000"  style="stroke: black; stroke-linecap:round; stroke-width:0.25; stroke-dasharray:3,3;"/>
<line x1="565.000000" y1="57.000000" x2="565.000000" y2="15.000000"  style="stroke: black; stroke-linecap:round; stroke-width:0.25; stroke-dasharray:3,3;"/>
<line x1="15.000000" y1="15.000000" x2="20.000000" y2="15.000000"  style="stroke: black; stroke-linecap:round; stroke-width:0.25; stroke-dasharray:3,3;"/>
<line x1="36.125000" y1="15.000000" x2="565.000000" y2="15.000000"  style="stroke: black; stroke-linecap:round; stroke-width:0.25; stroke-dasharray:3,3;"/>
<text x="20.000000" y="17.000000" font-family="Arial" font-size="7">rel</text>
<line x1="567.000000" y1="35.000000" x2="570.000000" y2="36.000000"  transform="rotate(0.000000,570.000000,36.000000)" style="stroke: black; stroke-width:0.25;"/>
<line x1="567.000000" y1="37.000000" x2="570.000000" y2="36.000000"  transform="rotate(0.000000,570.000000,36.000000)" style="stroke: black; stroke-width:0.25;"/>
<line x1="411.000000" y1="36.000000" x2="415.000000" y2="36.000000"  style="stroke:black; stroke-linecap:round; stroke-width:0.25;"/>
<line x1="415.000000" y1="36.000000" x2="415.000000" y2="36.000000"  style="stroke:black; stroke-linecap:round; stroke-width:0.25;"/>
<line x1="415.000000" y1="36.000000" x2="419.000000" y2="36.000000"  style="stroke:black; stroke-linecap:round; stroke-width:0.25;"/>
<line x1="548.000000" y1="36.000000" x2="552.000000" y2="36.000000"  style="stroke:black; stroke-linecap:round; stroke-width:0.25;"/>
<line x1="552.000000" y1="36.000000" x2="552.000000" y2="36.000000"  style="stroke:black; stroke-linecap:round; stroke-width:0.25;"/>
<line x1="552.000000" y1="36.000000" x2="556.000000" y2="36.000000"  style="stroke:black; stroke-linecap:round; stroke-width:0.25;"/>
<line x1="556.000000" y1="36.000000" x2="560.000000" y2="36.000000"  style="stroke:black; stroke-linecap:round; stroke-width:0.25;"/>
<line x1="560.000000" y1="36.000000" x2="570.000000" y2="36.000000"  style="stroke:black; stroke-linecap:round; stroke-width:0.25;"/>
</svg>
