<?xml version="1.0"?>
<svg xmlns="http://www.w3.org/2000/svg" xmlns:xlink="http://www.w3.org/1999/xlink" viewBox="0 0 658.100000 144.000000" width="329.050000mm" height="72.000000mm" version="1.1">
<a xlink:href="osc-0x558ca1e89770.svg">
<rect x="1.000000" y="1.000000" width="657.100000" height="143.000000" rx="0" ry="0" style="stroke:none;fill:#cccccc;"/>
<rect x="0.000000" y="0.000000" width="657.100000" height="143.000000" rx="0" ry="0" style="stroke:none;fill:#ffffff;"/>
</a>
<text x="10.000000" y="7.000000" font-family="Arial" font-size="7"></text>
<rect x="45.000000" y="45.000000" width="283.800000" height="24.000000" rx="0" ry="0" style="stroke:none;fill:#cccccc;"/>
<rect x="44.000000" y="44.000000" width="283.800000" height="24.000000" rx="0" ry="0" style="stroke:none;fill:#477881;"/>
<text x="185.900000" y="58.000000" font-family="Arial" font-size="7" text-anchor="middle" fill="#FFFFFF">hslider(osc 1 freq, 330.0f, 50.0f, 2000.0f, 0.10000000000000001f)</text>
<circle cx="46.000000" cy="46.000000" r="1"/>
<line x1="35.000000" y1="35.000000" x2="35.000000" y2="77.000000"  style="stroke: black; stroke-linecap:round; stroke-width:0.25; stroke-dasharray:3,3;"/>
<line x1="35.000000" y1="77.000000" x2="336.800000" y2="77.000000"  style="stroke: black; stroke-linecap:round; stroke-width:0.25; stroke-dasharray:3,3;"/>
<line x1="336.800000" y1="77.000000" x2="336.800000" y2="35.000000"  style="stroke: black; stroke-linecap:round; stroke-width:0.25; stroke-dasharray:3,3;"/>
<line x1="35.000000" y1="35.000000" x2="40.000000" y2="35.000000"  style="stroke: black; stroke-linecap:round; stroke-width:0.25; stroke-dasharray:3,3;"/>
<line x1="88.375000" y1="35.000000" x2="336.800000" y2="35.000000"  style="stroke: black; stroke-linecap:round; stroke-width:0.25; stroke-dasharray:3,3;"/>
<text x="40.000000" y="37.000000" font-family="Arial" font-size="7">vgroup(snare)</text>
<line x1="25.000000" y1="25.000000" x2="25.000000" y2="87.000000"  style="stroke: black; stroke-linecap:round; stroke-width:0.25; stroke-dasharray:3,3;"/>
<line x1="25.000000" y1="87.000000" x2="346.800000" y2="87.000000"  style="stroke: black; stroke-linecap:round; stroke-width:0.25; stroke-dasharray:3,3;"/>
<line x1="346.800000" y1="87.000000" x2="346.800000" y2="25.000000"  style="stroke: black; stroke-linecap:round; stroke-width:0.25; stroke-dasharray:3,3;"/>
<line x1="25.000000" y1="25.000000" x2="30.000000" y2="25.000000"  style="stroke: black; stroke-linecap:round; stroke-width:0.25; stroke-dasharray:3,3;"/>
<line x1="52.575000" y1="25.000000" x2="346.800000" y2="25.000000"  style="stroke: black; stroke-linecap:round; stroke-width:0.25; stroke-dasharray:3,3;"/>
<text x="30.000000" y="27.000000" font-family="Arial" font-size="7">osc1f</text>
<a xlink:href="SR-0x7fc4c80bfd10.svg">
<rect x="158.000000" y="97.000000" width="24.000000" height="24.000000" rx="0" ry="0" style="stroke:none;fill:#cccccc;"/>
<rect x="157.000000" y="96.000000" width="24.000000" height="24.000000" rx="0" ry="0" style="stroke:none;fill:#003366;"/>
</a>
<a xlink:href="SR-0x7fc4c80bfd10.svg">
<text x="169.000000" y="110.000000" font-family="Arial" font-size="7" text-anchor="middle" fill="#FFFFFF">SR</text>
</a>
<circle cx="159.000000" cy="98.000000" r="1"/>
<rect x="190.000000" y="97.000000" width="25.800000" height="24.000000" rx="0" ry="0" style="stroke:none;fill:#cccccc;"/>
<rect x="189.000000" y="96.000000" width="25.800000" height="24.000000" rx="0" ry="0" style="stroke:none;fill:#4B71A1;"/>
<text x="201.900000" y="110.000000" font-family="Arial" font-size="7" text-anchor="middle" fill="#FFFFFF">float</text>
<circle cx="191.000000" cy="98.000000" r="1"/>
<line x1="186.000000" y1="107.000000" x2="189.000000" y2="108.000000"  transform="rotate(0.000000,189.000000,108.000000)" style="stroke: black; stroke-width:0.25;"/>
<line x1="186.000000" y1="109.000000" x2="189.000000" y2="108.000000"  transform="rotate(0.000000,189.000000,108.000000)" style="stroke: black; stroke-width:0.25;"/>
<rect x="364.800000" y="61.000000" width="24.000000" height="24.000000" rx="0" ry="0" style="stroke:none;fill:#cccccc;"/>
<rect x="363.800000" y="60.000000" width="24.000000" height="24.000000" rx="0" ry="0" style="stroke:none;fill:#4B71A1;"/>
<text x="375.800000" y="74.000000" font-family="Arial" font-size="7" text-anchor="middle" fill="#FFFFFF">/</text>
<circle cx="365.800000" cy="62.000000" r="1"/>
<line x1="360.800000" y1="67.000000" x2="363.800000" y2="68.000000"  transform="rotate(0.000000,363.800000,68.000000)" style="stroke: black; stroke-width:0.25;"/>
<line x1="360.800000" y1="69.000000" x2="363.800000" y2="68.000000"  transform="rotate(0.000000,363.800000,68.000000)" style="stroke: black; stroke-width:0.25;"/>
<line x1="360.800000" y1="75.000000" x2="363.800000" y2="76.000000"  transform="rotate(0.000000,363.800000,76.000000)" style="stroke: black; stroke-width:0.25;"/>
<line x1="360.800000" y1="77.000000" x2="363.800000" y2="76.000000"  transform="rotate(0.000000,363.800000,76.000000)" style="stroke: black; stroke-width:0.25;"/>
<rect x="412.800000" y="65.000000" width="24.000000" height="24.000000" rx="0" ry="0" style="stroke:none;fill:#cccccc;"/>
<rect x="411.800000" y="64.000000" width="24.000000" height="24.000000" rx="0" ry="0" style="stroke:none;fill:#4B71A1;"/>
<text x="423.800000" y="78.000000" font-family="Arial" font-size="7" text-anchor="middle" fill="#FFFFFF">+</text>
<circle cx="413.800000" cy="66.000000" r="1"/>
<line x1="408.800000" y1="71.000000" x2="411.800000" y2="72.000000"  transform="rotate(0.000000,411.800000,72.000000)" style="stroke: black; stroke-width:0.25;"/>
<line x1="408.800000" y1="73.000000" x2="411.800000" y2="72.000000"  transform="rotate(0.000000,411.800000,72.000000)" style="stroke: black; stroke-width:0.25;"/>
<line x1="408.800000" y1="79.000000" x2="411.800000" y2="80.000000"  transform="rotate(0.000000,411.800000,80.000000)" style="stroke: black; stroke-width:0.25;"/>
<line x1="408.800000" y1="81.000000" x2="411.800000" y2="80.000000"  transform="rotate(0.000000,411.800000,80.000000)" style="stroke: black; stroke-width:0.25;"/>
<a xlink:href="decimal-0x558ca1de4d80.svg">
<rect x="444.800000" y="65.000000" width="38.700000" height="24.000000" rx="0" ry="0" style="stroke:none;fill:#cccccc;"/>
<rect x="443.800000" y="64.000000" width="38.700000" height="24.000000" rx="0" ry="0" style="stroke:none;fill:#003366;"/>
</a>
<a xlink:href="decimal-0x558ca1de4d80.svg">
<text x="463.150000" y="78.000000" font-family="Arial" font-size="7" text-anchor="middle" fill="#FFFFFF">decimal</text>
</a>
<circle cx="445.800000" cy="66.000000" r="1"/>
<line x1="440.800000" y1="75.000000" x2="443.800000" y2="76.000000"  transform="rotate(0.000000,443.800000,76.000000)" style="stroke: black; stroke-width:0.25;"/>
<line x1="440.800000" y1="77.000000" x2="443.800000" y2="76.000000"  transform="rotate(0.000000,443.800000,76.000000)" style="stroke: black; stroke-width:0.25;"/>
<line x1="484.500000" y1="76.000000" x2="484.500000" y2="72.000000"  style="stroke:black; stroke-linecap:round; stroke-width:0.25;"/>
<line x1="484.500000" y1="72.000000" x2="488.500000" y2="72.000000"  style="stroke:black; stroke-linecap:round; stroke-width:0.25;"/>
<line x1="488.500000" y1="72.000000" x2="488.500000" y2="76.000000"  style="stroke:black; stroke-linecap:round; stroke-width:0.25;"/>
<rect x="517.500000" y="65.000000" width="25.800000" height="24.000000" rx="0" ry="0" style="stroke:none;fill:#cccccc;"/>
<rect x="516.500000" y="64.000000" width="25.800000" height="24.000000" rx="0" ry="0" style="stroke:none;fill:#f44800;"/>
<text x="529.400000" y="78.000000" font-family="Arial" font-size="7" text-anchor="middle" fill="#FFFFFF">65536</text>
<circle cx="518.500000" cy="66.000000" r="1"/>
<line x1="507.500000" y1="55.000000" x2="507.500000" y2="97.000000"  style="stroke: black; stroke-linecap:round; stroke-width:0.25; stroke-dasharray:3,3;"/>
<line x1="507.500000" y1="97.000000" x2="551.300000" y2="97.000000"  style="stroke: black; stroke-linecap:round; stroke-width:0.25; stroke-dasharray:3,3;"/>
<line x1="551.300000" y1="97.000000" x2="551.300000" y2="55.000000"  style="stroke: black; stroke-linecap:round; stroke-width:0.25; stroke-dasharray:3,3;"/>
<line x1="507.500000" y1="55.000000" x2="512.500000" y2="55.000000"  style="stroke: black; stroke-linecap:round; stroke-width:0.25; stroke-dasharray:3,3;"/>
<line x1="547.975000" y1="55.000000" x2="551.300000" y2="55.000000"  style="stroke: black; stroke-linecap:round; stroke-width:0.25; stroke-dasharray:3,3;"/>
<text x="512.500000" y="57.000000" font-family="Arial" font-size="7">tablesize</text>
<rect x="561.300000" y="65.000000" width="25.800000" height="24.000000" rx="0" ry="0" style="stroke:none;fill:#cccccc;"/>
<rect x="560.300000" y="64.000000" width="25.800000" height="24.000000" rx="0" ry="0" style="stroke:none;fill:#4B71A1;"/>
<text x="573.200000" y="78.000000" font-family="Arial" font-size="7" text-anchor="middle" fill="#FFFFFF">float</text>
<circle cx="562.300000" cy="66.000000" r="1"/>
<line x1="557.300000" y1="75.000000" x2="560.300000" y2="76.000000"  transform="rotate(0.000000,560.300000,76.000000)" style="stroke: black; stroke-width:0.25;"/>
<line x1="557.300000" y1="77.000000" x2="560.300000" y2="76.000000"  transform="rotate(0.000000,560.300000,76.000000)" style="stroke: black; stroke-width:0.25;"/>
<rect x="603.100000" y="61.000000" width="24.000000" height="24.000000" rx="0" ry="0" style="stroke:none;fill:#cccccc;"/>
<rect x="602.100000" y="60.000000" width="24.000000" height="24.000000" rx="0" ry="0" style="stroke:none;fill:#4B71A1;"/>
<text x="614.100000" y="74.000000" font-family="Arial" font-size="7" text-anchor="middle" fill="#FFFFFF">*</text>
<circle cx="604.100000" cy="62.000000" r="1"/>
<line x1="599.100000" y1="67.000000" x2="602.100000" y2="68.000000"  transform="rotate(0.000000,602.100000,68.000000)" style="stroke: black; stroke-width:0.25;"/>
<line x1="599.100000" y1="69.000000" x2="602.100000" y2="68.000000"  transform="rotate(0.000000,602.100000,68.000000)" style="stroke: black; stroke-width:0.25;"/>
<line x1="599.100000" y1="75.000000" x2="602.100000" y2="76.000000"  transform="rotate(0.000000,602.100000,76.000000)" style="stroke: black; stroke-width:0.25;"/>
<line x1="599.100000" y1="77.000000" x2="602.100000" y2="76.000000"  transform="rotate(0.000000,602.100000,76.000000)" style="stroke: black; stroke-width:0.25;"/>
<line x1="15.000000" y1="15.000000" x2="15.000000" y2="129.000000"  style="stroke: black; stroke-linecap:round; stroke-width:0.25; stroke-dasharray:3,3;"/>
<line x1="15.000000" y1="129.000000" x2="643.100000" y2="129.000000"  style="stroke: black; stroke-linecap:round; stroke-width:0.25; stroke-dasharray:3,3;"/>
<line x1="643.100000" y1="129.000000" x2="643.100000" y2="15.000000"  style="stroke: black; stroke-linecap:round; stroke-width:0.25; stroke-dasharray:3,3;"/>
<line x1="15.000000" y1="15.000000" x2="20.000000" y2="15.000000"  style="stroke: black; stroke-linecap:round; stroke-width:0.25; stroke-dasharray:3,3;"/>
<line x1="119.975000" y1="15.000000" x2="643.100000" y2="15.000000"  style="stroke: black; stroke-linecap:round; stroke-width:0.25; stroke-dasharray:3,3;"/>
<text x="20.000000" y="17.000000" font-family="Arial" font-size="7">phasor(65536)...000000001f)))</text>
<line x1="645.100000" y1="71.000000" x2="648.100000" y2="72.000000"  transform="rotate(0.000000,648.100000,72.000000)" style="stroke: black; stroke-width:0.25;"/>
<line x1="645.100000" y1="73.000000" x2="648.100000" y2="72.000000"  transform="rotate(0.000000,648.100000,72.000000)" style="stroke: black; stroke-width:0.25;"/>
<line x1="181.000000" y1="108.000000" x2="185.000000" y2="108.000000"  style="stroke:black; stroke-linecap:round; stroke-width:0.25;"/>
<line x1="185.000000" y1="108.000000" x2="185.000000" y2="108.000000"  style="stroke:black; stroke-linecap:round; stroke-width:0.25;"/>
<line x1="185.000000" y1="108.000000" x2="189.000000" y2="108.000000"  style="stroke:black; stroke-linecap:round; stroke-width:0.25;"/>
<line x1="214.800000" y1="108.000000" x2="218.800000" y2="108.000000"  style="stroke:black; stroke-linecap:round; stroke-width:0.25;"/>
<line x1="218.800000" y1="108.000000" x2="351.800000" y2="108.000000"  style="stroke:black; stroke-linecap:round; stroke-width:0.25;"/>
<line x1="327.800000" y1="56.000000" x2="331.800000" y2="56.000000"  style="stroke:black; stroke-linecap:round; stroke-width:0.25;"/>
<line x1="331.800000" y1="56.000000" x2="341.800000" y2="56.000000"  style="stroke:black; stroke-linecap:round; stroke-width:0.25;"/>
<line x1="341.800000" y1="56.000000" x2="351.800000" y2="56.000000"  style="stroke:black; stroke-linecap:round; stroke-width:0.25;"/>
<line x1="351.800000" y1="56.000000" x2="359.800000" y2="56.000000"  style="stroke:black; stroke-linecap:round; stroke-width:0.25;"/>
<line x1="351.800000" y1="76.000000" x2="359.800000" y2="76.000000"  style="stroke:black; stroke-linecap:round; stroke-width:0.25;"/>
<line x1="351.800000" y1="108.000000" x2="351.800000" y2="76.000000"  style="stroke:black; stroke-linecap:round; stroke-width:0.25;"/>
<line x1="351.800000" y1="108.000000" x2="351.800000" y2="108.000000"  style="stroke:black; stroke-linecap:round; stroke-width:0.25;"/>
<line x1="359.800000" y1="56.000000" x2="359.800000" y2="68.000000"  style="stroke:black; stroke-linecap:round; stroke-width:0.25;"/>
<line x1="359.800000" y1="68.000000" x2="359.800000" y2="68.000000"  style="stroke:black; stroke-linecap:round; stroke-width:0.25;"/>
<line x1="359.800000" y1="68.000000" x2="363.800000" y2="68.000000"  style="stroke:black; stroke-linecap:round; stroke-width:0.25;"/>
<line x1="359.800000" y1="76.000000" x2="363.800000" y2="76.000000"  style="stroke:black; stroke-linecap:round; stroke-width:0.25;"/>
<line x1="387.800000" y1="72.000000" x2="391.800000" y2="72.000000"  style="stroke:black; stroke-linecap:round; stroke-width:0.25;"/>
<line x1="391.800000" y1="72.000000" x2="399.800000" y2="72.000000"  style="stroke:black; stroke-linecap:round; stroke-width:0.25;"/>
<line x1="399.800000" y1="72.000000" x2="399.800000" y2="80.000000"  style="stroke:black; stroke-linecap:round; stroke-width:0.25;"/>
<line x1="399.800000" y1="80.000000" x2="399.800000" y2="80.000000"  style="stroke:black; stroke-linecap:round; stroke-width:0.25;"/>
<line x1="399.800000" y1="80.000000" x2="407.800000" y2="80.000000"  style="stroke:black; stroke-linecap:round; stroke-width:0.25;"/>
<line x1="407.800000" y1="56.000000" x2="407.800000" y2="56.000000"  style="stroke:black; stroke-linecap:round; stroke-width:0.25;"/>
<line x1="407.800000" y1="56.000000" x2="407.800000" y2="72.000000"  style="stroke:black; stroke-linecap:round; stroke-width:0.25;"/>
<line x1="407.800000" y1="72.000000" x2="407.800000" y2="72.000000"  style="stroke:black; stroke-linecap:round; stroke-width:0.25;"/>
<line x1="407.800000" y1="72.000000" x2="411.800000" y2="72.000000"  style="stroke:black; stroke-linecap:round; stroke-width:0.25;"/>
<line x1="407.800000" y1="80.000000" x2="411.800000" y2="80.000000"  style="stroke:black; stroke-linecap:round; stroke-width:0.25;"/>
<line x1="435.800000" y1="76.000000" x2="439.800000" y2="76.000000"  style="stroke:black; stroke-linecap:round; stroke-width:0.25;"/>
<line x1="439.800000" y1="76.000000" x2="439.800000" y2="76.000000"  style="stroke:black; stroke-linecap:round; stroke-width:0.25;"/>
<line x1="439.800000" y1="76.000000" x2="443.800000" y2="76.000000"  style="stroke:black; stroke-linecap:round; stroke-width:0.25;"/>
<line x1="447.150000" y1="56.000000" x2="407.800000" y2="56.000000"  style="stroke:black; stroke-linecap:round; stroke-width:0.25;"/>
<line x1="482.500000" y1="76.000000" x2="486.500000" y2="76.000000"  style="stroke:black; stroke-linecap:round; stroke-width:0.25;"/>
<line x1="486.500000" y1="56.000000" x2="447.150000" y2="56.000000"  style="stroke:black; stroke-linecap:round; stroke-width:0.25;"/>
<line x1="486.500000" y1="56.000000" x2="486.500000" y2="56.000000"  style="stroke:black; stroke-linecap:round; stroke-width:0.25;"/>
<line x1="486.500000" y1="72.000000" x2="486.500000" y2="56.000000"  style="stroke:black; stroke-linecap:round; stroke-width:0.25;"/>
<line x1="486.500000" y1="76.000000" x2="488.500000" y2="76.000000"  style="stroke:black; stroke-linecap:round; stroke-width:0.25;"/>
<line x1="488.500000" y1="76.000000" x2="494.500000" y2="76.000000"  style="stroke:black; stroke-linecap:round; stroke-width:0.25;"/>
<line x1="494.500000" y1="46.000000" x2="502.500000" y2="46.000000"  style="stroke:black; stroke-linecap:round; stroke-width:0.25;"/>
<line x1="494.500000" y1="76.000000" x2="494.500000" y2="46.000000"  style="stroke:black; stroke-linecap:round; stroke-width:0.25;"/>
<line x1="494.500000" y1="76.000000" x2="494.500000" y2="76.000000"  style="stroke:black; stroke-linecap:round; stroke-width:0.25;"/>
<line x1="502.500000" y1="46.000000" x2="546.300000" y2="46.000000"  style="stroke:black; stroke-linecap:round; stroke-width:0.25;"/>
<line x1="542.300000" y1="76.000000" x2="546.300000" y2="76.000000"  style="stroke:black; stroke-linecap:round; stroke-width:0.25;"/>
<line x1="546.300000" y1="46.000000" x2="590.100000" y2="46.000000"  style="stroke:black; stroke-linecap:round; stroke-width:0.25;"/>
<line x1="546.300000" y1="76.000000" x2="556.300000" y2="76.000000"  style="stroke:black; stroke-linecap:round; stroke-width:0.25;"/>
<line x1="556.300000" y1="76.000000" x2="556.300000" y2="76.000000"  style="stroke:black; stroke-linecap:round; stroke-width:0.25;"/>
<line x1="556.300000" y1="76.000000" x2="560.300000" y2="76.000000"  style="stroke:black; stroke-linecap:round; stroke-width:0.25;"/>
<line x1="586.100000" y1="76.000000" x2="590.100000" y2="76.000000"  style="stroke:black; stroke-linecap:round; stroke-width:0.25;"/>
<line x1="590.100000" y1="46.000000" x2="598.100000" y2="46.000000"  style="stroke:black; stroke-linecap:round; stroke-width:0.25;"/>
<line x1="590.100000" y1="76.000000" x2="598.100000" y2="76.000000"  style="stroke:black; stroke-linecap:round; stroke-width:0.25;"/>
<line x1="598.100000" y1="46.000000" x2="598.100000" y2="68.000000"  style="stroke:black; stroke-linecap:round; stroke-width:0.25;"/>
<line x1="598.100000" y1="68.000000" x2="598.100000" y2="68.000000"  style="stroke:black; stroke-linecap:round; stroke-width:0.25;"/>
<line x1="598.100000" y1="68.000000" x2="602.100000" y2="68.000000"  style="stroke:black; stroke-linecap:round; stroke-width:0.25;"/>
<line x1="598.100000" y1="76.000000" x2="602.100000" y2="76.000000"  style="stroke:black; stroke-linecap:round; stroke-width:0.25;"/>
<line x1="626.100000" y1="72.000000" x2="630.100000" y2="72.000000"  style="stroke:black; stroke-linecap:round; stroke-width:0.25;"/>
<line x1="630.100000" y1="72.000000" x2="630.100000" y2="72.000000"  style="stroke:black; stroke-linecap:round; stroke-width:0.25;"/>
<line x1="630.100000" y1="72.000000" x2="634.100000" y2="72.000000"  style="stroke:black; stroke-linecap:round; stroke-width:0.25;"/>
<line x1="634.100000" y1="72.000000" x2="638.100000" y2="72.000000"  style="stroke:black; stroke-linecap:round; stroke-width:0.25;"/>
<line x1="638.100000" y1="72.000000" x2="648.100000" y2="72.000000"  style="stroke:black; stroke-linecap:round; stroke-width:0.25;"/>
</svg>
