<?xml version="1.0"?>
<svg xmlns="http://www.w3.org/2000/svg" xmlns:xlink="http://www.w3.org/1999/xlink" viewBox="0 0 303.600000 136.000000" width="151.800000mm" height="68.000000mm" version="1.1">
<a xlink:href="filters-0x7fc4c8523db0.svg">
<rect x="1.000000" y="1.000000" width="302.600000" height="135.000000" rx="0" ry="0" style="stroke:none;fill:#cccccc;"/>
<rect x="0.000000" y="0.000000" width="302.600000" height="135.000000" rx="0" ry="0" style="stroke:none;fill:#ffffff;"/>
</a>
<text x="10.000000" y="7.000000" font-family="Arial" font-size="7"></text>
<rect x="61.000000" y="45.000000" width="25.800000" height="24.000000" rx="0" ry="0" style="stroke:none;fill:#cccccc;"/>
<rect x="60.000000" y="44.000000" width="25.800000" height="24.000000" rx="0" ry="0" style="stroke:none;fill:#f44800;"/>
<text x="72.900000" y="58.000000" font-family="Arial" font-size="7" text-anchor="middle" fill="#FFFFFF">0.9975</text>
<circle cx="62.000000" cy="46.000000" r="1"/>
<rect x="102.800000" y="41.000000" width="24.000000" height="24.000000" rx="0" ry="0" style="stroke:none;fill:#cccccc;"/>
<rect x="101.800000" y="40.000000" width="24.000000" height="24.000000" rx="0" ry="0" style="stroke:none;fill:#4B71A1;"/>
<text x="113.800000" y="54.000000" font-family="Arial" font-size="7" text-anchor="middle" fill="#FFFFFF">*</text>
<circle cx="103.800000" cy="42.000000" r="1"/>
<line x1="98.800000" y1="47.000000" x2="101.800000" y2="48.000000"  transform="rotate(0.000000,101.800000,48.000000)" style="stroke: black; stroke-width:0.25;"/>
<line x1="98.800000" y1="49.000000" x2="101.800000" y2="48.000000"  transform="rotate(0.000000,101.800000,48.000000)" style="stroke: black; stroke-width:0.25;"/>
<line x1="98.800000" y1="55.000000" x2="101.800000" y2="56.000000"  transform="rotate(0.000000,101.800000,56.000000)" style="stroke: black; stroke-width:0.25;"/>
<line x1="98.800000" y1="57.000000" x2="101.800000" y2="56.000000"  transform="rotate(0.000000,101.800000,56.000000)" style="stroke: black; stroke-width:0.25;"/>
<rect x="65.900000" y="77.000000" width="24.000000" height="24.000000" rx="0" ry="0" style="stroke:none;fill:#cccccc;"/>
<rect x="64.900000" y="76.000000" width="24.000000" height="24.000000" rx="0" ry="0" style="stroke:none;fill:#4B71A1;"/>
<text x="76.900000" y="90.000000" font-family="Arial" font-size="7" text-anchor="middle" fill="#FFFFFF">mem</text>
<circle cx="66.900000" cy="78.000000" r="1"/>
<line x1="61.900000" y1="87.000000" x2="64.900000" y2="88.000000"  transform="rotate(0.000000,64.900000,88.000000)" style="stroke: black; stroke-width:0.25;"/>
<line x1="61.900000" y1="89.000000" x2="64.900000" y2="88.000000"  transform="rotate(0.000000,64.900000,88.000000)" style="stroke: black; stroke-width:0.25;"/>
<rect x="97.900000" y="77.000000" width="24.000000" height="24.000000" rx="0" ry="0" style="stroke:none;fill:#cccccc;"/>
<rect x="96.900000" y="76.000000" width="24.000000" height="24.000000" rx="0" ry="0" style="stroke:none;fill:#4B71A1;"/>
<text x="108.900000" y="90.000000" font-family="Arial" font-size="7" text-anchor="middle" fill="#FFFFFF">mem</text>
<circle cx="98.900000" cy="78.000000" r="1"/>
<line x1="93.900000" y1="87.000000" x2="96.900000" y2="88.000000"  transform="rotate(0.000000,96.900000,88.000000)" style="stroke: black; stroke-width:0.25;"/>
<line x1="93.900000" y1="89.000000" x2="96.900000" y2="88.000000"  transform="rotate(0.000000,96.900000,88.000000)" style="stroke: black; stroke-width:0.25;"/>
<rect x="142.800000" y="57.000000" width="24.000000" height="24.000000" rx="0" ry="0" style="stroke:none;fill:#cccccc;"/>
<rect x="141.800000" y="56.000000" width="24.000000" height="24.000000" rx="0" ry="0" style="stroke:none;fill:#4B71A1;"/>
<text x="153.800000" y="70.000000" font-family="Arial" font-size="7" text-anchor="middle" fill="#FFFFFF">-</text>
<circle cx="143.800000" cy="58.000000" r="1"/>
<line x1="138.800000" y1="63.000000" x2="141.800000" y2="64.000000"  transform="rotate(0.000000,141.800000,64.000000)" style="stroke: black; stroke-width:0.25;"/>
<line x1="138.800000" y1="65.000000" x2="141.800000" y2="64.000000"  transform="rotate(0.000000,141.800000,64.000000)" style="stroke: black; stroke-width:0.25;"/>
<line x1="138.800000" y1="71.000000" x2="141.800000" y2="72.000000"  transform="rotate(0.000000,141.800000,72.000000)" style="stroke: black; stroke-width:0.25;"/>
<line x1="138.800000" y1="73.000000" x2="141.800000" y2="72.000000"  transform="rotate(0.000000,141.800000,72.000000)" style="stroke: black; stroke-width:0.25;"/>
<rect x="211.700000" y="89.000000" width="24.000000" height="24.000000" rx="0" ry="0" style="stroke:none;fill:#cccccc;"/>
<rect x="210.700000" y="88.000000" width="24.000000" height="24.000000" rx="0" ry="0" style="stroke:none;fill:#4B71A1;"/>
<text x="222.700000" y="102.000000" font-family="Arial" font-size="7" text-anchor="middle" fill="#FFFFFF">+</text>
<circle cx="212.700000" cy="90.000000" r="1"/>
<line x1="207.700000" y1="95.000000" x2="210.700000" y2="96.000000"  transform="rotate(0.000000,210.700000,96.000000)" style="stroke: black; stroke-width:0.25;"/>
<line x1="207.700000" y1="97.000000" x2="210.700000" y2="96.000000"  transform="rotate(0.000000,210.700000,96.000000)" style="stroke: black; stroke-width:0.25;"/>
<line x1="207.700000" y1="103.000000" x2="210.700000" y2="104.000000"  transform="rotate(0.000000,210.700000,104.000000)" style="stroke: black; stroke-width:0.25;"/>
<line x1="207.700000" y1="105.000000" x2="210.700000" y2="104.000000"  transform="rotate(0.000000,210.700000,104.000000)" style="stroke: black; stroke-width:0.25;"/>
<rect x="231.700000" y="57.000000" width="24.000000" height="24.000000" rx="0" ry="0" style="stroke:none;fill:#cccccc;"/>
<rect x="230.700000" y="56.000000" width="24.000000" height="24.000000" rx="0" ry="0" style="stroke:none;fill:#4B71A1;"/>
<text x="242.700000" y="70.000000" font-family="Arial" font-size="7" text-anchor="middle" fill="#FFFFFF">mem</text>
<circle cx="252.700000" cy="78.000000" r="1"/>
<line x1="257.700000" y1="67.000000" x2="254.700000" y2="68.000000"  transform="rotate(0.000000,254.700000,68.000000)" style="stroke: black; stroke-width:0.25;"/>
<line x1="257.700000" y1="69.000000" x2="254.700000" y2="68.000000"  transform="rotate(0.000000,254.700000,68.000000)" style="stroke: black; stroke-width:0.25;"/>
<rect x="230.800000" y="25.000000" width="25.800000" height="24.000000" rx="0" ry="0" style="stroke:none;fill:#cccccc;"/>
<rect x="229.800000" y="24.000000" width="25.800000" height="24.000000" rx="0" ry="0" style="stroke:none;fill:#f44800;"/>
<text x="242.700000" y="38.000000" font-family="Arial" font-size="7" text-anchor="middle" fill="#FFFFFF">0.9975</text>
<circle cx="253.600000" cy="46.000000" r="1"/>
<rect x="190.800000" y="41.000000" width="24.000000" height="24.000000" rx="0" ry="0" style="stroke:none;fill:#cccccc;"/>
<rect x="189.800000" y="40.000000" width="24.000000" height="24.000000" rx="0" ry="0" style="stroke:none;fill:#4B71A1;"/>
<text x="201.800000" y="54.000000" font-family="Arial" font-size="7" text-anchor="middle" fill="#FFFFFF">*</text>
<circle cx="211.800000" cy="62.000000" r="1"/>
<line x1="216.800000" y1="55.000000" x2="213.800000" y2="56.000000"  transform="rotate(0.000000,213.800000,56.000000)" style="stroke: black; stroke-width:0.25;"/>
<line x1="216.800000" y1="57.000000" x2="213.800000" y2="56.000000"  transform="rotate(0.000000,213.800000,56.000000)" style="stroke: black; stroke-width:0.25;"/>
<line x1="216.800000" y1="47.000000" x2="213.800000" y2="48.000000"  transform="rotate(0.000000,213.800000,48.000000)" style="stroke: black; stroke-width:0.25;"/>
<line x1="216.800000" y1="49.000000" x2="213.800000" y2="48.000000"  transform="rotate(0.000000,213.800000,48.000000)" style="stroke: black; stroke-width:0.25;"/>
<line x1="257.600000" y1="100.000000" x2="257.600000" y2="96.000000"  style="stroke:black; stroke-linecap:round; stroke-width:0.25;"/>
<line x1="257.600000" y1="96.000000" x2="261.600000" y2="96.000000"  style="stroke:black; stroke-linecap:round; stroke-width:0.25;"/>
<line x1="261.600000" y1="96.000000" x2="261.600000" y2="100.000000"  style="stroke:black; stroke-linecap:round; stroke-width:0.25;"/>
<line x1="15.000000" y1="15.000000" x2="15.000000" y2="121.000000"  style="stroke: black; stroke-linecap:round; stroke-width:0.25; stroke-dasharray:3,3;"/>
<line x1="15.000000" y1="121.000000" x2="288.600000" y2="121.000000"  style="stroke: black; stroke-linecap:round; stroke-width:0.25; stroke-dasharray:3,3;"/>
<line x1="288.600000" y1="121.000000" x2="288.600000" y2="15.000000"  style="stroke: black; stroke-linecap:round; stroke-width:0.25; stroke-dasharray:3,3;"/>
<line x1="15.000000" y1="15.000000" x2="20.000000" y2="15.000000"  style="stroke: black; stroke-linecap:round; stroke-width:0.25; stroke-dasharray:3,3;"/>
<line x1="110.300000" y1="15.000000" x2="288.600000" y2="15.000000"  style="stroke: black; stroke-linecap:round; stroke-width:0.25; stroke-dasharray:3,3;"/>
<text x="20.000000" y="17.000000" font-family="Arial" font-size="7">unit(0.99750000000000005f)</text>
<line x1="290.600000" y1="67.000000" x2="293.600000" y2="68.000000"  transform="rotate(0.000000,293.600000,68.000000)" style="stroke: black; stroke-width:0.25;"/>
<line x1="290.600000" y1="69.000000" x2="293.600000" y2="68.000000"  transform="rotate(0.000000,293.600000,68.000000)" style="stroke: black; stroke-width:0.25;"/>
<line x1="10.000000" y1="68.000000" x2="20.000000" y2="68.000000"  style="stroke:black; stroke-linecap:round; stroke-width:0.25;"/>
<line x1="20.000000" y1="68.000000" x2="24.000000" y2="68.000000"  style="stroke:black; stroke-linecap:round; stroke-width:0.25;"/>
<line x1="24.000000" y1="68.000000" x2="28.000000" y2="68.000000"  style="stroke:black; stroke-linecap:round; stroke-width:0.25;"/>
<line x1="28.000000" y1="68.000000" x2="28.000000" y2="68.000000"  style="stroke:black; stroke-linecap:round; stroke-width:0.25;"/>
<line x1="28.000000" y1="68.000000" x2="32.000000" y2="68.000000"  style="stroke:black; stroke-linecap:round; stroke-width:0.25;"/>
<line x1="32.000000" y1="68.000000" x2="36.000000" y2="68.000000"  style="stroke:black; stroke-linecap:round; stroke-width:0.25;"/>
<line x1="36.000000" y1="68.000000" x2="56.000000" y2="88.000000"  style="stroke:black; stroke-linecap:round; stroke-width:0.25;"/>
<line x1="36.000000" y1="68.000000" x2="56.000000" y2="36.000000"  style="stroke:black; stroke-linecap:round; stroke-width:0.25;"/>
<line x1="56.000000" y1="88.000000" x2="60.900000" y2="88.000000"  style="stroke:black; stroke-linecap:round; stroke-width:0.25;"/>
<line x1="56.000000" y1="36.000000" x2="72.900000" y2="36.000000"  style="stroke:black; stroke-linecap:round; stroke-width:0.25;"/>
<line x1="60.900000" y1="88.000000" x2="60.900000" y2="88.000000"  style="stroke:black; stroke-linecap:round; stroke-width:0.25;"/>
<line x1="60.900000" y1="88.000000" x2="64.900000" y2="88.000000"  style="stroke:black; stroke-linecap:round; stroke-width:0.25;"/>
<line x1="72.900000" y1="36.000000" x2="89.800000" y2="36.000000"  style="stroke:black; stroke-linecap:round; stroke-width:0.25;"/>
<line x1="85.800000" y1="56.000000" x2="89.800000" y2="56.000000"  style="stroke:black; stroke-linecap:round; stroke-width:0.25;"/>
<line x1="88.900000" y1="88.000000" x2="92.900000" y2="88.000000"  style="stroke:black; stroke-linecap:round; stroke-width:0.25;"/>
<line x1="89.800000" y1="56.000000" x2="97.800000" y2="56.000000"  style="stroke:black; stroke-linecap:round; stroke-width:0.25;"/>
<line x1="89.800000" y1="36.000000" x2="97.800000" y2="36.000000"  style="stroke:black; stroke-linecap:round; stroke-width:0.25;"/>
<line x1="92.900000" y1="88.000000" x2="92.900000" y2="88.000000"  style="stroke:black; stroke-linecap:round; stroke-width:0.25;"/>
<line x1="92.900000" y1="88.000000" x2="96.900000" y2="88.000000"  style="stroke:black; stroke-linecap:round; stroke-width:0.25;"/>
<line x1="97.800000" y1="48.000000" x2="101.800000" y2="48.000000"  style="stroke:black; stroke-linecap:round; stroke-width:0.25;"/>
<line x1="97.800000" y1="56.000000" x2="101.800000" y2="56.000000"  style="stroke:black; stroke-linecap:round; stroke-width:0.25;"/>
<line x1="97.800000" y1="36.000000" x2="97.800000" y2="48.000000"  style="stroke:black; stroke-linecap:round; stroke-width:0.25;"/>
<line x1="97.800000" y1="48.000000" x2="97.800000" y2="48.000000"  style="stroke:black; stroke-linecap:round; stroke-width:0.25;"/>
<line x1="120.900000" y1="88.000000" x2="124.900000" y2="88.000000"  style="stroke:black; stroke-linecap:round; stroke-width:0.25;"/>
<line x1="124.900000" y1="88.000000" x2="129.800000" y2="88.000000"  style="stroke:black; stroke-linecap:round; stroke-width:0.25;"/>
<line x1="125.800000" y1="52.000000" x2="129.800000" y2="52.000000"  style="stroke:black; stroke-linecap:round; stroke-width:0.25;"/>
<line x1="129.800000" y1="52.000000" x2="137.800000" y2="52.000000"  style="stroke:black; stroke-linecap:round; stroke-width:0.25;"/>
<line x1="129.800000" y1="72.000000" x2="137.800000" y2="72.000000"  style="stroke:black; stroke-linecap:round; stroke-width:0.25;"/>
<line x1="129.800000" y1="88.000000" x2="129.800000" y2="72.000000"  style="stroke:black; stroke-linecap:round; stroke-width:0.25;"/>
<line x1="129.800000" y1="88.000000" x2="129.800000" y2="88.000000"  style="stroke:black; stroke-linecap:round; stroke-width:0.25;"/>
<line x1="137.800000" y1="52.000000" x2="137.800000" y2="64.000000"  style="stroke:black; stroke-linecap:round; stroke-width:0.25;"/>
<line x1="137.800000" y1="64.000000" x2="137.800000" y2="64.000000"  style="stroke:black; stroke-linecap:round; stroke-width:0.25;"/>
<line x1="137.800000" y1="64.000000" x2="141.800000" y2="64.000000"  style="stroke:black; stroke-linecap:round; stroke-width:0.25;"/>
<line x1="137.800000" y1="72.000000" x2="141.800000" y2="72.000000"  style="stroke:black; stroke-linecap:round; stroke-width:0.25;"/>
<line x1="165.800000" y1="68.000000" x2="169.800000" y2="68.000000"  style="stroke:black; stroke-linecap:round; stroke-width:0.25;"/>
<line x1="169.800000" y1="68.000000" x2="177.800000" y2="68.000000"  style="stroke:black; stroke-linecap:round; stroke-width:0.25;"/>
<line x1="177.800000" y1="68.000000" x2="177.800000" y2="104.000000"  style="stroke:black; stroke-linecap:round; stroke-width:0.25;"/>
<line x1="177.800000" y1="104.000000" x2="177.800000" y2="104.000000"  style="stroke:black; stroke-linecap:round; stroke-width:0.25;"/>
<line x1="177.800000" y1="104.000000" x2="185.800000" y2="104.000000"  style="stroke:black; stroke-linecap:round; stroke-width:0.25;"/>
<line x1="185.800000" y1="52.000000" x2="185.800000" y2="52.000000"  style="stroke:black; stroke-linecap:round; stroke-width:0.25;"/>
<line x1="185.800000" y1="52.000000" x2="185.800000" y2="96.000000"  style="stroke:black; stroke-linecap:round; stroke-width:0.25;"/>
<line x1="185.800000" y1="96.000000" x2="185.800000" y2="96.000000"  style="stroke:black; stroke-linecap:round; stroke-width:0.25;"/>
<line x1="185.800000" y1="96.000000" x2="206.700000" y2="96.000000"  style="stroke:black; stroke-linecap:round; stroke-width:0.25;"/>
<line x1="185.800000" y1="104.000000" x2="206.700000" y2="104.000000"  style="stroke:black; stroke-linecap:round; stroke-width:0.25;"/>
<line x1="189.800000" y1="52.000000" x2="185.800000" y2="52.000000"  style="stroke:black; stroke-linecap:round; stroke-width:0.25;"/>
<line x1="206.700000" y1="96.000000" x2="210.700000" y2="96.000000"  style="stroke:black; stroke-linecap:round; stroke-width:0.25;"/>
<line x1="206.700000" y1="104.000000" x2="210.700000" y2="104.000000"  style="stroke:black; stroke-linecap:round; stroke-width:0.25;"/>
<line x1="217.800000" y1="48.000000" x2="213.800000" y2="48.000000"  style="stroke:black; stroke-linecap:round; stroke-width:0.25;"/>
<line x1="217.800000" y1="56.000000" x2="213.800000" y2="56.000000"  style="stroke:black; stroke-linecap:round; stroke-width:0.25;"/>
<line x1="217.800000" y1="56.000000" x2="217.800000" y2="56.000000"  style="stroke:black; stroke-linecap:round; stroke-width:0.25;"/>
<line x1="217.800000" y1="68.000000" x2="217.800000" y2="56.000000"  style="stroke:black; stroke-linecap:round; stroke-width:0.25;"/>
<line x1="225.800000" y1="36.000000" x2="225.800000" y2="36.000000"  style="stroke:black; stroke-linecap:round; stroke-width:0.25;"/>
<line x1="225.800000" y1="36.000000" x2="225.800000" y2="48.000000"  style="stroke:black; stroke-linecap:round; stroke-width:0.25;"/>
<line x1="225.800000" y1="48.000000" x2="217.800000" y2="48.000000"  style="stroke:black; stroke-linecap:round; stroke-width:0.25;"/>
<line x1="225.800000" y1="68.000000" x2="217.800000" y2="68.000000"  style="stroke:black; stroke-linecap:round; stroke-width:0.25;"/>
<line x1="226.700000" y1="68.000000" x2="225.800000" y2="68.000000"  style="stroke:black; stroke-linecap:round; stroke-width:0.25;"/>
<line x1="229.800000" y1="36.000000" x2="225.800000" y2="36.000000"  style="stroke:black; stroke-linecap:round; stroke-width:0.25;"/>
<line x1="230.700000" y1="68.000000" x2="226.700000" y2="68.000000"  style="stroke:black; stroke-linecap:round; stroke-width:0.25;"/>
<line x1="234.700000" y1="100.000000" x2="238.700000" y2="100.000000"  style="stroke:black; stroke-linecap:round; stroke-width:0.25;"/>
<line x1="238.700000" y1="100.000000" x2="259.600000" y2="100.000000"  style="stroke:black; stroke-linecap:round; stroke-width:0.25;"/>
<line x1="258.700000" y1="68.000000" x2="254.700000" y2="68.000000"  style="stroke:black; stroke-linecap:round; stroke-width:0.25;"/>
<line x1="258.700000" y1="68.000000" x2="258.700000" y2="68.000000"  style="stroke:black; stroke-linecap:round; stroke-width:0.25;"/>
<line x1="259.600000" y1="68.000000" x2="258.700000" y2="68.000000"  style="stroke:black; stroke-linecap:round; stroke-width:0.25;"/>
<line x1="259.600000" y1="68.000000" x2="259.600000" y2="68.000000"  style="stroke:black; stroke-linecap:round; stroke-width:0.25;"/>
<line x1="259.600000" y1="96.000000" x2="259.600000" y2="68.000000"  style="stroke:black; stroke-linecap:round; stroke-width:0.25;"/>
<line x1="259.600000" y1="100.000000" x2="261.600000" y2="100.000000"  style="stroke:black; stroke-linecap:round; stroke-width:0.25;"/>
<line x1="261.600000" y1="100.000000" x2="267.600000" y2="100.000000"  style="stroke:black; stroke-linecap:round; stroke-width:0.25;"/>
<line x1="267.600000" y1="68.000000" x2="275.600000" y2="68.000000"  style="stroke:black; stroke-linecap:round; stroke-width:0.25;"/>
<line x1="267.600000" y1="100.000000" x2="267.600000" y2="68.000000"  style="stroke:black; stroke-linecap:round; stroke-width:0.25;"/>
<line x1="267.600000" y1="100.000000" x2="267.600000" y2="100.000000"  style="stroke:black; stroke-linecap:round; stroke-width:0.25;"/>
<line x1="275.600000" y1="68.000000" x2="279.600000" y2="68.000000"  style="stroke:black; stroke-linecap:round; stroke-width:0.25;"/>
<line x1="279.600000" y1="68.000000" x2="283.600000" y2="68.000000"  style="stroke:black; stroke-linecap:round; stroke-width:0.25;"/>
<line x1="283.600000" y1="68.000000" x2="293.600000" y2="68.000000"  style="stroke:black; stroke-linecap:round; stroke-width:0.25;"/>
</svg>
